<svg viewBox="0 0 95 95" xmlns="http://www.w3.org/2000/svg" xmlns:xlink="http://www.w3.org/1999/xlink" width="95.000000" height="95.000000" fill="none">
	<rect id="Frame" width="95.000000" height="95.000000" x="0.000000" y="0.000000" fill="rgb(255,255,255)" fill-opacity="0" />
	<g id="OOqsJw">
		<path id="Vector(Border)" d="M33.3343 22.929C33.3293 22.9289 33.3243 22.9288 33.3193 22.9286C33.2637 22.9315 33.1865 22.9364 33.0875 22.9435C32.7451 22.968 32.4765 22.9725 32.2818 22.9569C31.7826 22.9168 31.0076 23.0117 29.9568 23.2415C29.6753 23.303 29.4629 23.3482 29.3194 23.377C28.8142 23.4786 28.0524 23.7337 27.0339 24.1424C27.0085 24.1526 26.9935 24.1586 26.989 24.1603C26.7721 24.2498 26.558 24.3453 26.3468 24.4466C25.8343 24.6924 25.3385 24.973 24.8594 25.2884C23.3948 26.2334 22.1403 27.349 21.0959 28.6352C21.043 28.7004 20.9906 28.766 20.9387 28.832C20.2927 29.6558 19.6586 30.6964 19.0366 31.9538C18.7297 32.566 18.4527 33.2992 18.2055 34.1533C17.9955 34.8794 17.8258 35.7322 17.6964 36.7119C17.5455 37.8387 17.544 38.8444 17.6917 39.729C17.7152 39.8698 17.7482 40.0794 17.7909 40.3578C17.8814 40.9492 17.9573 41.3841 18.0185 41.6626C18.0502 41.802 18.0836 41.941 18.1186 42.0796C18.2963 42.7837 18.5154 43.4775 18.7757 44.1608C19.1379 45.1367 19.8784 46.2647 20.9973 47.5446C22.3973 49.1456 23.4193 50.742 24.0633 52.3338C24.3449 53.0298 24.6535 53.9485 24.9894 55.0901C25.0344 55.2425 25.0703 55.4449 25.0972 55.6973C25.1118 55.8339 25.122 55.9088 25.1278 55.922C25.2902 56.2884 25.4169 56.8127 25.5076 57.495C25.5293 57.6582 25.5461 57.7771 25.558 57.8518C25.658 58.4693 25.7856 58.9145 25.941 59.1874L28.5519 59.1793L31.2208 59.181C31.2684 59.181 31.3362 59.1819 31.4244 59.1839C31.6347 59.1885 31.7553 59.1844 31.7862 59.1716C31.9789 59.0699 32.1847 59.0256 32.4038 59.0386C32.5834 59.0492 32.7497 59.0971 32.9025 59.1821L32.9019 59.1785C32.9401 59.1827 33.0197 59.1837 33.1408 59.1814C33.1616 59.1811 33.177 59.1808 33.1869 59.1806C33.2861 59.1789 33.4362 59.1757 33.6372 59.171C34.2301 59.1569 34.6801 59.1544 34.9872 59.1633C35.7065 59.1839 36.7917 59.1915 38.2428 59.186C39.1756 59.1824 39.8761 59.1828 40.3441 59.1872C40.5925 59.1894 40.7609 59.1082 40.8493 58.9435C40.9795 58.6975 41.0578 58.3868 41.0841 58.0115L41.0862 57.9818C41.1186 57.5157 41.1965 57.1448 41.3199 56.869C41.3213 56.8659 41.3227 56.8628 41.3241 56.8597C41.3298 56.4307 41.4345 55.8773 41.6382 55.1994C41.7128 54.9509 41.7637 54.7698 41.7909 54.656C41.9171 54.12 42.1808 53.3556 42.582 52.3629L42.5978 52.3237C43.1107 51.0619 43.7834 49.8939 44.6161 48.8196C44.8386 48.53 45.1784 48.1084 45.6355 47.5549C46.0685 47.0306 46.3883 46.6345 46.5947 46.3665C47 45.8471 47.3456 45.2982 47.6314 44.7198C47.9084 44.1591 48.1294 43.5707 48.2942 42.9546C48.3245 42.8402 48.3704 42.6704 48.4319 42.4452C48.5698 41.9403 48.6679 41.5609 48.726 41.3069C48.8679 40.7063 48.9588 40.1007 48.9987 39.4902C49.0773 38.1186 49.0372 36.9475 48.8783 35.9768C48.8655 35.9004 48.8449 35.8256 48.8166 35.7525C48.7265 35.5189 48.642 35.1878 48.5629 34.7591C48.5241 34.5483 48.4923 34.3962 48.4675 34.3026C48.2878 33.6132 48.0586 32.9417 47.7801 32.2881C47.5223 31.6881 47.149 30.9868 46.6601 30.1841C45.9161 28.962 44.821 27.72 43.375 26.458C42.2049 25.4369 40.791 24.6094 39.1335 23.9754C38.8078 23.8505 38.3009 23.6811 37.6131 23.4671C37.3822 23.3953 37.2087 23.3409 37.0924 23.3039C36.9908 23.2715 36.7993 23.2412 36.5177 23.2129C36.0425 23.1651 35.6518 23.083 35.3458 22.9669L33.3343 22.929L33.3343 22.929ZM33.3787 20.9295L35.3492 20.9666C35.6018 20.9427 35.8258 20.9811 36.0214 21.0816C36.1335 21.1404 36.3656 21.1875 36.7179 21.2229C37.138 21.2652 37.4651 21.3236 37.6993 21.3982C37.8112 21.4338 37.9805 21.4869 38.2071 21.5574C38.9361 21.7841 39.4835 21.9676 39.8495 22.1079C41.7276 22.8263 43.3411 23.774 44.69 24.951C46.2912 26.3484 47.5173 27.7461 48.3684 29.1441C48.9062 30.027 49.3226 30.8118 49.6177 31.4985C49.9365 32.2466 50.1982 33.0131 50.4028 33.798C50.4394 33.9361 50.4817 34.1356 50.5298 34.3965C50.5863 34.703 50.6372 34.9151 50.6826 35.0327C50.7594 35.2311 50.8155 35.4356 50.8508 35.6463C51.0342 36.7669 51.0824 38.0864 50.9954 39.6046C50.9476 40.337 50.8399 41.0576 50.6725 41.7666C50.6102 42.0387 50.5064 42.4406 50.3612 42.9722C50.301 43.1926 50.2564 43.3575 50.2275 43.4667C50.022 44.235 49.7447 44.9673 49.3958 45.6637C49.0558 46.3422 48.6477 46.9866 48.1716 47.5968C47.9563 47.8763 47.625 48.2868 47.1776 48.8285C46.7354 49.3639 46.4103 49.7671 46.2021 50.0381C45.4782 50.9719 44.8944 51.9848 44.4507 53.0767L44.4363 53.1124C44.0733 54.0104 43.8405 54.6777 43.7376 55.1144C43.7007 55.2694 43.6393 55.4896 43.5536 55.775C43.3945 56.3043 43.318 56.683 43.3241 56.9111C43.3246 56.931 43.3245 56.9509 43.3239 56.9708C43.3153 57.2282 43.2539 57.4713 43.1398 57.7002C43.1157 57.7673 43.0962 57.9074 43.0814 58.1206L43.0792 58.1514C43.0332 58.8081 42.8791 59.3841 42.6168 59.8794C42.4035 60.2768 42.1311 60.5837 41.7996 60.8C41.3961 61.0633 40.9049 61.1923 40.3261 61.1871C39.8662 61.1828 39.1743 61.1824 38.2504 61.186C36.7777 61.1915 35.6709 61.1837 34.93 61.1625C34.6574 61.1546 34.2423 61.1572 33.6845 61.1704C33.4793 61.1753 33.3248 61.1786 33.221 61.1803C33.2104 61.1805 33.1959 61.1808 33.1774 61.1811C32.8512 61.1871 32.5667 61.1571 32.3241 61.091C32.0582 61.1606 31.7436 61.1914 31.3804 61.1834C31.3068 61.1818 31.2536 61.181 31.2208 61.181L28.5507 61.1793L25.8849 61.1876C25.2045 61.1876 24.6814 60.9119 24.3156 60.3604C23.9821 59.8547 23.7381 59.1251 23.5837 58.1715C23.5685 58.0761 23.549 57.9385 23.5251 57.7588C23.4596 57.2662 23.3843 56.9241 23.2994 56.7326C23.2088 56.5281 23.1452 56.2536 23.1085 55.9093C23.0944 55.777 23.0819 55.6925 23.0711 55.6559C22.7535 54.5764 22.4662 53.7189 22.2093 53.0837C21.6496 51.7004 20.7437 50.2929 19.4917 48.8611C18.2117 47.3968 17.348 46.062 16.9007 44.8568C16.834 44.6817 16.7697 44.5058 16.7078 44.329C16.4537 43.6027 16.2406 42.8621 16.0685 42.1072C15.9959 41.7766 15.911 41.2944 15.8139 40.6607C15.7726 40.3908 15.7409 40.1898 15.7189 40.0575C15.5382 38.9758 15.5366 37.7721 15.7141 36.4464C15.8563 35.3697 16.0464 34.4201 16.2843 33.5976C16.5655 32.6258 16.887 31.7791 17.2487 31.0576C17.9285 29.6831 18.634 28.5299 19.365 27.5978C19.4852 27.4446 19.6079 27.2937 19.7331 27.1448C20.8721 25.7906 22.2194 24.6117 23.775 23.6079C24.0221 23.4452 24.2738 23.2903 24.53 23.1433C25.075 22.8305 25.6404 22.5532 26.2262 22.3115C26.2452 22.3039 26.2662 22.2954 26.2891 22.2862C27.4212 21.832 28.2998 21.542 28.9251 21.4162C29.0579 21.3896 29.2593 21.3467 29.5296 21.2877C30.7742 21.0155 31.7449 20.9074 32.4417 20.9633C32.5355 20.9708 32.7032 20.9659 32.9448 20.9486C33.0881 20.9384 33.1981 20.9317 33.2748 20.9286C33.3098 20.9272 33.3445 20.9275 33.3787 20.9295Z" fill="rgb(0,0,0)" fill-rule="evenodd" />
		<path id="Vector(Border)" d="M26.282 60.5272C26.2308 60.6649 26.1689 60.7964 26.0962 60.9216C26.0234 61.0469 25.9398 61.1659 25.8454 61.2787C25.7865 61.3486 25.7595 61.4676 25.7646 61.6358C25.7696 61.7956 25.8131 61.912 25.8952 61.9849C25.9642 62.0462 26.0604 62.0769 26.1839 62.0769L40.5223 62.0769C40.9949 62.0671 41.4335 62.1971 41.8382 62.4669C42.0405 62.6018 42.2145 62.7596 42.3601 62.9402C42.5057 63.1208 42.6229 63.3243 42.7118 63.5507C42.8978 63.9992 42.9501 64.4593 42.8686 64.9312C42.7854 65.4135 42.5734 65.83 42.2327 66.1806C42.0102 66.4094 41.7636 66.5845 41.4929 66.7058C41.1874 66.8427 40.8512 66.9112 40.4843 66.9112L27.4416 66.9036C27.2867 66.9036 27.1669 66.946 27.0821 67.0308C26.9973 67.1155 26.955 67.2355 26.955 67.3908C26.955 67.5048 26.9831 67.5952 27.0393 67.6618C27.1182 67.7553 27.2525 67.802 27.4422 67.802L38.6522 67.802C39.4677 67.802 40.1224 68.1141 40.6163 68.7383C41.1106 69.363 41.2632 70.0717 41.0741 70.8646C40.9505 71.3692 40.6888 71.7842 40.2889 72.1095C39.8891 72.4348 39.4316 72.6065 38.9165 72.6247C37.7294 72.6622 35.9571 72.6744 33.5998 72.6615C32.473 72.6553 31.6287 72.6531 31.0667 72.6548C30.7219 72.6548 30.4488 72.7151 30.2473 72.8358C29.6616 73.1878 29.1133 73.1565 28.6024 72.742C28.5812 72.7251 28.5553 72.7145 28.5245 72.7103C27.9696 72.6349 27.5928 72.1397 27.6682 71.5848C27.7436 71.0299 28.2389 70.6531 28.7938 70.7285C28.9786 70.7536 29.1547 70.8004 29.3219 70.8687C29.3895 70.8963 29.4557 70.9274 29.5205 70.9621C29.9705 70.7573 30.4838 70.6548 31.0605 70.6548C31.6282 70.6531 32.4783 70.6553 33.6108 70.6615C35.9434 70.6743 37.6884 70.6625 38.8458 70.626C38.9137 70.6236 38.974 70.6009 39.0268 70.558C39.0795 70.5151 39.1135 70.4627 39.1287 70.4007C39.1677 70.2371 39.1408 70.0966 39.0479 69.9792C38.9544 69.8611 38.8225 69.802 38.6522 69.802L27.4422 69.802C27.0196 69.802 26.6378 69.7187 26.2967 69.552C26.0773 69.4447 25.8747 69.303 25.6889 69.1268C25.4655 68.9148 25.2931 68.6789 25.1717 68.4192C25.0272 68.1102 24.955 67.7674 24.955 67.3908C24.955 66.9754 25.0369 66.6 25.2007 66.2646C25.3159 66.0288 25.4716 65.8129 25.6677 65.6167C25.8635 65.4209 26.0789 65.2655 26.3141 65.1503C26.6501 64.9858 27.0263 64.9036 27.4428 64.9036L40.4843 64.9112C40.613 64.9112 40.7177 64.8697 40.7983 64.7868C40.9203 64.6613 40.9376 64.4929 40.8502 64.2818C40.8255 64.2188 40.785 64.1685 40.7286 64.1309C40.6723 64.0934 40.6035 64.0754 40.5223 64.0769L26.1839 64.0769C25.7929 64.0769 25.4383 64.0008 25.12 63.8487C24.8828 63.7353 24.6659 63.5797 24.4691 63.3818C24.0209 62.9312 23.7864 62.3694 23.7655 61.6965C23.7502 61.1913 23.8473 60.7478 24.0567 60.366C24.1285 60.2351 24.2135 60.1114 24.3117 59.995C24.3324 59.9703 24.3507 59.9443 24.3666 59.9169C24.3825 59.8895 24.396 59.8608 24.4072 59.8308C24.6022 59.3058 25.1678 59.0465 25.6928 59.2415C26.2177 59.4365 26.477 60.0022 26.282 60.5272Z" fill="rgb(0,0,0)" fill-rule="evenodd" />
		<path id="Vector(Border)" d="M35.3827 45.4027C35.3728 44.8427 34.925 44.4106 34.3651 44.4206C33.8052 44.4305 33.3731 44.8783 33.383 45.4382C33.3857 45.5867 33.3602 45.8352 33.3066 46.1836C33.2291 46.6874 33.1971 47.084 33.2106 47.3735C33.2108 47.3787 33.2088 47.408 33.2047 47.4614C33.1968 47.5621 33.1929 47.6439 33.1929 47.7071L33.1929 59.9863C33.1929 60.5463 33.6329 60.9863 34.1929 60.9863C34.7529 60.9863 35.1929 60.5463 35.1929 59.9863L35.1929 47.7071C35.1929 47.6959 35.1948 47.666 35.1986 47.6172C35.2091 47.4819 35.2124 47.3698 35.2084 47.2806C35.2011 47.1241 35.2261 46.8598 35.2834 46.4877C35.3543 46.0267 35.3874 45.6651 35.3827 45.4027Z" fill="rgb(0,0,0)" fill-rule="evenodd" />
		<path id="Vector(Border)" d="M35.2825 45.9734C35.1661 46.0708 35.0411 46.1485 34.9076 46.2065C34.555 46.3595 34.1428 46.3752 33.6709 46.2535C33.5277 46.2166 33.3765 46.1993 33.2176 46.2017C33.2899 46.7093 33.3261 47.288 33.3261 47.9376L33.3261 59.9879C33.3262 60.5475 32.8866 60.9875 32.3268 60.9879C31.7668 60.9883 31.3265 60.5486 31.3261 59.9886L31.3268 59.9879L31.3261 59.9879L31.3261 47.9376C31.3261 47.1738 31.2708 46.5471 31.1603 46.0575C31.1015 45.7949 31.1031 45.5486 31.1652 45.3187C31.1895 45.2286 31.2231 45.141 31.266 45.0559C31.3407 44.9076 31.4349 44.7804 31.5487 44.6741C31.7196 44.5144 31.9346 44.402 32.1937 44.3368C32.8146 44.1805 33.4086 44.159 33.9757 44.2724C34.0233 44.2819 34.0706 44.2923 34.1178 44.3037C34.1507 44.271 34.1844 44.2401 34.2188 44.211C34.2904 43.927 34.4144 43.6544 34.5908 43.3932C34.7404 43.1717 34.9864 42.8958 35.3289 42.5656C35.5976 42.3039 35.8866 42.0738 36.1959 41.8753C36.5355 41.6574 36.8996 41.4775 37.2881 41.3357C37.8499 41.1338 38.3562 41.1051 38.8069 41.2496C38.9977 41.3108 39.1785 41.4031 39.3493 41.5264C39.6872 41.7692 39.921 42.0534 40.0506 42.3791C40.2032 42.7624 40.2115 43.2029 40.0758 43.7009C39.9648 44.1102 39.672 44.5004 39.1977 44.8713L39.1936 44.8745C38.9183 45.0916 38.5033 45.3109 37.9485 45.5323C37.8728 45.5625 37.8167 45.5851 37.7802 45.6C37.5868 45.68 37.3221 45.7477 36.9862 45.8032C36.789 45.8358 36.666 45.8643 36.6171 45.8886C36.389 46.0025 36.1585 46.0645 35.9257 46.0748C35.7132 46.0841 35.4988 46.0503 35.2825 45.9734ZM36.9988 43.7578C37.1114 43.6688 37.2286 43.5873 37.3503 43.5134C37.5463 43.3943 37.7541 43.2946 37.9738 43.2145C38.0267 43.1954 38.0742 43.1819 38.116 43.1738C38.0811 43.2041 38.031 43.2447 37.9657 43.2958L37.9616 43.299C37.8338 43.3998 37.5823 43.5251 37.207 43.6749C37.1263 43.7071 37.0652 43.7317 37.0237 43.7486C37.0164 43.7516 37.0082 43.7547 36.9988 43.7578Z" fill="rgb(0,0,0)" fill-rule="evenodd" />
		<path id="Vector(Border)" d="M31.2288 45.9556C30.9485 46.0447 30.6752 46.0738 30.4088 46.0429C30.1876 46.0173 29.9712 45.9503 29.7595 45.8419C29.748 45.8404 29.7369 45.8388 29.7262 45.8371C28.8235 45.694 28.0783 45.4219 27.4905 45.0207C26.9065 44.6204 26.5414 44.1589 26.3953 43.6362C26.373 43.5561 26.3557 43.4747 26.3436 43.3917C26.2858 42.9994 26.3237 42.6485 26.4575 42.339C26.5981 42.0139 26.8444 41.7345 27.1964 41.5008C27.3244 41.416 27.4585 41.3478 27.5987 41.2961C28.0503 41.1298 28.5653 41.1359 29.1438 41.3142C29.741 41.4987 30.3513 41.8482 30.9748 42.3626C31.6796 42.9436 32.1185 43.5722 32.2918 44.2485L32.7848 44.6324C33.2266 44.9765 33.3034 45.594 32.9593 46.0358C32.6152 46.4776 31.9977 46.5544 31.5559 46.2103L31.2288 45.9556ZM29.5073 43.7512C29.1626 43.4905 28.8447 43.3151 28.5535 43.2251C28.4856 43.2042 28.4274 43.1899 28.3789 43.1822C28.428 43.231 28.5087 43.2939 28.6212 43.371C28.8534 43.5294 29.1487 43.6562 29.5073 43.7512Z" fill="rgb(0,0,0)" fill-rule="evenodd" />
		<path id="Vector(Border)" d="M29.0519 9.24936C29.0411 8.68946 28.5928 8.25799 28.0329 8.26875C27.473 8.27951 27.0415 8.72788 27.0523 9.28778C27.0595 9.66687 27.1178 10.038 27.227 10.4011C27.278 10.5788 27.3291 10.8902 27.38 11.3354C27.4061 11.5629 27.4277 11.7356 27.4449 11.8535C27.4421 11.8347 27.4407 11.825 27.4407 11.8243C27.4441 12.013 27.4735 12.1812 27.5288 12.3291C27.5979 12.5122 27.6673 12.8273 27.7371 13.2745C27.7918 13.6246 27.8414 13.8922 27.8859 14.0774C27.9519 14.3508 28.035 14.7751 28.1352 15.3503C28.184 15.6306 28.2217 15.8414 28.2484 15.9827C28.2657 16.0751 28.2928 16.2128 28.3295 16.3959C28.4314 16.9041 28.4932 17.2783 28.5149 17.5186C28.5286 17.6714 28.5667 17.8728 28.6291 18.1228C28.6755 18.3086 28.6972 18.4251 28.6943 18.4723C28.659 19.0312 29.0704 19.4981 29.6293 19.5334C30.1882 19.5686 30.655 19.1572 30.6903 18.5983C30.7063 18.3447 30.6661 18.0247 30.5696 17.6383C30.5322 17.4888 30.5113 17.3888 30.5068 17.3386C30.4786 17.0267 30.4065 16.5814 30.2904 16.0027C30.2553 15.8276 30.2297 15.6974 30.2137 15.6121C30.1888 15.4799 30.1527 15.2783 30.1055 15.0072C29.998 14.3897 29.9063 13.9237 29.8304 13.6092C29.7985 13.4769 29.7595 13.2625 29.7132 12.9661C29.6319 12.4449 29.5404 12.0333 29.4387 11.7313C29.4361 11.6686 29.4312 11.6131 29.424 11.5647C29.4097 11.4672 29.3908 11.3149 29.3671 11.1078C29.3035 10.5524 29.2285 10.1248 29.1422 9.82516C29.114 9.73132 29.0924 9.63645 29.0773 9.54054C29.0623 9.44452 29.0538 9.34746 29.0519 9.24936Z" fill="rgb(0,0,0)" fill-rule="evenodd" />
		<path id="Vector(Border)" d="M41.6929 8.66528C41.5046 8.1379 40.9422 7.87152 40.4148 8.05987C39.8875 8.24821 39.6211 8.81057 39.8094 9.33794C39.8563 9.46905 39.8441 9.66485 39.7728 9.92534C39.7376 10.0545 39.6926 10.2445 39.6377 10.4953C39.5792 10.7628 39.533 10.952 39.499 11.0632C39.4116 11.3474 39.2973 11.7703 39.1562 12.3319C39.1002 12.5547 39.0579 12.7208 39.0293 12.8303C38.9636 13.0826 38.8618 13.4617 38.7239 13.9678C38.5114 14.7476 38.3566 15.336 38.2594 15.733C38.2385 15.818 38.2101 15.9433 38.1742 16.1089C38.0909 16.4923 38.0153 16.76 37.9473 16.912C37.8696 17.0861 37.7977 17.3129 37.7315 17.5925C37.6219 17.6073 37.5224 17.6291 37.4328 17.6578C36.8997 17.8292 36.6154 18.3827 36.7867 18.9158C36.958 19.449 37.5115 19.7333 38.0446 19.562L38.0277 19.5681C38.0516 19.5668 38.1027 19.5676 38.181 19.5703C38.3819 19.5773 38.5461 19.573 38.6737 19.5573C38.9047 19.529 39.0912 19.4511 39.2332 19.3236C39.3752 19.1961 39.4727 19.0191 39.5257 18.7924C39.5486 18.6945 39.5774 18.5523 39.6123 18.3659C39.6716 18.0482 39.7252 17.8357 39.7731 17.7285C39.8975 17.4503 40.0161 17.0518 40.1287 16.5332C40.1608 16.3852 40.1852 16.277 40.202 16.2086C40.2951 15.8284 40.4456 15.2567 40.6536 14.4936C40.7935 13.9802 40.8971 13.5941 40.9645 13.3353C40.9946 13.22 41.0384 13.048 41.0958 12.8195C41.2285 12.2916 41.3337 11.9012 41.4115 11.6482C41.4614 11.4851 41.5214 11.2432 41.5915 10.9227C41.6392 10.7049 41.676 10.5483 41.702 10.4529C41.8839 9.78752 41.8809 9.19165 41.6929 8.66528Z" fill="rgb(0,0,0)" fill-rule="evenodd" />
		<path id="Vector(Border)" d="M62.3716 39.3433C62.8824 39.3291 63.2544 39.3344 63.4876 39.3594C64.0444 39.419 64.5288 39.0283 64.5883 38.4714C64.6479 37.9146 64.2572 37.4303 63.7004 37.3707C63.378 37.3362 62.9165 37.3273 62.3159 37.3441C62.0057 37.3527 61.7771 37.3556 61.6301 37.3529C61.2451 37.3445 60.6706 37.3428 59.9063 37.3477C59.1618 37.3526 58.6061 37.351 58.2393 37.343C57.2226 37.3214 56.1744 37.3296 55.0948 37.3676C55.065 37.3686 54.9951 37.3628 54.885 37.3501C54.5209 37.3083 54.2192 37.3162 53.9799 37.374C53.4355 37.5054 53.111 38.0364 53.2425 38.5807C53.3739 39.1251 53.9048 39.4495 54.4492 39.3181C54.4585 39.3159 54.5276 39.3222 54.6566 39.337C54.8652 39.361 55.0347 39.3708 55.165 39.3663C56.2071 39.3297 57.2173 39.3218 58.1956 39.3425C58.5813 39.3509 59.1559 39.3527 59.9193 39.3477C60.6647 39.3428 61.2225 39.3445 61.5926 39.3525C61.7707 39.3559 62.0303 39.3528 62.3716 39.3433Z" fill="rgb(0,0,0)" fill-rule="evenodd" />
		<path id="Vector(Border)" d="M10.1324 39.3487C10.6254 39.2896 11.3151 39.2881 12.2013 39.3442C12.7602 39.3796 13.2271 38.9683 13.2625 38.4094C13.2979 37.8506 12.8866 37.3836 12.3277 37.3482C11.3197 37.2844 10.5087 37.2893 9.89453 37.3629C9.7356 37.382 9.46165 37.3745 9.07267 37.3403C8.67417 37.3053 8.36526 37.292 8.14594 37.3004C7.00721 37.3449 5.91533 37.3449 4.8703 37.3006C4.55099 37.2866 4.08765 37.2985 3.4803 37.3362C3.22849 37.3518 3.04149 37.3621 2.9193 37.367C2.35976 37.3897 1.93791 37.8471 1.96054 38.4066C1.98318 38.9662 2.4406 39.388 3.00014 39.3654C3.13667 39.3599 3.338 39.3489 3.60413 39.3323C4.14118 39.299 4.53497 39.2878 4.7855 39.2988C5.8848 39.3454 7.03049 39.3455 8.22256 39.2989C8.35783 39.2937 8.58283 39.305 8.89754 39.3326C9.425 39.379 9.83663 39.3843 10.1324 39.3487Z" fill="rgb(0,0,0)" fill-rule="evenodd" />
		<path id="Vector(Border)" d="M60.4299 26.7637L60.4302 26.7643L57.7507 28.0081L56.0856 28.7859L53.8046 29.873L52.6615 30.4205L52.6609 30.4193L52.6603 30.421C52.1549 30.6623 51.5683 30.4548 51.3271 29.9494C51.086 29.4444 51.293 28.8583 51.7976 28.6167L51.7987 28.6161L52.9441 28.0676L55.2392 26.9738L56.9086 26.194L59.5875 24.9506L59.5882 24.9502C60.0958 24.7146 60.6799 24.928 60.9159 25.4356C61.1521 25.9433 60.9387 26.5279 60.4309 26.764L60.4299 26.7637Z" fill="rgb(0,0,0)" fill-rule="evenodd" />
		<path id="Vector(Border)" d="M7.76337 22.8799C7.6069 22.8681 7.44817 22.8863 7.28718 22.9345C6.75069 23.0951 6.45531 23.6428 6.61586 24.1792C6.73478 24.5766 7.0661 24.8417 7.44794 24.8872C7.52759 24.9483 7.60221 24.9973 7.67181 25.0343C8.17548 25.3016 8.9269 25.7213 9.92606 26.2933C10.495 26.619 10.9232 26.8622 11.2107 27.023L12.2541 27.6103L14.4843 28.8611C14.6043 28.9275 14.761 28.9914 14.9544 29.0527C15.0015 29.0676 15.0331 29.078 15.0494 29.0839C15.5757 29.2754 16.1396 29.0125 16.3311 28.4862C16.5226 27.96 16.2597 27.396 15.7334 27.2045C15.6907 27.189 15.6324 27.1695 15.5585 27.1461C15.4918 27.125 15.4599 27.1152 15.4626 27.1167L13.2351 25.8674L12.1868 25.2774C11.9052 25.1199 11.4828 24.88 10.9197 24.5576C9.92997 23.991 9.17435 23.5687 8.65285 23.2908C8.64824 23.2868 8.64281 23.2822 8.63657 23.2769C8.35378 23.0348 8.06271 22.9025 7.76337 22.8799Z" fill="rgb(0,0,0)" fill-rule="evenodd" />
		<path id="Vector(Border)" d="M51.8656 47.6493C51.3732 47.3826 50.7768 47.5599 50.51 48.0523C50.2433 48.5447 50.4206 49.1411 50.913 49.4079C51.0726 49.4943 51.3117 49.6228 51.6303 49.7934C52.326 50.1658 52.8433 50.4481 53.1822 50.6403C53.5426 50.8449 54.0824 51.1555 54.8018 51.5722C56.0859 52.316 57.0556 52.866 57.7109 53.2223C57.7375 53.2368 57.7913 53.2714 57.8723 53.3261C58.3577 53.6539 58.8109 53.8048 59.2319 53.7788C59.7908 53.7443 60.2029 53.278 60.1684 52.7191C60.1351 52.1797 59.6997 51.7771 59.167 51.7806C59.1328 51.7618 59.0744 51.7245 58.9917 51.6687C58.8576 51.5781 58.7491 51.5102 58.666 51.4651C58.0267 51.1175 57.0728 50.5763 55.8043 49.8416C55.0799 49.422 54.535 49.1085 54.1697 48.9011C53.816 48.7005 53.2842 48.4102 52.5742 48.0301C52.2585 47.8611 52.0223 47.7342 51.8656 47.6493Z" fill="rgb(0,0,0)" fill-rule="evenodd" />
		<path id="Vector(Border)" d="M15.5395 49.4368L15.5397 49.4373L9.89626 52.6202C9.71478 52.7223 9.44402 52.8703 9.08396 53.0642C8.66516 53.2897 8.35458 53.4605 8.15222 53.5766C7.9175 53.7092 7.63553 53.7754 7.30631 53.775C7.28186 53.775 7.26579 53.7751 7.25812 53.7753L7.26381 53.7746C6.70709 53.835 6.22216 53.4451 6.16172 52.8884C6.10128 52.3316 6.49121 51.8467 7.04794 51.7863C7.11009 51.7795 7.18553 51.7758 7.27427 51.7751C7.48602 51.6558 7.77319 51.4985 8.13576 51.3033C8.48493 51.1152 8.74425 50.9736 8.91375 50.8782L14.5568 47.6955L14.5572 47.6953C15.0448 47.4203 15.644 47.5871 15.9192 48.0746C16.1946 48.5622 16.0278 49.1617 15.5402 49.437L15.5395 49.4368Z" fill="rgb(0,0,0)" fill-rule="evenodd" />
		<path id="Vector(Border)" d="M16.0253 13.3792C15.4655 13.3655 15.0148 13.7946 15.0011 14.3545C14.9897 14.8227 15.2879 15.2145 15.7133 15.3382C16.0132 15.7736 16.4308 16.3611 16.9662 17.1009C17.2104 17.4383 17.3929 17.6913 17.5137 17.86C17.647 18.046 17.8472 18.3243 18.1143 18.6948C18.9512 19.8558 19.5691 20.729 19.968 21.3145C20.032 21.4091 20.1269 21.5309 20.2528 21.6798C20.3693 21.8176 20.4285 21.8917 20.4302 21.9022C20.5215 22.4547 21.0274 22.817 21.5799 22.7257C22.1324 22.6343 22.4947 22.1284 22.4034 21.5759C22.3417 21.2029 22.134 20.8071 21.7802 20.3886C21.7005 20.2944 21.6487 20.2296 21.6249 20.1943C21.2133 19.5902 20.5839 18.7006 19.7368 17.5253C19.4707 17.1562 19.2715 16.8793 19.1392 16.6948C19.0167 16.5238 18.8325 16.2683 18.5864 15.9283C17.9688 15.0749 17.5139 14.4324 17.2218 14.0008C17.1064 13.8303 16.9689 13.6949 16.8093 13.5945C16.5926 13.4582 16.3352 13.3865 16.0372 13.3795C16.0318 13.3794 16.0278 13.3793 16.0253 13.3792Z" fill="rgb(0,0,0)" fill-rule="evenodd" />
		<path id="Vector(Border)" d="M53.1655 14.8444C52.9992 14.3097 52.4483 14.0202 51.9136 14.1865C51.405 14.3447 51.1182 14.8508 51.2346 15.36C51.2025 15.4039 51.148 15.4706 51.0711 15.5599C51.0434 15.5922 51.0223 15.6168 51.0079 15.6337C50.742 15.9487 50.3417 16.4184 49.807 17.0427C49.1524 17.8071 48.6629 18.3828 48.3386 18.7698C48.0353 19.1318 47.586 19.6768 46.9905 20.4047C46.5023 21.0015 46.1354 21.4476 45.8898 21.743C45.7453 21.9135 45.64 22.1088 45.5741 22.3291C45.5082 22.5494 45.4891 22.7736 45.517 23.0018C45.5849 23.5577 46.075 23.9411 46.6309 23.8732C47.1313 23.8121 47.492 23.4087 47.5094 22.9233C47.7551 22.6269 48.0981 22.2095 48.5385 21.6711C49.1291 20.9492 49.5734 20.4103 49.8715 20.0545C50.1912 19.6729 50.6761 19.1027 51.3261 18.3437C51.8639 17.7157 52.2658 17.2442 52.5316 16.9292C52.5434 16.9153 52.5618 16.8939 52.5869 16.8647C52.8202 16.5936 52.9832 16.3593 53.076 16.1618C53.1745 15.9518 53.2318 15.7387 53.2477 15.5226C53.2642 15.2998 53.2368 15.0737 53.1655 14.8444ZM47.4314 23.0172C47.4302 23.0187 47.4289 23.0201 47.4277 23.0216C47.429 23.0202 47.4302 23.0187 47.4314 23.0172Z" fill="rgb(0,0,0)" fill-rule="evenodd" />
		<path id="Vector(Border)" d="M30.5358 72.0313C30.4889 71.4733 30.0137 71.0716 29.4556 71.1185C28.8976 71.1653 28.496 71.6406 28.5428 72.1986C28.5707 72.531 28.6481 72.8416 28.775 73.1305C28.9019 73.4195 29.0782 73.6866 29.3041 73.9321C29.6458 74.3035 29.8901 74.6572 30.0372 74.9934C30.3283 75.6569 30.7272 76.168 31.234 76.5266C31.49 76.7077 31.7735 76.8499 32.0845 76.9532C32.7488 77.1737 33.3831 77.229 33.9874 77.1191C34.458 77.0336 34.9104 76.8479 35.3446 76.5621C35.7183 76.3162 36.0591 75.9571 36.3669 75.4848C36.586 75.1483 36.7142 74.8023 36.7515 74.4467C36.7673 74.2957 36.7666 74.1429 36.7496 73.9885C36.6882 73.4318 36.2027 73.0427 35.646 73.1041C35.0894 73.1655 34.7003 73.651 34.7617 74.2077C34.7665 74.2516 34.743 74.3133 34.6913 74.3928C34.5353 74.6321 34.3865 74.7983 34.2449 74.8916C34.0779 75.0015 33.903 75.0782 33.7202 75.1218C33.4082 75.1963 33.0731 75.174 32.715 75.0552C32.6634 75.0381 32.6134 75.0175 32.565 74.9937C32.2725 74.8492 32.0407 74.5819 31.8695 74.1917C31.6331 73.6513 31.2685 73.1133 30.7758 72.5778C30.7046 72.5004 30.649 72.4162 30.609 72.3251C30.569 72.234 30.5446 72.1361 30.5358 72.0313Z" fill="rgb(0,0,0)" fill-rule="evenodd" />
		<path id="Vector(Border)" d="M39.2381 16.6981C38.7003 16.5418 38.155 16.8415 37.9988 17.3793C37.8425 17.9171 38.1422 18.4624 38.68 18.6186C38.8822 18.6774 39.1405 18.7034 39.4548 18.6968C39.5288 18.6953 39.5793 18.695 39.606 18.6961C40.1656 18.7181 40.6226 18.2958 40.6446 17.7362C40.6667 17.1767 40.2444 16.7197 39.6848 16.6976C39.6177 16.695 39.527 16.6948 39.4126 16.6973C39.3024 16.6996 39.2442 16.6999 39.2381 16.6981Z" fill="rgb(0,0,0)" fill-rule="evenodd" />
	</g>
	<g id="RHE6Ch">
		<path id="Vector(Border)" d="M33.6387 82.66L33.6387 76.0921C33.6387 75.5322 33.1987 75.0921 32.6387 75.0921C32.0787 75.0921 31.6387 75.5322 31.6387 76.0921L31.6387 82.66C31.6387 83.0949 31.6803 83.5215 31.7636 83.9398C31.8469 84.3582 31.9719 84.7683 32.1386 85.1702C32.4718 85.9737 32.9463 86.6827 33.5619 87.2973C33.8697 87.6045 34.201 87.8764 34.5559 88.113C34.9109 88.3496 35.2895 88.5509 35.6917 88.7169C36.4958 89.0487 37.3328 89.2138 38.2027 89.2123L82.0894 89.1339C82.7812 89.1338 83.4473 89.001 84.0874 88.7355C84.7275 88.4701 85.2924 88.0921 85.7821 87.6017C86.2717 87.1113 86.6488 86.5458 86.9132 85.9052C87.1777 85.2647 87.3095 84.5979 87.3084 83.9049L87.2986 78.1313C87.3123 78.0659 87.3219 78.0011 87.3273 77.9368C87.6602 77.6052 87.9444 77.1749 88.18 76.6457C88.4339 76.0763 88.7816 75.3772 89.2234 74.5486C89.4161 74.1959 89.5455 73.8203 89.6116 73.422C89.961 73.0774 90.2765 72.5901 90.5582 71.96C90.6511 71.7522 90.7211 71.6042 90.7682 71.5159C91.2452 70.6233 91.9342 69.2764 92.8354 67.4754C93.1258 66.8948 93.344 66.4597 93.49 66.17C93.4928 66.1644 93.4982 66.154 93.506 66.1387C93.699 65.763 93.7673 65.4248 93.711 65.1242C93.6849 64.9866 93.7104 64.729 93.7874 64.3512C93.8745 63.9245 93.9181 63.5852 93.9181 63.3332L93.9181 27.3362C93.9181 26.8346 93.864 26.3995 93.7557 26.0309C94.0414 24.6243 94.0276 23.0729 93.7143 21.3767C93.471 20.0571 92.8294 18.9022 91.7897 17.9119C90.757 16.9284 89.5762 16.3393 88.2474 16.1447C86.526 15.893 85.0221 15.9341 83.7355 16.2679C83.0143 16.4564 82.3569 16.7433 81.7633 17.1284C81.1748 17.5102 80.6489 17.9886 80.1858 18.5636C79.2554 19.7187 78.7597 21.0371 78.6987 22.519C78.684 22.9027 78.6803 23.4692 78.6875 24.2186C78.6912 24.5894 78.6927 24.8662 78.6922 25.0491C78.6922 25.0702 78.6921 25.1006 78.6919 25.1401C78.6898 25.5397 78.732 25.8807 78.8187 26.163C78.7127 26.4971 78.6694 26.8988 78.6886 27.3682C78.6933 27.4816 78.6955 27.5629 78.6955 27.6121L78.6922 63.1949C78.6922 63.2288 78.6918 63.2813 78.691 63.3526C78.6855 63.866 78.7396 64.2952 78.8531 64.6402C78.7953 64.9562 78.8093 65.28 78.8949 65.6118C78.9559 65.8483 79.0836 66.1541 79.2781 66.529C79.3153 66.6006 79.3423 66.6532 79.3592 66.687C79.465 66.8985 79.6229 67.2154 79.8331 67.6378C80.9547 69.8919 81.8276 71.5692 82.4518 72.6696C82.6717 73.058 82.9592 73.6682 83.3143 74.5003L83.352 74.5886C83.4807 74.8891 83.6938 75.3126 83.9913 75.8589C84.2631 76.358 84.4515 76.7311 84.5565 76.978C84.561 76.9885 84.5656 76.999 84.5705 77.0094C84.7334 77.3585 84.9582 77.6614 85.245 77.9179C85.2594 77.9315 85.2772 77.9479 85.2983 77.9673L85.3084 83.9078C85.3091 84.3354 85.2278 84.7468 85.0646 85.142C84.9829 85.3399 84.8838 85.5261 84.7672 85.7008C84.651 85.875 84.5175 86.0375 84.3667 86.1886C84.0646 86.4912 83.7161 86.7243 83.3212 86.8881C82.9263 87.0519 82.5145 87.1338 82.0858 87.1339L38.1991 87.2123C37.897 87.2128 37.6006 87.1844 37.3099 87.1271C37.0191 87.0697 36.7339 86.9834 36.4545 86.8681C35.8958 86.6376 35.4026 86.3088 34.9749 85.8818C34.5471 85.4548 34.2175 84.9622 33.986 84.404C33.7544 83.8457 33.6387 83.2644 33.6387 82.66ZM86.2924 75.962C86.3128 75.9203 86.333 75.8771 86.353 75.8322C86.6262 75.2193 86.9947 74.4778 87.4585 73.6077C87.5549 73.4312 87.617 73.2468 87.6448 73.0544C87.6387 72.6015 87.8093 72.2652 88.1564 72.0456C88.3188 71.9398 88.5108 71.6392 88.7323 71.1438C88.8443 70.8933 88.9348 70.7033 89.0041 70.5737C89.4727 69.6967 90.1536 68.3656 91.0468 66.5805C91.338 65.9984 91.557 65.5616 91.7039 65.2701C91.7066 65.2647 91.7098 65.2585 91.7134 65.2514C91.6851 64.8971 91.7233 64.4637 91.8278 63.9513C91.888 63.6565 91.9181 63.4505 91.9181 63.3332L91.9181 27.3362C91.9181 27.0103 91.8888 26.7557 91.8301 26.5727C91.7368 26.3284 91.7125 26.0764 91.7574 25.8166C91.7601 25.8008 91.7632 25.7852 91.7667 25.7696C92.0308 24.5824 92.0245 23.2392 91.7475 21.74C91.5826 20.8454 91.1369 20.0521 90.4103 19.3602C89.6846 18.669 88.867 18.2568 87.9576 18.1236C86.5033 17.911 85.2634 17.9377 84.2378 18.2038C83.2294 18.4674 82.3979 19.0056 81.7433 19.8183C81.416 20.2246 81.1651 20.6597 80.9908 21.1235C80.8164 21.5873 80.7185 22.0799 80.697 22.6012C80.6837 22.9491 80.6805 23.4818 80.6875 24.1992C80.6911 24.5782 80.6927 24.8634 80.6922 25.0548C80.6922 25.0752 80.692 25.1071 80.6918 25.1505C80.6906 25.382 80.6991 25.5148 80.7171 25.5487C80.9539 25.9746 80.9542 26.3838 80.7182 26.7762C80.6856 26.8304 80.6752 27.0005 80.6869 27.2863C80.6927 27.4277 80.6956 27.537 80.6955 27.6142L80.6922 63.195C80.6922 63.2359 80.6917 63.2956 80.6909 63.3739C80.6881 63.6391 80.7003 63.8289 80.7277 63.9433C80.7722 64.0068 80.8094 64.0755 80.8394 64.1495C80.9466 64.4137 80.9443 64.6836 80.8325 64.959C80.7988 65.0428 80.8725 65.2591 81.0535 65.608C81.0949 65.6879 81.1261 65.7488 81.1471 65.7905C81.2536 66.0036 81.4125 66.3224 81.6237 66.7469C82.7292 68.9686 83.5851 70.6139 84.1914 71.6828C84.4487 72.1371 84.7694 72.8146 85.1538 73.7153L85.1913 73.8033C85.2948 74.0448 85.4803 74.4112 85.7478 74.9025C85.9801 75.3292 86.1617 75.6824 86.2924 75.962ZM78.9301 26.4464C78.9369 26.4609 78.9443 26.4752 78.9522 26.4894C78.9447 26.4753 78.9373 26.461 78.9301 26.4464ZM89.2707 73.7056C89.2558 73.7159 89.2408 73.7259 89.2257 73.7357C89.2411 73.726 89.2561 73.7159 89.2707 73.7056Z" fill="rgb(0,0,0)" fill-rule="evenodd" />
		<path id="Vector(Border)" d="M84.3562 30.8275C83.8887 30.5192 83.2792 30.6443 82.9709 31.1118C82.7491 31.448 82.7516 31.8578 82.9444 32.1761L82.9444 58.1754C82.9444 58.1933 82.944 58.223 82.9433 58.2645C82.9305 59.0124 83.1839 59.5444 83.7034 59.8605C84.1818 60.1516 84.7864 60.0044 85.0775 59.526C85.323 59.1224 85.2567 58.6291 84.9428 58.3099L84.943 58.2988C84.9439 58.2458 84.9444 58.2047 84.9444 58.1754L84.9444 32.0775C84.9444 32.0716 84.9444 32.0613 84.9446 32.0466C84.9496 31.4958 84.7534 31.0895 84.3562 30.8275Z" fill="rgb(0,0,0)" fill-rule="evenodd" />
		<path id="Vector(Border)" d="M27.8594 0L1 0C0.44 5.96046e-08 0 0.44 0 1C0 1.56 0.44 2 1 2L27.8594 2C28.4194 2 28.8594 1.56 28.8594 1C28.8594 0.440001 28.4194 0 27.8594 0Z" fill="rgb(0,0,0)" fill-rule="evenodd" transform="matrix(0,1,-1,0,89.6169,30.9048)" />
		<path id="Vector(Border)" d="M82.2003 25.1078C81.1736 25.0899 80.3973 25.0962 79.8715 25.1266C79.3124 25.1589 78.8985 25.6236 78.9309 26.1826C78.9632 26.7417 79.4278 27.1556 79.9869 27.1232C80.4627 27.0957 81.1889 27.0905 82.1654 27.1075C82.6146 27.1154 82.9528 27.1196 83.1798 27.1202C83.7014 27.1216 84.4817 27.1169 85.5207 27.106C87.0153 27.0903 88.1337 27.089 88.8759 27.102C89.3483 27.1101 90.0515 27.1089 90.9854 27.0986C91.716 27.0905 92.2624 27.0877 92.6248 27.0902C93.1848 27.0941 93.6278 26.6571 93.6316 26.0971C93.6355 25.5371 93.1985 25.0941 92.6385 25.0903C92.2642 25.0877 91.7058 25.0905 90.9633 25.0987C90.0482 25.1089 89.364 25.11 88.9109 25.1023C88.15 25.089 87.0129 25.0903 85.4998 25.1061C84.4696 25.1169 83.698 25.1216 83.1851 25.1202C82.9679 25.1196 82.6396 25.1155 82.2003 25.1078Z" fill="rgb(0,0,0)" fill-rule="evenodd" />
		<path id="Vector(Border)" d="M80.2139 63.5226C80.084 63.5344 79.9882 63.5425 79.9264 63.5469C79.3678 63.5871 78.9605 64.0575 79.0007 64.6161C79.0408 65.1746 79.5112 65.5819 80.0698 65.5418C80.1442 65.5364 80.2526 65.5273 80.395 65.5143C80.6601 65.4902 80.8515 65.4781 80.969 65.4779L91.5604 65.4741C91.9397 65.4741 92.205 65.4959 92.3563 65.5395C92.8945 65.6945 93.439 65.3934 93.594 64.8553C93.749 64.3172 93.448 63.7726 92.9098 63.6176C92.5777 63.5219 92.1277 63.4741 91.5597 63.4741L80.9661 63.4779C80.789 63.4782 80.5383 63.4931 80.2139 63.5226Z" fill="rgb(0,0,0)" fill-rule="evenodd" />
		<path id="Vector(Border)" d="M87.7211 73.677C87.8514 73.6764 87.9428 73.697 87.9955 73.7388C88.4343 74.0868 89.0524 74.0155 89.4004 73.5767C89.7484 73.138 89.6771 72.5198 89.2384 72.1718C89.1325 72.0879 89.0209 72.0146 88.9037 71.952C88.5566 71.7667 88.1595 71.6751 87.7125 71.677L86.2729 71.6804L84.8116 71.677C84.3083 71.6704 83.8409 71.8036 83.4094 72.0764C82.9361 72.3757 82.7994 72.9828 83.0987 73.4561C83.398 73.9294 84.0051 74.0661 84.4784 73.7668C84.509 73.7474 84.541 73.7311 84.5741 73.718C84.6459 73.6896 84.7236 73.6759 84.807 73.677L86.2776 73.6804L87.7211 73.677Z" fill="rgb(0,0,0)" fill-rule="evenodd" />
	</g>
</svg>
