<svg viewBox="0 0 97 97" xmlns="http://www.w3.org/2000/svg" xmlns:xlink="http://www.w3.org/1999/xlink" width="97.000000" height="97.000000" fill="none">
	<rect id="Frame" width="97.000000" height="97.000000" x="0.000000" y="0.000000" fill="rgb(255,255,255)" fill-opacity="0" />
	<g id="yMnHKp.tif">
		<path id="Vector(Border)" d="M77.1326 78.178C76.3396 78.8664 75.8324 79.6155 75.611 80.4252C75.4634 80.9654 75.7718 81.5059 76.312 81.6535C76.8522 81.8012 77.3926 81.4927 77.5403 80.9526C77.655 80.533 77.9561 80.1116 78.4437 79.6884C82.213 76.4229 85.3974 72.4434 87.9968 67.7501C90.4207 63.3733 92.0263 58.7561 92.8136 53.8984C93.3812 50.3896 93.5588 46.9799 93.3463 43.6693C93.0182 38.5659 91.919 33.7313 90.049 29.1657C88.0372 24.2606 85.1865 19.7987 81.4969 15.7802C78.6757 12.7081 75.5573 10.1255 72.1414 8.0325C69.2605 6.26657 66.2607 4.84467 63.1421 3.76681C60.9932 3.02415 58.788 2.44481 56.5263 2.0288C54.597 1.67605 52.6614 1.45167 50.7195 1.35564C48.7979 1.26062 46.8702 1.29128 44.9361 1.44761C41.2158 1.74251 37.6435 2.47247 34.2192 3.63749C32.0212 4.38529 29.8842 5.31234 27.8081 6.41864C25.5656 7.61376 23.4468 8.97121 21.4516 10.491C18.8658 12.4606 16.4877 14.7029 14.3172 17.2179C12.0356 19.8622 10.0296 22.8726 8.29935 26.249C6.55195 29.6626 5.25965 33.4829 4.42245 37.7099C3.92713 40.2124 3.64845 42.911 3.5864 45.8057C3.55801 47.1831 3.59935 48.5548 3.71043 49.9209C3.81927 51.2594 3.99507 52.5926 4.23782 53.9202C5.12629 58.7805 6.6643 63.2388 8.85185 67.295C10.4463 70.2508 12.3448 72.9963 14.5473 75.5315C15.2787 76.3754 16.0392 77.1899 16.8288 77.975C19.1228 80.2557 21.6631 82.2886 24.4497 84.0738C27.9139 86.2937 31.5403 87.9826 35.329 89.1403C36.82 89.5959 38.3361 89.9693 39.8773 90.2604C43.6166 90.9668 46.7063 91.2434 49.1466 91.0901C49.7055 91.055 50.1171 90.5883 50.082 90.0294C50.0469 89.4705 49.5801 89.0589 49.0212 89.094C46.7478 89.2368 43.8236 88.9705 40.2485 88.2951C38.8339 88.0279 37.4412 87.6879 36.0704 87.275C32.3991 86.1691 28.8851 84.5407 25.5286 82.3897C22.8401 80.6675 20.3917 78.7046 18.1834 76.5011C17.448 75.7674 16.7393 75.007 16.0571 74.2198C13.9514 71.7961 12.1364 69.1714 10.6122 66.3457C8.52474 62.4751 7.05575 58.2134 6.20521 53.5605C5.96959 52.2718 5.80032 50.9779 5.69741 49.6787C5.59668 48.407 5.55952 47.1303 5.58594 45.8485C5.6455 43.0701 5.91163 40.4867 6.38434 38.0984C7.18535 34.0542 8.41699 30.4084 10.0793 27.1611C11.7367 23.9268 13.654 21.0479 15.8313 18.5246C17.9207 16.1035 20.2108 13.9465 22.7015 12.0534C24.6006 10.61 26.6163 9.32011 28.7487 8.18367C30.6917 7.14826 32.6912 6.27742 34.7472 5.57114C38.0513 4.43617 41.5013 3.72616 45.0973 3.44111C46.9644 3.29018 48.8252 3.26187 50.6799 3.35617C52.5142 3.44944 54.3424 3.66265 56.1645 3.9958C58.3028 4.38911 60.3885 4.93528 62.4218 5.6343C65.4282 6.66793 68.3198 8.03577 71.0965 9.73782C74.3531 11.7333 77.3289 14.1983 80.0236 17.1328C82.6397 19.9821 84.814 23.0624 86.5465 26.3739C87.1508 27.5291 87.7014 28.7123 88.1982 29.9237C89.9856 34.2874 91.0363 38.9119 91.3504 43.7974C91.5533 46.9581 91.3829 50.2184 90.8394 53.5784C90.0892 58.2067 88.5585 62.6076 86.2472 66.7811C83.7623 71.2675 80.7242 75.0665 77.1326 78.178Z" fill="rgb(0,0,0)" fill-rule="evenodd" />
		<path id="Vector(Border)" d="M58.0337 29.478C58.0123 29.5517 57.9859 29.6239 57.9546 29.6947C57.7283 30.2069 57.9529 30.7873 58.4651 31.0136C58.9773 31.24 59.5576 31.0154 59.784 30.5032C60.2581 29.4303 60.2157 28.2797 59.6568 27.0513C58.7059 24.9605 57.7351 23.1638 56.7441 21.6613C56.7017 21.597 56.6368 21.4985 56.5494 21.3659C55.3222 19.5033 54.3812 18.1174 53.7265 17.2082C53.1792 16.4482 52.3502 15.4637 51.2395 14.2546C51.0841 14.0852 50.9144 13.9365 50.7304 13.8083C50.1646 13.414 49.4633 13.2141 48.6265 13.2086C47.5081 13.2013 46.6164 13.5491 45.9514 14.2521C43.6669 16.6666 41.9877 18.8306 40.9137 20.7442C40.7052 21.1156 40.3586 21.6683 39.8739 22.4024C38.8477 23.9564 38.1816 25.2077 37.8755 26.1563C37.8352 26.2813 37.7712 26.4708 37.6837 26.725C37.4701 27.3449 37.3244 27.8211 37.2464 28.1536C37.1068 28.7493 37.0548 29.3107 37.0903 29.8378C37.0919 29.8615 37.0411 29.9632 36.9379 30.143C36.6807 30.5911 36.5379 30.9895 36.5094 31.3382C36.3414 33.4532 36.6102 35.3938 37.3158 37.1598C37.9833 38.8306 39.0418 40.3453 40.4912 41.7037C41.6208 42.7627 42.855 43.5542 44.1939 44.078C45.2418 44.488 46.3539 44.7341 47.5301 44.8163L47.5301 76.7298C47.5301 77.2898 47.9701 77.7298 48.5301 77.7298C49.0901 77.7298 49.5301 77.2898 49.5301 76.7298L49.5301 43.8468L49.5301 43.8384C49.5245 43.1718 49.1884 42.8412 48.5218 42.8468C45.9531 42.8682 43.7321 42.0007 41.8589 40.2445C40.6407 39.1027 39.7501 37.8296 39.1872 36.4252C38.5888 34.9322 38.3606 33.2908 38.5028 31.501C38.507 31.4491 38.5635 31.3284 38.6724 31.1387C38.9767 30.6086 39.1145 30.1302 39.0858 29.7034C39.0517 29.197 39.2146 28.4214 39.5746 27.3764C39.6663 27.1101 39.7344 26.9081 39.7789 26.7705C40.0291 25.9951 40.617 24.9065 41.5428 23.5045C42.0541 22.7302 42.4258 22.1364 42.6577 21.7231C43.651 19.9534 45.2332 17.9212 47.4043 15.6265C47.418 15.6121 47.432 15.598 47.4463 15.5844C47.7128 15.3305 48.1018 15.2052 48.6134 15.2086C49.1413 15.212 49.5257 15.345 49.7666 15.6076C50.8236 16.7582 51.6026 17.6813 52.1035 18.3769C52.742 19.2637 53.6673 20.6268 54.8794 22.4663C54.9643 22.5951 55.0293 22.6939 55.0745 22.7624C56.008 24.1778 56.9286 25.8835 57.8364 27.8795C58.1057 28.4716 58.1715 29.0044 58.0337 29.478Z" fill="rgb(0,0,0)" fill-rule="evenodd" />
		<path id="Vector(Border)" d="M61.721 44.3467C61.4468 43.8584 60.8477 43.6902 60.3594 43.9643C59.8711 44.2385 59.7029 44.8376 59.9771 45.3259C60.2211 45.7605 60.3276 46.2766 60.2966 46.8743C60.23 48.1154 60.2649 49.9572 60.4014 52.3995C60.4846 53.8868 60.531 54.9992 60.5407 55.7368C60.5553 56.8449 60.9361 57.7637 61.683 58.4932C61.8394 58.646 62.006 58.7845 62.1825 58.9087C62.7936 59.3384 63.5252 59.5967 64.3773 59.6837C66.3623 59.8864 69.2239 59.9576 72.9621 59.8973C73.3495 59.8879 73.7254 59.9268 74.0898 60.014C74.4115 60.0909 74.7242 60.2054 75.0279 60.3575C75.5286 60.6083 76.119 60.4119 76.3698 59.9112C76.6206 59.4105 76.4242 58.82 75.9235 58.5693C75.4307 58.3225 74.9235 58.1435 74.4019 58.0323C73.9233 57.9303 73.4326 57.8854 72.9298 57.8975C69.2704 57.9566 66.4872 57.8888 64.5803 57.694C63.9451 57.6292 63.4452 57.4187 63.0804 57.0624C62.9765 56.9609 62.8875 56.8501 62.8136 56.7301C62.6367 56.443 62.5457 56.1031 62.5406 55.7103C62.5304 54.9443 62.483 53.8035 62.3983 52.2879C62.2659 49.9185 62.2311 48.1485 62.2939 46.978C62.3365 46.1571 62.2104 45.41 61.9155 44.737C61.8573 44.604 61.7924 44.4739 61.721 44.3467Z" fill="rgb(0,0,0)" fill-rule="evenodd" />
		<path id="Vector(Border)" d="M37.0857 45.3264C36.8419 45.76 36.7353 46.2762 36.766 46.875C36.8375 48.2074 36.8014 50.1868 36.6577 52.8131C36.5862 54.1211 36.5418 55.1 36.5245 55.7497C36.5068 56.4271 36.3552 57.033 36.0698 57.5673C35.8909 57.902 35.6595 58.2087 35.3756 58.4872C34.6811 59.1686 33.7855 59.5678 32.6888 59.6847C30.9031 59.8741 28.238 59.9475 24.6937 59.9047C24.5291 59.9027 24.4056 59.9012 24.3231 59.9002C23.5096 59.886 22.7335 60.0445 21.9946 60.3758C21.4836 60.605 20.9021 60.3836 20.673 59.8726C20.4438 59.3616 20.6652 58.7801 21.1762 58.551C21.7 58.3161 22.2362 58.1447 22.785 58.0367C23.2948 57.9365 23.8153 57.891 24.3467 57.9004C24.4306 57.9014 24.5544 57.9029 24.7178 57.9048C28.1836 57.9467 30.7699 57.877 32.4768 57.6959C33.0958 57.63 33.5857 57.4269 33.9465 57.0869C33.9561 57.0779 33.9655 57.0688 33.9749 57.0596C34.3271 56.7141 34.5105 56.2597 34.5252 55.6965C34.543 55.0281 34.5882 54.0305 34.6607 52.7039C34.8005 50.1497 34.8364 48.2408 34.7686 46.9774C34.7182 45.9932 34.9094 45.1161 35.3423 44.3462C35.6168 43.8581 36.216 43.6902 36.7041 43.9646C37.1922 44.2391 37.3601 44.8383 37.0857 45.3264Z" fill="rgb(0,0,0)" fill-rule="evenodd" />
		<path id="Vector(Border)" d="M62.707 63.5555C61.3453 63.0691 60.1561 62.3135 59.1393 61.2885C59.1209 61.27 59.102 61.2523 59.0826 61.2354C59.064 61.2137 59.0444 61.1925 59.0237 61.1719C57.6433 59.802 56.7443 58.3078 56.3267 56.6894C55.9433 55.2035 55.9657 53.613 56.3939 51.9178C56.8097 50.2711 57.3067 49.0024 57.8849 48.1116C58.2872 47.4919 58.7674 46.9796 59.3255 46.5746C59.8028 46.2283 60.337 45.9605 60.9283 45.7713C60.9495 45.7645 60.9705 45.757 60.9912 45.7488C61.346 45.6085 61.6216 45.3824 61.8178 45.0706C62.0085 44.7808 62.476 44.453 63.2205 44.0872C63.4433 43.9776 63.6117 43.8928 63.7256 43.8327C64.4665 43.4418 65.6851 43.0814 67.3816 42.7516C68.6331 42.5084 69.5699 42.2813 70.192 42.0704C70.6879 41.9051 71.1902 41.7725 71.699 41.6725C72.2382 41.5665 72.7847 41.4972 73.3384 41.4647C73.6685 41.4447 74.1533 41.3965 74.7928 41.32C75.9908 41.1767 76.8714 41.1418 77.4346 41.2155C78.0004 41.2896 78.4006 41.4858 78.635 41.804C78.6603 41.8384 78.6837 41.8742 78.7052 41.9114C78.89 42.2319 79.0046 42.587 79.049 42.9767C79.0826 43.2715 79.0814 43.7263 79.0455 44.3412C78.9713 45.6051 78.7392 47.4929 78.3492 50.0046L78.3466 50.0214L78.344 50.0382L78.3414 50.055L78.3389 50.0715C78.3123 50.242 78.2224 50.5192 78.0689 50.9032C77.7721 51.6463 77.6258 52.2664 77.6301 52.7634C77.6347 53.3062 77.4052 54.1339 76.9418 55.2467C76.6902 55.8508 76.5131 56.3141 76.4107 56.6367C76.2377 57.1808 75.952 57.7558 75.5534 58.3617C75.3034 58.7417 74.8918 59.2905 74.3187 60.008C74.207 60.1478 74.1234 60.2528 74.0678 60.3229C73.1729 61.4516 72.0779 62.3461 70.7831 63.0065C69.532 63.6446 68.201 64.0122 66.79 64.1093C65.3742 64.2067 64.0133 64.0221 62.707 63.5555ZM57.6148 62.5915C56.2348 61.2219 55.2548 59.7117 54.6748 58.061C54.5988 57.8448 54.5297 57.6262 54.4675 57.4052C54.3674 57.0498 54.2859 56.6911 54.2229 56.3292C53.9494 54.7565 54.0267 53.1228 54.4547 51.4281C54.9247 49.5672 55.5089 48.0988 56.2073 47.0227C56.739 46.2036 57.3729 45.5234 58.1089 44.9821C58.7296 44.5257 59.423 44.168 60.189 43.9091C60.4517 43.5285 60.7986 43.1932 61.2295 42.9034C61.4732 42.7395 61.8428 42.5357 62.3384 42.2922C62.5439 42.1912 62.6952 42.1151 62.7923 42.0638C63.4092 41.7383 64.1194 41.4659 64.9231 41.2467C65.3867 41.1202 66.079 40.9674 67 40.7884C68.1631 40.5623 69.0163 40.3572 69.5596 40.173C70.169 39.9699 70.7864 39.8092 71.4119 39.6908C72.0066 39.5783 72.6085 39.5042 73.2177 39.4683C73.5088 39.4507 73.9546 39.406 74.5553 39.3341C75.919 39.171 76.9654 39.1371 77.6944 39.2325C78.9742 39.4001 79.8887 39.96 80.4377 40.9121C80.761 41.4727 80.9605 42.0855 81.0362 42.7505C81.0827 43.1593 81.0847 43.7286 81.0421 44.4585C80.9642 45.7858 80.7253 47.7368 80.3256 50.3115L80.323 50.3283L80.3203 50.345L80.3177 50.3618L80.3151 50.3789C80.2653 50.6988 80.1357 51.1209 79.9262 51.6452C79.7267 52.1446 79.628 52.5117 79.63 52.7465C79.6347 53.3008 79.5423 53.8907 79.3529 54.5162C79.2472 54.8654 79.0589 55.3652 78.788 56.0156C78.5588 56.5661 78.4017 56.975 78.3167 57.2424C78.0881 57.9618 77.7239 58.7013 77.2243 59.4609C76.9405 59.8922 76.4929 60.4906 75.8814 61.2562C75.771 61.3945 75.6888 61.4976 75.635 61.5655C75.1418 62.1874 74.5985 62.75 74.0048 63.2533C73.3039 63.8476 72.5329 64.3592 71.6918 64.7882C70.9998 65.1411 70.2876 65.4247 69.5552 65.6389C68.7064 65.8872 67.8305 66.0424 66.9273 66.1046C65.8878 66.1761 64.8719 66.1201 63.8796 65.9367C63.2552 65.8213 62.6401 65.6554 62.0343 65.439C61.2004 65.1411 60.4199 64.7597 59.6928 64.2947C58.9843 63.8415 58.3265 63.309 57.7194 62.6971C57.7007 62.6782 57.6829 62.6589 57.666 62.6391C57.6486 62.6239 57.6315 62.6081 57.6148 62.5915ZM60.151 43.9653C60.1496 43.9674 60.1482 43.9694 60.1469 43.9716C60.1483 43.9695 60.1497 43.9674 60.151 43.9653Z" fill="rgb(0,0,0)" fill-rule="evenodd" />
		<path id="Vector(Border)" d="M39.0949 59.9794C38.7843 60.3996 38.437 60.7926 38.0532 61.1586C38.0289 61.1818 38.006 61.2058 37.9845 61.2306C37.9607 61.2511 37.9375 61.2729 37.9151 61.296C37.4173 61.8095 36.8751 62.2536 36.2886 62.6284C35.2362 63.3009 34.041 63.75 32.703 63.9756C30.6129 64.3281 28.6274 64.0598 26.7464 63.1705C25.547 62.6035 24.6661 62.0897 24.1036 61.629C23.3395 61.0033 22.8258 60.2559 22.5624 59.3868C22.4266 58.9385 22.1227 58.573 21.6505 58.2902C21.5002 58.2003 21.3145 57.9498 21.0932 57.5384C21.0144 57.392 20.9527 57.2803 20.9081 57.2033C20.5858 56.6476 20.3062 55.9883 20.0694 55.2252C19.9215 54.7484 19.733 54.0096 19.5041 53.0086C19.2211 51.7715 18.9662 50.8217 18.7392 50.159C18.7388 50.0578 18.7276 49.962 18.7055 49.8717C18.5005 49.0539 18.3232 47.7827 18.1734 46.0581C18.0651 44.8109 17.9595 43.8725 17.8567 43.2427L16.8697 43.4038L17.8607 43.2694C17.8373 43.0974 17.8564 42.9283 17.918 42.7621C18.0655 42.3571 18.2816 42.031 18.5662 41.784C18.972 41.4317 19.5171 41.2399 20.2015 41.2086C20.9628 41.1744 22.1225 41.2687 23.6803 41.4915C24.4068 41.5954 24.9549 41.6669 25.3248 41.706C25.392 41.7132 25.4927 41.7233 25.6269 41.7364C26.1992 41.7922 26.6123 41.8544 26.8661 41.9231C27.2242 42.0199 27.5108 42.1692 27.7258 42.3708C27.741 42.3851 27.7567 42.3989 27.7729 42.4122C28.0645 42.6532 28.4064 42.7653 28.7985 42.7484C29.7267 42.6892 30.7129 42.8439 31.7571 43.2128C32.4174 43.446 33.4002 43.9008 34.7054 44.5773C34.8055 44.6292 34.8854 44.6705 34.945 44.7014C34.9666 44.7299 35.0025 44.7843 35.0527 44.8645C35.4024 45.4234 35.8165 45.7364 36.2952 45.8037C36.3782 45.8155 36.4599 45.8322 36.5403 45.8538C36.8373 45.9334 37.1166 46.0793 37.3781 46.2913C37.6143 46.4827 37.9575 46.8502 38.4077 47.3936C38.4663 47.4643 38.5104 47.5175 38.5402 47.5532C38.9208 48.0096 39.2575 48.4913 39.5505 48.9983C39.8941 49.5931 40.1775 50.2226 40.4006 50.8869C40.8021 52.0823 40.9816 53.307 40.9392 54.561C40.8967 55.8166 40.6348 57.0057 40.1532 58.1282C39.8673 58.7947 39.5145 59.4118 39.0949 59.9794ZM39.3511 62.688C38.7026 63.3571 37.994 63.9292 37.2256 64.4044C35.9851 65.1714 34.5884 65.6859 33.0356 65.9478C31.6762 66.177 30.3527 66.1865 29.0651 65.9762C27.9819 65.7992 26.924 65.4667 25.8916 64.9787C24.5441 64.3416 23.5257 63.7408 22.8364 63.1763C22.1133 62.5842 21.547 61.9076 21.1375 61.1467C20.9476 60.7938 20.7915 60.4229 20.669 60.0338C20.657 60.0265 20.642 60.0175 20.624 60.0067C20.1582 59.7281 19.7274 59.2212 19.3319 58.486C19.2631 58.3581 19.2118 58.265 19.1781 58.2068C18.7803 57.521 18.4407 56.7247 18.1593 55.818C17.9963 55.2928 17.7947 54.505 17.5544 53.4545C17.2653 52.1904 17.0137 51.263 16.7997 50.6725C16.7509 50.5373 16.729 50.3892 16.7339 50.2283C16.5169 49.3099 16.3325 47.9775 16.1809 46.2311C16.0769 45.0339 15.9776 44.1452 15.8828 43.565C15.8814 43.5561 15.88 43.5472 15.8788 43.5383C15.8427 43.272 15.8407 43.01 15.8729 42.7523C15.9014 42.524 15.9567 42.2991 16.0388 42.0775C16.3372 41.2584 16.7769 40.6144 17.3579 40.1454C18.0659 39.5738 18.9839 39.2622 20.1117 39.2106C20.998 39.1708 22.2819 39.2712 23.9635 39.5117C24.6657 39.6121 25.1896 39.6806 25.5352 39.7171C25.597 39.7237 25.6923 39.7332 25.8211 39.7458C26.5044 39.8125 27.0267 39.8947 27.3882 39.9924C27.9738 40.1508 28.4771 40.4004 28.898 40.7412C30.0288 40.701 31.2038 40.8962 32.4232 41.327C33.1707 41.591 34.2382 42.0826 35.6257 42.8016C35.751 42.8665 35.8455 42.9154 35.909 42.9483C36.209 43.1039 36.4888 43.389 36.7482 43.8037C36.7609 43.8239 36.7723 43.8421 36.7825 43.8581C37.457 43.9887 38.0754 44.2819 38.6377 44.7378C38.9765 45.0124 39.4132 45.4724 39.9478 46.1176C40.0052 46.1869 40.048 46.2385 40.0763 46.2724C41.0634 47.4563 41.8035 48.7823 42.2965 50.2502C42.5517 51.0099 42.7316 51.7796 42.8362 52.5595C42.9277 53.2415 42.9616 53.9312 42.9381 54.6286C42.9039 55.6402 42.7502 56.6172 42.4772 57.5596C42.3437 58.0202 42.1818 58.4725 41.9912 58.9166C41.6515 59.7086 41.2338 60.4435 40.7381 61.1214C40.3508 61.6512 39.9158 62.1461 39.4333 62.6061C39.4197 62.6191 39.4058 62.6317 39.3917 62.6437C39.3787 62.6588 39.3652 62.6735 39.3511 62.688Z" fill="rgb(0,0,0)" fill-rule="evenodd" />
		<path id="Vector(Border)" d="M49.531 14.3726L49.531 36.8265C49.8556 36.6562 50.1702 36.4181 50.475 36.1122C51.5756 35.0106 53.2517 33.3905 55.5031 31.2519C55.8153 30.9553 56.0491 30.7331 56.2043 30.5855C57.0474 29.7832 57.8355 29.2927 58.5685 29.114C58.9508 29.0208 59.2751 29.1191 59.5414 29.4087C60.1269 30.0455 60.4881 30.7827 60.6249 31.6202C60.7244 32.2293 60.7061 32.9837 60.57 33.8833C60.2543 35.9763 59.702 37.6377 58.9132 38.8675C56.3788 42.8181 52.9208 44.8109 48.539 44.8459C47.8723 44.8513 47.5364 44.5206 47.531 43.854L47.531 43.846L47.531 14.3726C47.531 13.8126 47.971 13.3726 48.531 13.3726C49.091 13.3726 49.531 13.8126 49.531 14.3726ZM49.531 38.9719C50.3817 38.7325 51.1687 38.2497 51.892 37.5236C52.9789 36.4358 54.6417 34.8286 56.8805 32.7019C57.1928 32.4053 57.4268 32.1829 57.5825 32.0349C57.9038 31.7291 58.1953 31.4929 58.4569 31.3265C58.5508 31.5198 58.6155 31.7252 58.6511 31.9427C58.7168 32.3448 58.6972 32.892 58.5925 33.5842C58.3192 35.3963 57.8649 36.7975 57.2297 37.7878C55.9654 39.7586 54.4377 41.1536 52.6467 41.9727C51.6842 42.4128 50.6456 42.6867 49.531 42.7942L49.531 38.9719Z" fill="rgb(0,0,0)" fill-rule="evenodd" />
		<path id="Vector(Border)" d="M69.5056 41.5808C69.3454 41.0442 68.7979 40.7485 68.2613 40.9087C67.7247 41.069 67.429 41.6165 67.5893 42.153C67.751 42.6948 67.812 43.5678 67.7722 44.772C67.7497 45.4491 67.7468 45.9629 67.7634 46.3135C67.8076 47.2435 67.8795 47.9567 67.9792 48.4532C68.1486 49.2968 68.4541 50.0451 68.8958 50.6979C69.2605 51.237 69.6966 51.6498 70.2039 51.9362C70.7357 52.2363 71.3458 52.3977 72.0343 52.4203C73.1042 52.4551 74.7029 52.4578 76.8302 52.4283L76.8525 52.428L76.8748 52.4277L76.897 52.4274L76.9193 52.4271C77.4276 52.4201 77.8664 52.4787 78.2356 52.6029C78.7664 52.7815 79.3237 52.5047 79.5023 51.9739C79.6808 51.4431 79.404 50.8858 78.8733 50.7073C78.2883 50.5105 77.6278 50.4172 76.8916 50.4273L76.8025 50.4285C74.7061 50.4575 73.1385 50.4552 72.0999 50.4214C71.4341 50.3996 70.9183 50.1182 70.5523 49.5772C70.2608 49.1463 70.0567 48.6404 69.9401 48.0595C69.8602 47.6617 69.8006 47.0482 69.7612 46.2191C69.7471 45.922 69.7504 45.4617 69.7711 44.8382C69.8181 43.4166 69.7296 42.3308 69.5056 41.5808Z" fill="rgb(0,0,0)" fill-rule="evenodd" />
		<path id="Vector(Border)" d="M29.4415 42.2504C29.3482 42.475 29.2998 42.8838 29.2964 43.477C29.2957 43.5983 29.2948 43.6901 29.2938 43.7525C29.2893 44.0289 29.2901 44.4492 29.2961 45.0136C29.312 46.513 29.2585 47.6414 29.1355 48.3989C28.9515 49.5235 28.5381 50.4399 27.8953 51.1481C27.8664 51.18 27.837 51.2115 27.8071 51.2425C27.0213 52.0592 26.0435 52.4582 24.8737 52.4395C24.3439 52.4312 23.5457 52.4288 22.479 52.4323C21.4443 52.4358 20.667 52.4338 20.1468 52.4264C19.6387 52.4195 19.2 52.4781 18.8308 52.6023C18.3 52.7808 17.7427 52.5041 17.5641 51.9733C17.3856 51.4425 17.6624 50.8852 18.1931 50.7067C18.7781 50.5099 19.4387 50.4166 20.1751 50.4266C20.6836 50.4338 21.4494 50.4357 22.4724 50.4323C23.5518 50.4288 24.3629 50.4312 24.9057 50.4397C25.2596 50.4454 25.5763 50.3776 25.8559 50.2364C26.0424 50.1422 26.2124 50.0153 26.3659 49.8558C26.7712 49.4346 27.0364 48.8421 27.1614 48.0784C27.266 47.4341 27.3109 46.4196 27.2962 45.0349C27.29 44.4526 27.2893 44.0144 27.2941 43.7203C27.2949 43.6648 27.2957 43.5798 27.2964 43.4654C27.3014 42.6103 27.4007 41.9495 27.5945 41.4831C27.8094 40.9659 28.3845 40.7284 28.9017 40.9433C29.4188 41.1581 29.6563 41.7333 29.4415 42.2504Z" fill="rgb(0,0,0)" fill-rule="evenodd" />
		<path id="Vector(Border)" d="M38.5059 29.0095C37.9575 28.8961 37.4375 29.2378 37.3241 29.7862C37.2107 30.3346 37.5524 30.8546 38.1008 30.968C38.3561 31.0209 38.7078 31.2627 39.1559 31.6936L44.1467 36.4472L45.748 37.9748C46.3107 38.5142 46.914 38.8473 47.5579 38.9738C47.8725 39.0357 48.1968 39.0482 48.5307 39.0115C49.0874 38.9503 49.4766 38.4649 49.4154 37.9082C49.3542 37.3516 48.8688 36.9623 48.3121 37.0235C47.9136 37.0673 47.519 36.902 47.1285 36.5277L45.5261 34.9989L40.5422 30.2521C39.8168 29.5544 39.1381 29.1402 38.5059 29.0095Z" fill="rgb(0,0,0)" fill-rule="evenodd" />
		<path id="Vector(Border)" d="M34.4069 58.9602L34.4068 58.9602C34.0109 58.5642 34.0109 57.942 34.4068 57.546C34.8028 57.15 35.4251 57.15 35.8211 57.546L35.8211 57.546L35.8211 57.546C36.5156 58.2406 37.5606 59.2801 38.9559 60.6646C42.4726 64.1542 45.0896 66.7939 46.8071 68.5837C47.2995 69.0967 47.8742 69.3532 48.5312 69.3532C48.7763 69.3532 49.0099 69.3176 49.232 69.2462C49.6055 69.1263 49.9465 68.9055 50.2552 68.5839C51.972 66.7945 54.5883 64.1555 58.1043 60.6669C59.5008 59.2812 60.5465 58.2409 61.2414 57.546C61.6374 57.15 62.2596 57.15 62.6556 57.546C63.0516 57.942 63.0516 58.5642 62.6556 58.9602C61.9588 59.657 60.9113 60.6992 59.513 62.0866C56.0087 65.5636 53.4038 68.1909 51.6984 69.9685C51.1932 70.4948 50.6329 70.8711 50.0174 71.0974C49.5534 71.268 49.058 71.3532 48.5312 71.3532C48.0043 71.3532 47.5087 71.2679 47.0445 71.0972C46.4293 70.871 45.8692 70.4948 45.3642 69.9686C43.6579 68.1905 41.0522 65.5624 37.5471 62.0843C36.1499 60.6979 35.1032 59.6566 34.4068 58.9602L34.4069 58.9602Z" fill="rgb(0,0,0)" fill-rule="evenodd" />
		<path id="Vector(Border)" d="M75.8709 72.651L75.8978 75.1037L75.9194 78.3727C75.9195 78.8337 76.0103 79.2504 76.1919 79.6229C76.2006 79.6407 76.2095 79.6583 76.2185 79.6759C76.24 79.6848 76.2739 79.6985 76.3202 79.7172C76.4082 79.7526 76.4785 79.7821 76.5312 79.8057C77.1262 80.0721 77.8158 80.2417 78.6001 80.3144C79.0988 80.3606 79.8703 80.3725 80.9147 80.35C82.1031 80.3245 83.0018 80.3443 83.6106 80.4094C84.1675 80.469 84.5582 80.9532 84.4987 81.5101C84.4391 82.0669 83.9548 82.4576 83.398 82.3981C82.8741 82.3421 82.0607 82.3259 80.9577 82.3496C79.8373 82.3736 78.9899 82.3591 78.4156 82.3058C77.4112 82.2128 76.5107 81.9879 75.7143 81.6312C75.6848 81.618 75.6378 81.5985 75.5734 81.5725C75.1457 81.4003 74.8182 81.1561 74.591 80.8399C74.5402 80.7692 74.4945 80.6949 74.4537 80.6171C74.0976 79.9374 73.9195 79.1937 73.9195 78.3859L73.8979 75.1256L73.871 72.6716L73.8723 72.6716L73.871 72.6703C73.8656 72.1103 74.3013 71.6661 74.8613 71.6607C75.4209 71.6553 75.8648 72.0903 75.8709 72.6497L75.8709 72.651Z" fill="rgb(0,0,0)" fill-rule="evenodd" />
		<path id="Vector(Border)" d="M79.4777 42.2485L71.0095 50.607C70.6109 51.0004 69.9887 50.9963 69.5953 50.5978C69.2019 50.1992 69.206 49.577 69.6045 49.1836L78.0728 40.8251C78.4713 40.4317 79.0935 40.4358 79.4869 40.8343C79.8803 41.2329 79.8763 41.8551 79.4777 42.2485Z" fill="rgb(0,0,0)" fill-rule="evenodd" />
		<path id="Vector(Border)" d="M19.1047 40.8297C18.7087 40.4337 18.0864 40.4337 17.6904 40.8297C17.2944 41.2256 17.2944 41.8479 17.6904 42.2439L26.0484 50.6024C26.4444 50.9984 27.0666 50.9984 27.4626 50.6024C27.8586 50.2065 27.8586 49.5842 27.4627 49.1882L19.1047 40.8297Z" fill="rgb(0,0,0)" fill-rule="evenodd" />
		<path id="Vector(Border)" d="M56.1911 23.1489C55.5587 23.5269 54.7101 24.2689 53.6451 25.3748C52.9187 26.1291 52.3489 26.6804 51.9358 27.0287C51.9085 27.0517 51.8674 27.0865 51.8124 27.133C51.272 27.5905 50.842 27.9138 50.5225 28.1028C49.9323 28.452 49.3227 28.6437 48.6936 28.6779C48.1344 28.7083 47.6712 28.2929 47.6407 27.7337C47.6103 27.1745 48.0257 26.7113 48.5849 26.6809C48.8883 26.6643 49.1947 26.5646 49.5042 26.3815C49.7269 26.2497 50.0656 25.9914 50.5201 25.6066C50.576 25.5593 50.6182 25.5236 50.6467 25.4996C51.0068 25.1959 51.5261 24.6919 52.2045 23.9875C53.3929 22.7534 54.3797 21.9016 55.1649 21.4322C55.6455 21.1449 56.249 21.2968 56.5363 21.7774C56.8237 22.2581 56.6718 22.8615 56.1911 23.1489Z" fill="rgb(0,0,0)" fill-rule="evenodd" />
		<path id="Vector(Border)" d="M42.2017 21.5999C41.7532 21.2646 41.1373 21.3535 40.802 21.802C40.4666 22.2505 40.5556 22.8664 41.0041 23.2017C41.7648 23.7705 42.8392 24.7296 44.2272 26.079C44.8001 26.6359 45.2338 27.0517 45.5283 27.3264C46.3062 28.0534 47.1325 28.4895 48.0071 28.6349C48.1185 28.6535 48.2307 28.6673 48.3438 28.6764C48.902 28.7212 49.3758 28.3179 49.4207 27.7597C49.4656 27.2015 49.0622 26.7277 48.504 26.6828C47.9678 26.6397 47.4305 26.3667 46.8924 25.8638C46.608 25.5985 46.1843 25.1922 45.6213 24.645C44.1714 23.2354 43.0316 22.2204 42.2017 21.5999Z" fill="rgb(0,0,0)" fill-rule="evenodd" />
		<path id="Vector(Border)" d="M28.2268 50.062C27.8275 49.6694 27.2053 49.6747 26.8126 50.074C26.42 50.4733 26.4253 51.0955 26.8246 51.4881L33.533 58.0843C33.9324 58.4769 34.5546 58.4716 34.9472 58.0723C35.3398 57.673 35.3346 57.0508 34.9353 56.6581L28.2268 50.062Z" fill="rgb(0,0,0)" fill-rule="evenodd" />
		<path id="Vector(Border)" d="M70.2379 51.4881L63.5294 58.0843C63.1301 58.4769 62.5079 58.4716 62.1153 58.0723C61.7226 57.673 61.7279 57.0508 62.1272 56.6581L68.8357 50.062C69.235 49.6694 69.8573 49.6747 70.2499 50.074C70.6425 50.4733 70.6372 51.0955 70.2379 51.4881Z" fill="rgb(0,0,0)" fill-rule="evenodd" />
	</g>
</svg>
