<svg aria-hidden="true" style="position: absolute; width: 0; height: 0; overflow: hidden;" version="1.1" xmlns="http://www.w3.org/2000/svg" xmlns:xlink="http://www.w3.org/1999/xlink">
   <defs>
      <symbol id="icon-design" viewBox="0 0 32 32">
         <path d="M11.228 7.723c-0.002-0-0.003-0-0.005-0-0.019 0.001-0.045 0.003-0.078 0.005-0.115 0.008-0.206 0.010-0.271 0.005-0.168-0.013-0.429 0.018-0.783 0.096-0.095 0.021-0.166 0.036-0.215 0.046-0.17 0.034-0.427 0.12-0.77 0.258-0.009 0.003-0.014 0.005-0.015 0.006-0.073 0.030-0.145 0.062-0.216 0.096-0.173 0.083-0.34 0.177-0.501 0.284-0.493 0.318-0.916 0.694-1.268 1.127-0.018 0.022-0.035 0.044-0.053 0.066-0.218 0.277-0.431 0.628-0.641 1.052-0.103 0.206-0.197 0.453-0.28 0.741-0.071 0.245-0.128 0.532-0.171 0.862-0.051 0.38-0.051 0.718-0.002 1.016 0.008 0.047 0.019 0.118 0.033 0.212 0.030 0.199 0.056 0.346 0.077 0.44 0.011 0.047 0.022 0.094 0.034 0.14 0.060 0.237 0.134 0.471 0.221 0.701 0.122 0.329 0.371 0.709 0.748 1.14 0.472 0.539 0.816 1.077 1.033 1.613 0.095 0.234 0.199 0.544 0.312 0.928 0.015 0.051 0.027 0.119 0.036 0.205 0.005 0.046 0.008 0.071 0.010 0.076 0.055 0.123 0.097 0.3 0.128 0.53 0.007 0.055 0.013 0.095 0.017 0.12 0.034 0.208 0.077 0.358 0.129 0.45l0.879-0.003 0.899 0.001c0.016 0 0.039 0 0.069 0.001 0.071 0.002 0.111 0 0.122-0.004 0.065-0.034 0.134-0.049 0.208-0.045 0.060 0.004 0.117 0.020 0.168 0.048l-0-0.001c0.013 0.001 0.040 0.002 0.080 0.001 0.007-0 0.012-0 0.016-0 0.033-0.001 0.084-0.002 0.152-0.003 0.2-0.005 0.351-0.006 0.455-0.003 0.242 0.007 0.608 0.009 1.097 0.008 0.314-0.001 0.55-0.001 0.708 0 0.084 0.001 0.14-0.027 0.17-0.082 0.044-0.083 0.070-0.188 0.079-0.314l0.001-0.010c0.011-0.157 0.037-0.282 0.079-0.375 0-0.001 0.001-0.002 0.001-0.003 0.002-0.145 0.037-0.331 0.106-0.559 0.025-0.084 0.042-0.145 0.051-0.183 0.043-0.181 0.131-0.438 0.266-0.772l0.005-0.013c0.173-0.425 0.399-0.818 0.68-1.18 0.075-0.098 0.189-0.24 0.343-0.426 0.146-0.177 0.254-0.31 0.323-0.4 0.137-0.175 0.253-0.36 0.349-0.555 0.093-0.189 0.168-0.387 0.223-0.595 0.010-0.039 0.026-0.096 0.046-0.172 0.046-0.17 0.079-0.298 0.099-0.383 0.048-0.202 0.078-0.406 0.092-0.612 0.026-0.462 0.013-0.857-0.041-1.183-0.004-0.026-0.011-0.051-0.021-0.076-0.030-0.079-0.059-0.19-0.085-0.335-0.013-0.071-0.024-0.122-0.032-0.154-0.061-0.232-0.138-0.458-0.232-0.679-0.087-0.202-0.213-0.438-0.377-0.709-0.251-0.412-0.62-0.83-1.107-1.255-0.394-0.344-0.87-0.623-1.429-0.836-0.11-0.042-0.28-0.099-0.512-0.171-0.078-0.024-0.136-0.043-0.175-0.055-0.034-0.011-0.099-0.021-0.194-0.031-0.16-0.016-0.292-0.044-0.395-0.083l-0.678-0.013zM11.243 7.050l0.664 0.013c0.085-0.008 0.161 0.005 0.226 0.039 0.038 0.020 0.116 0.036 0.235 0.048 0.142 0.014 0.252 0.034 0.331 0.059 0.038 0.012 0.095 0.030 0.171 0.054 0.246 0.076 0.43 0.138 0.553 0.185 0.633 0.242 1.176 0.561 1.63 0.958 0.539 0.471 0.952 0.941 1.239 1.412 0.181 0.297 0.321 0.562 0.421 0.793 0.107 0.252 0.196 0.51 0.264 0.775 0.012 0.047 0.027 0.114 0.043 0.202 0.019 0.103 0.036 0.175 0.051 0.214 0.026 0.067 0.045 0.136 0.057 0.207 0.062 0.377 0.078 0.822 0.049 1.333-0.016 0.247-0.052 0.489-0.109 0.728-0.021 0.092-0.056 0.227-0.105 0.406-0.020 0.074-0.035 0.13-0.045 0.167-0.069 0.259-0.163 0.505-0.28 0.74-0.115 0.229-0.252 0.446-0.412 0.651-0.073 0.094-0.184 0.232-0.335 0.415-0.149 0.18-0.258 0.316-0.329 0.407-0.244 0.315-0.441 0.656-0.59 1.024l-0.005 0.012c-0.122 0.302-0.201 0.527-0.235 0.674-0.012 0.052-0.033 0.126-0.062 0.223-0.054 0.178-0.079 0.306-0.077 0.383 0 0.007 0 0.013-0 0.020-0.003 0.087-0.024 0.169-0.062 0.246-0.008 0.023-0.015 0.070-0.020 0.142l-0.001 0.010c-0.015 0.221-0.067 0.415-0.156 0.582-0.072 0.134-0.164 0.237-0.275 0.31-0.136 0.089-0.301 0.132-0.496 0.13-0.155-0.001-0.388-0.002-0.699-0-0.496 0.002-0.869-0.001-1.118-0.008-0.092-0.003-0.232-0.002-0.42 0.003-0.069 0.002-0.121 0.003-0.156 0.003-0.004 0-0.008 0-0.015 0-0.11 0.002-0.206-0.008-0.287-0.030-0.090 0.023-0.196 0.034-0.318 0.031-0.025-0.001-0.043-0.001-0.054-0.001l-0.899-0.001-0.898 0.003c-0.229 0-0.405-0.093-0.529-0.279-0.112-0.17-0.195-0.416-0.247-0.737-0.005-0.032-0.012-0.078-0.020-0.139-0.022-0.166-0.047-0.281-0.076-0.346-0.031-0.069-0.052-0.161-0.064-0.277-0.005-0.045-0.009-0.073-0.013-0.085-0.107-0.364-0.204-0.652-0.29-0.866-0.189-0.466-0.494-0.94-0.915-1.422-0.431-0.493-0.722-0.943-0.873-1.349-0.022-0.059-0.044-0.118-0.065-0.178-0.086-0.245-0.157-0.494-0.215-0.748-0.024-0.111-0.053-0.274-0.086-0.487-0.014-0.091-0.025-0.159-0.032-0.203-0.061-0.364-0.061-0.77-0.002-1.216 0.048-0.363 0.112-0.683 0.192-0.96 0.095-0.327 0.203-0.613 0.325-0.856 0.229-0.463 0.467-0.851 0.713-1.165 0.040-0.052 0.082-0.102 0.124-0.153 0.384-0.456 0.838-0.853 1.361-1.191 0.083-0.055 0.168-0.107 0.254-0.157 0.184-0.105 0.374-0.199 0.571-0.28 0.006-0.003 0.013-0.005 0.021-0.009 0.381-0.153 0.677-0.251 0.888-0.293 0.045-0.009 0.113-0.023 0.204-0.043 0.419-0.092 0.746-0.128 0.981-0.109 0.032 0.003 0.088 0.001 0.169-0.005 0.048-0.003 0.085-0.006 0.111-0.007 0.012-0 0.023-0 0.035 0z"></path>
         <path d="M8.853 20.388c-0.017 0.046-0.038 0.091-0.063 0.133s-0.053 0.082-0.084 0.12c-0.020 0.024-0.029 0.064-0.027 0.12 0.002 0.054 0.016 0.093 0.044 0.118 0.023 0.021 0.056 0.031 0.097 0.031h4.83c0.159-0.003 0.307 0.041 0.443 0.131 0.068 0.045 0.127 0.099 0.176 0.159s0.089 0.129 0.118 0.206c0.063 0.151 0.080 0.306 0.053 0.465-0.028 0.162-0.099 0.303-0.214 0.421-0.075 0.077-0.158 0.136-0.249 0.177-0.103 0.046-0.216 0.069-0.34 0.069l-4.393-0.003c-0.052 0-0.093 0.014-0.121 0.043s-0.043 0.069-0.043 0.121c0 0.038 0.009 0.069 0.028 0.091 0.027 0.032 0.072 0.047 0.136 0.047h3.776c0.275 0 0.495 0.105 0.662 0.315s0.218 0.449 0.154 0.716c-0.042 0.17-0.13 0.31-0.264 0.419s-0.289 0.167-0.462 0.174c-0.4 0.013-0.997 0.017-1.791 0.012-0.38-0.002-0.664-0.003-0.853-0.002-0.116 0-0.208 0.020-0.276 0.061-0.197 0.119-0.382 0.108-0.554-0.032-0.007-0.006-0.016-0.009-0.026-0.011-0.187-0.025-0.314-0.192-0.288-0.379s0.192-0.314 0.379-0.288c0.062 0.008 0.122 0.024 0.178 0.047 0.023 0.009 0.045 0.020 0.067 0.031 0.152-0.069 0.324-0.104 0.519-0.104 0.191-0.001 0.478 0 0.859 0.002 0.786 0.004 1.373 0 1.763-0.012 0.023-0.001 0.043-0.008 0.061-0.023s0.029-0.032 0.034-0.053c0.013-0.055 0.004-0.102-0.027-0.142s-0.076-0.060-0.133-0.060h-3.776c-0.142 0-0.271-0.028-0.386-0.084-0.074-0.036-0.142-0.084-0.205-0.143-0.075-0.071-0.133-0.151-0.174-0.238-0.049-0.104-0.073-0.22-0.073-0.346 0-0.14 0.028-0.266 0.083-0.379 0.039-0.079 0.091-0.152 0.157-0.218s0.139-0.118 0.218-0.157c0.113-0.055 0.24-0.083 0.38-0.083l4.393 0.003c0.043 0 0.079-0.014 0.106-0.042 0.041-0.042 0.047-0.099 0.017-0.17-0.008-0.021-0.022-0.038-0.041-0.051s-0.042-0.019-0.069-0.018h-4.83c-0.132 0-0.251-0.026-0.358-0.077-0.080-0.038-0.153-0.091-0.219-0.157-0.151-0.152-0.23-0.341-0.237-0.568-0.005-0.17 0.028-0.32 0.098-0.448 0.024-0.044 0.053-0.086 0.086-0.125 0.007-0.008 0.013-0.017 0.018-0.026s0.010-0.019 0.014-0.029c0.066-0.177 0.256-0.264 0.433-0.198s0.264 0.256 0.198 0.433z"></path>
         <path d="M11.918 15.294c-0.003-0.189-0.154-0.334-0.343-0.331s-0.334 0.154-0.331 0.343c0.001 0.050-0.008 0.134-0.026 0.251-0.026 0.17-0.037 0.303-0.032 0.401 0 0.002-0.001 0.012-0.002 0.030-0.003 0.034-0.004 0.061-0.004 0.083v4.136c0 0.189 0.148 0.337 0.337 0.337s0.337-0.148 0.337-0.337v-4.136c0-0.004 0.001-0.014 0.002-0.030 0.004-0.046 0.005-0.083 0.003-0.113-0.002-0.053 0.006-0.142 0.025-0.267 0.024-0.155 0.035-0.277 0.033-0.365z"></path>
         <path d="M11.885 15.486c0.073 0.026 0.145 0.037 0.217 0.034 0.078-0.003 0.156-0.024 0.233-0.063 0.016-0.008 0.058-0.018 0.124-0.029 0.113-0.019 0.202-0.041 0.267-0.068 0.012-0.005 0.031-0.013 0.057-0.023 0.187-0.075 0.327-0.148 0.419-0.222l0.001-0.001c0.16-0.125 0.258-0.256 0.296-0.394 0.046-0.168 0.043-0.316-0.008-0.445-0.044-0.11-0.122-0.205-0.236-0.287-0.058-0.042-0.118-0.073-0.183-0.093-0.152-0.049-0.322-0.039-0.512 0.029-0.131 0.048-0.254 0.108-0.368 0.182-0.104 0.067-0.202 0.144-0.292 0.233-0.115 0.111-0.198 0.204-0.249 0.279-0.059 0.088-0.101 0.18-0.125 0.275-0.012 0.010-0.023 0.020-0.034 0.031-0.016-0.004-0.032-0.007-0.048-0.011-0.191-0.038-0.391-0.031-0.6 0.022-0.087 0.022-0.16 0.060-0.217 0.114-0.038 0.036-0.070 0.079-0.095 0.129-0.014 0.029-0.026 0.058-0.034 0.089-0.021 0.077-0.021 0.16-0.002 0.249 0.037 0.165 0.056 0.376 0.056 0.633v4.059c0 0.189 0.148 0.337 0.337 0.337s0.337-0.148 0.337-0.337v-4.059c0-0.219-0.012-0.414-0.037-0.585 0.054-0.001 0.104 0.005 0.153 0.017 0.159 0.041 0.298 0.036 0.417-0.016 0.045-0.020 0.087-0.046 0.126-0.079zM12.463 14.739c0.038-0.030 0.077-0.057 0.118-0.082 0.066-0.040 0.136-0.074 0.21-0.101 0.018-0.006 0.034-0.011 0.048-0.014-0.012 0.010-0.029 0.024-0.051 0.041l-0.001 0.001c-0.043 0.034-0.128 0.076-0.254 0.127-0.027 0.011-0.048 0.019-0.062 0.025-0.002 0.001-0.005 0.002-0.008 0.003z"></path>
         <path d="M10.519 15.48c-0.094 0.030-0.186 0.040-0.276 0.029-0.075-0.009-0.147-0.031-0.219-0.068-0.004-0.001-0.008-0.001-0.011-0.002-0.304-0.048-0.555-0.14-0.753-0.275-0.197-0.135-0.32-0.29-0.369-0.466-0.008-0.027-0.013-0.054-0.017-0.082-0.019-0.132-0.007-0.25 0.038-0.355 0.047-0.11 0.13-0.204 0.249-0.282 0.043-0.029 0.088-0.052 0.136-0.069 0.152-0.056 0.326-0.054 0.52 0.006 0.201 0.062 0.407 0.18 0.617 0.353 0.237 0.196 0.385 0.407 0.444 0.635l0.166 0.129c0.149 0.116 0.175 0.324 0.059 0.473s-0.324 0.175-0.473 0.059l-0.11-0.086zM9.939 14.737c-0.116-0.088-0.223-0.147-0.321-0.177-0.023-0.007-0.042-0.012-0.059-0.014 0.017 0.016 0.044 0.038 0.082 0.064 0.078 0.053 0.178 0.096 0.298 0.128z"></path>
         <path d="M9.786 3.116c-0.004-0.189-0.155-0.334-0.343-0.33s-0.334 0.155-0.33 0.343c0.002 0.128 0.022 0.253 0.059 0.375 0.017 0.060 0.034 0.165 0.052 0.315 0.009 0.077 0.016 0.135 0.022 0.175-0.001-0.006-0.001-0.010-0.001-0.010 0.001 0.064 0.011 0.12 0.030 0.17 0.023 0.062 0.047 0.168 0.070 0.318 0.018 0.118 0.035 0.208 0.050 0.27 0.022 0.092 0.050 0.235 0.084 0.429 0.016 0.094 0.029 0.165 0.038 0.213 0.006 0.031 0.015 0.077 0.027 0.139 0.034 0.171 0.055 0.297 0.062 0.378 0.005 0.051 0.017 0.119 0.038 0.204 0.016 0.063 0.023 0.102 0.022 0.118-0.012 0.188 0.127 0.346 0.315 0.357s0.345-0.127 0.357-0.315c0.005-0.085-0.008-0.193-0.041-0.323-0.013-0.050-0.020-0.084-0.021-0.101-0.009-0.105-0.034-0.255-0.073-0.45-0.012-0.059-0.020-0.103-0.026-0.132-0.008-0.045-0.021-0.112-0.036-0.204-0.036-0.208-0.067-0.365-0.093-0.471-0.011-0.045-0.024-0.117-0.039-0.217-0.027-0.176-0.058-0.314-0.092-0.416-0.001-0.021-0.003-0.040-0.005-0.056-0.005-0.033-0.011-0.084-0.019-0.154-0.021-0.187-0.047-0.331-0.076-0.432-0.009-0.032-0.017-0.064-0.022-0.096s-0.008-0.065-0.009-0.098z"></path>
         <path d="M14.044 2.919c-0.063-0.178-0.253-0.267-0.431-0.204s-0.267 0.253-0.204 0.43c0.016 0.044 0.012 0.11-0.012 0.198-0.012 0.043-0.027 0.107-0.046 0.192-0.020 0.090-0.035 0.154-0.047 0.191-0.029 0.096-0.068 0.238-0.115 0.427-0.019 0.075-0.033 0.131-0.043 0.168-0.022 0.085-0.056 0.213-0.103 0.383-0.072 0.263-0.124 0.461-0.156 0.595-0.007 0.029-0.017 0.071-0.029 0.127-0.028 0.129-0.054 0.219-0.076 0.271-0.026 0.059-0.050 0.135-0.073 0.229-0.037 0.005-0.070 0.012-0.101 0.022-0.18 0.058-0.275 0.244-0.218 0.424s0.244 0.275 0.424 0.218l-0.006 0.002c0.008-0 0.025-0 0.052 0.001 0.068 0.002 0.123 0.001 0.166-0.004 0.078-0.010 0.141-0.036 0.188-0.079s0.081-0.103 0.099-0.179c0.008-0.033 0.017-0.081 0.029-0.144 0.020-0.107 0.038-0.179 0.054-0.215 0.042-0.094 0.082-0.228 0.12-0.403 0.011-0.050 0.019-0.086 0.025-0.109 0.031-0.128 0.082-0.321 0.152-0.578 0.047-0.173 0.082-0.303 0.105-0.39 0.010-0.039 0.025-0.097 0.044-0.174 0.045-0.178 0.080-0.309 0.106-0.395 0.017-0.055 0.037-0.136 0.061-0.244 0.016-0.073 0.028-0.126 0.037-0.158 0.061-0.224 0.060-0.425-0.003-0.602z"></path>
         <path d="M21.009 13.252c0.172-0.005 0.297-0.003 0.376 0.005 0.188 0.020 0.351-0.112 0.371-0.299s-0.112-0.351-0.299-0.371c-0.109-0.012-0.264-0.015-0.466-0.009-0.105 0.003-0.181 0.004-0.231 0.003-0.13-0.003-0.323-0.003-0.581-0.002-0.251 0.002-0.438 0.001-0.562-0.002-0.342-0.007-0.696-0.005-1.059 0.008-0.010 0-0.034-0.002-0.071-0.006-0.123-0.014-0.224-0.011-0.305 0.008-0.183 0.044-0.293 0.223-0.248 0.406s0.223 0.293 0.406 0.248c0.003-0.001 0.026 0.001 0.070 0.006 0.070 0.008 0.127 0.011 0.171 0.010 0.351-0.012 0.691-0.015 1.021-0.008 0.13 0.003 0.323 0.003 0.581 0.002 0.251-0.002 0.439-0.001 0.564 0.002 0.060 0.001 0.147 0 0.262-0.003z"></path>
         <path d="M3.413 13.254c0.166-0.020 0.398-0.020 0.697-0.002 0.188 0.012 0.346-0.127 0.357-0.315s-0.127-0.346-0.315-0.357c-0.34-0.021-0.613-0.020-0.82 0.005-0.054 0.006-0.146 0.004-0.277-0.008-0.134-0.012-0.238-0.016-0.312-0.013-0.384 0.015-0.751 0.015-1.103 0-0.108-0.005-0.264-0.001-0.468 0.012-0.085 0.005-0.148 0.009-0.189 0.010-0.188 0.008-0.331 0.162-0.323 0.35s0.162 0.331 0.35 0.323c0.046-0.002 0.114-0.006 0.203-0.011 0.181-0.011 0.314-0.015 0.398-0.011 0.37 0.016 0.756 0.016 1.158 0 0.046-0.002 0.121 0.002 0.227 0.011 0.178 0.016 0.316 0.017 0.416 0.005z"></path>
         <path d="M20.355 9.015l0 0-0.903 0.419-0.561 0.262-1.154 0.551c-0.17 0.081-0.368 0.011-0.449-0.159s-0.012-0.368 0.158-0.449l0-0 0.386-0.185 0.773-0.368 0.562-0.263 0.903-0.419c0.171-0.079 0.368-0.007 0.447 0.164s0.008 0.368-0.163 0.447l-0-0z"></path>
         <path d="M2.615 7.707c-0.053-0.004-0.106 0.002-0.16 0.018-0.181 0.054-0.28 0.239-0.226 0.419 0.040 0.134 0.152 0.223 0.28 0.238 0.027 0.021 0.052 0.037 0.075 0.050 0.17 0.090 0.423 0.231 0.759 0.424 0.192 0.11 0.336 0.192 0.433 0.246l0.351 0.198 0.751 0.421c0.040 0.022 0.093 0.044 0.158 0.065 0.016 0.005 0.027 0.009 0.032 0.011 0.177 0.065 0.367-0.024 0.432-0.201s-0.024-0.367-0.201-0.432c-0.014-0.005-0.034-0.012-0.059-0.020-0.022-0.007-0.033-0.010-0.032-0.010l-1.103-0.62c-0.095-0.053-0.237-0.134-0.427-0.242-0.333-0.191-0.588-0.333-0.764-0.427-0.002-0.001-0.003-0.003-0.005-0.005-0.095-0.082-0.193-0.126-0.294-0.134z"></path>
         <path d="M17.471 16.050c-0.166-0.090-0.367-0.030-0.457 0.136s-0.030 0.367 0.136 0.457c0.054 0.029 0.134 0.072 0.242 0.13 0.234 0.125 0.409 0.221 0.523 0.285 0.121 0.069 0.303 0.174 0.546 0.314 0.433 0.251 0.759 0.436 0.98 0.556 0.009 0.005 0.027 0.017 0.054 0.035 0.163 0.11 0.316 0.161 0.458 0.152 0.188-0.012 0.327-0.169 0.315-0.357-0.011-0.182-0.158-0.317-0.337-0.316-0.012-0.006-0.031-0.019-0.059-0.038-0.045-0.031-0.082-0.053-0.11-0.069-0.215-0.117-0.537-0.299-0.964-0.547-0.244-0.141-0.428-0.247-0.551-0.317-0.119-0.068-0.298-0.165-0.537-0.293-0.106-0.057-0.186-0.1-0.239-0.128z"></path>
         <path d="M5.234 16.652l0 0-1.901 1.072c-0.061 0.034-0.152 0.084-0.274 0.15-0.141 0.076-0.246 0.134-0.314 0.173-0.079 0.045-0.174 0.067-0.285 0.067-0.008 0-0.014 0-0.016 0l0.002-0c-0.188 0.020-0.351-0.111-0.371-0.299s0.111-0.351 0.299-0.371c0.021-0.002 0.046-0.004 0.076-0.004 0.071-0.040 0.168-0.093 0.29-0.159 0.118-0.063 0.205-0.111 0.262-0.143l1.901-1.072c0.164-0.093 0.366-0.036 0.459 0.128s0.037 0.366-0.128 0.459l-0-0z"></path>
         <path d="M5.398 4.507c-0.189-0.005-0.34 0.14-0.345 0.329-0.004 0.158 0.097 0.29 0.24 0.331 0.101 0.147 0.242 0.345 0.422 0.594 0.082 0.114 0.144 0.199 0.184 0.256 0.045 0.063 0.112 0.156 0.202 0.281 0.282 0.391 0.49 0.685 0.624 0.882 0.022 0.032 0.054 0.073 0.096 0.123 0.039 0.046 0.059 0.071 0.060 0.075 0.031 0.186 0.201 0.308 0.387 0.277s0.308-0.201 0.277-0.387c-0.021-0.126-0.091-0.259-0.21-0.4-0.027-0.032-0.044-0.054-0.052-0.065-0.139-0.204-0.351-0.503-0.636-0.899-0.090-0.124-0.157-0.218-0.201-0.28-0.041-0.058-0.103-0.144-0.186-0.258-0.208-0.287-0.361-0.504-0.46-0.649-0.039-0.057-0.085-0.103-0.139-0.137-0.073-0.046-0.16-0.070-0.26-0.072-0.002-0-0.003-0-0.004-0z"></path>
         <path d="M17.908 5c-0.056-0.18-0.242-0.278-0.422-0.222-0.171 0.053-0.268 0.224-0.229 0.395-0.011 0.015-0.029 0.037-0.055 0.067-0.009 0.011-0.016 0.019-0.021 0.025-0.090 0.106-0.224 0.264-0.404 0.475-0.221 0.257-0.385 0.451-0.495 0.582-0.102 0.122-0.253 0.306-0.454 0.551-0.164 0.201-0.288 0.351-0.371 0.451-0.049 0.057-0.084 0.123-0.106 0.197s-0.029 0.15-0.019 0.227c0.023 0.187 0.188 0.316 0.375 0.294 0.169-0.021 0.29-0.156 0.296-0.32 0.083-0.1 0.198-0.24 0.347-0.422 0.199-0.243 0.349-0.425 0.449-0.545 0.108-0.129 0.271-0.321 0.49-0.576 0.181-0.212 0.317-0.37 0.406-0.476 0.004-0.005 0.010-0.012 0.019-0.022 0.079-0.091 0.134-0.17 0.165-0.237 0.033-0.071 0.052-0.143 0.058-0.215 0.006-0.075-0.004-0.151-0.028-0.228zM15.977 7.753c-0 0-0.001 0.001-0.001 0.001s0.001-0.001 0.001-0.001z"></path>
         <path d="M10.286 24.263c-0.016-0.188-0.176-0.323-0.364-0.307s-0.323 0.176-0.307 0.364c0.009 0.112 0.035 0.217 0.078 0.314s0.102 0.187 0.178 0.27c0.115 0.125 0.197 0.244 0.247 0.358 0.098 0.224 0.232 0.396 0.403 0.516 0.086 0.061 0.182 0.109 0.286 0.144 0.224 0.074 0.437 0.093 0.641 0.056 0.159-0.029 0.311-0.091 0.457-0.188 0.126-0.083 0.241-0.204 0.344-0.363 0.074-0.113 0.117-0.23 0.13-0.35 0.005-0.051 0.005-0.102-0.001-0.154-0.021-0.188-0.184-0.319-0.372-0.298s-0.319 0.184-0.298 0.372c0.002 0.015-0.006 0.036-0.024 0.062-0.053 0.081-0.103 0.137-0.15 0.168-0.056 0.037-0.115 0.063-0.177 0.078-0.105 0.025-0.218 0.018-0.339-0.022-0.017-0.006-0.034-0.013-0.051-0.021-0.099-0.049-0.177-0.139-0.234-0.27-0.080-0.182-0.202-0.363-0.368-0.544-0.024-0.026-0.043-0.054-0.056-0.085s-0.022-0.064-0.025-0.099z"></path>
         <path d="M13.217 5.625c-0.181-0.053-0.365 0.048-0.417 0.229s0.048 0.365 0.229 0.417c0.068 0.020 0.155 0.029 0.261 0.026 0.025-0 0.042-0.001 0.051-0 0.188 0.007 0.342-0.135 0.35-0.323s-0.135-0.342-0.323-0.35c-0.023-0.001-0.053-0.001-0.092-0-0.037 0.001-0.057 0.001-0.059 0z"></path>
         <path d="M11.331 27.843c0 0.204 0.039 0.399 0.117 0.587s0.189 0.354 0.333 0.498c0.144 0.144 0.31 0.255 0.498 0.332 0.094 0.039 0.19 0.068 0.288 0.087s0.198 0.029 0.3 0.029l14.783-0.026c0.144-0 0.283-0.028 0.416-0.083s0.25-0.134 0.352-0.236c0.051-0.051 0.096-0.106 0.135-0.164s0.073-0.122 0.1-0.188c0.055-0.133 0.082-0.272 0.082-0.416l-0.003-2.001c-0.007-0.007-0.013-0.012-0.018-0.017-0.097-0.086-0.172-0.188-0.227-0.306-0.002-0.003-0.003-0.007-0.005-0.011-0.035-0.083-0.099-0.209-0.19-0.377-0.1-0.184-0.172-0.327-0.215-0.428l-0.013-0.030c-0.12-0.28-0.216-0.486-0.291-0.617-0.21-0.371-0.504-0.936-0.882-1.695-0.071-0.142-0.124-0.249-0.16-0.32-0.006-0.011-0.015-0.029-0.027-0.053-0.066-0.126-0.109-0.229-0.129-0.309-0.029-0.112-0.034-0.221-0.014-0.327-0.038-0.116-0.056-0.261-0.055-0.434 0-0.024 0-0.042 0-0.053l0.001-11.986c0-0.017-0.001-0.044-0.002-0.082-0.006-0.158 0.008-0.293 0.044-0.406-0.029-0.095-0.043-0.21-0.043-0.345 0-0.013 0-0.024 0-0.031 0-0.062-0-0.155-0.002-0.28-0.002-0.252-0.001-0.443 0.004-0.572 0.021-0.499 0.188-0.943 0.501-1.332 0.156-0.194 0.333-0.355 0.531-0.483 0.2-0.13 0.421-0.226 0.664-0.29 0.433-0.112 0.94-0.126 1.52-0.042 0.448 0.066 0.845 0.264 1.193 0.595 0.35 0.334 0.566 0.723 0.648 1.167 0.106 0.571 0.11 1.094 0.014 1.568 0.036 0.124 0.055 0.271 0.055 0.44v12.125c0 0.085-0.015 0.199-0.044 0.343-0.026 0.127-0.035 0.214-0.026 0.26 0.019 0.101-0.004 0.215-0.069 0.342-0.003 0.005-0.004 0.009-0.005 0.011-0.049 0.098-0.123 0.244-0.221 0.44-0.304 0.607-0.536 1.060-0.696 1.361-0.016 0.030-0.039 0.080-0.071 0.15-0.095 0.212-0.201 0.376-0.319 0.492-0.022 0.134-0.066 0.261-0.131 0.38-0.149 0.279-0.266 0.515-0.351 0.706-0.079 0.178-0.175 0.323-0.287 0.435-0.002 0.022-0.005 0.044-0.010 0.066l0.003 1.945c0 0.233-0.044 0.458-0.133 0.674s-0.216 0.406-0.381 0.571c-0.165 0.165-0.355 0.293-0.571 0.382s-0.44 0.134-0.673 0.134l-14.783 0.026c-0.293 0-0.575-0.055-0.846-0.167-0.135-0.056-0.263-0.124-0.383-0.203s-0.231-0.171-0.335-0.275c-0.207-0.207-0.367-0.446-0.479-0.716-0.056-0.135-0.098-0.274-0.126-0.414s-0.042-0.285-0.042-0.431v-2.212c0-0.189 0.148-0.337 0.337-0.337s0.337 0.148 0.337 0.337v2.212zM29.067 25.587c0.007-0.014 0.014-0.029 0.020-0.044 0.092-0.206 0.216-0.456 0.372-0.749 0.032-0.059 0.053-0.122 0.063-0.186-0.002-0.153 0.055-0.266 0.172-0.34 0.055-0.036 0.119-0.137 0.194-0.304 0.038-0.084 0.068-0.148 0.092-0.192 0.158-0.295 0.387-0.744 0.688-1.345 0.098-0.196 0.172-0.343 0.221-0.441 0.001-0.002 0.002-0.004 0.003-0.006-0.010-0.119 0.003-0.265 0.039-0.438 0.020-0.099 0.030-0.169 0.030-0.208v-12.125c0-0.11-0.010-0.196-0.030-0.257-0.031-0.082-0.040-0.167-0.024-0.255 0.001-0.005 0.002-0.011 0.003-0.016 0.089-0.4 0.087-0.852-0.006-1.357-0.056-0.301-0.206-0.569-0.45-0.802s-0.52-0.372-0.826-0.417c-0.49-0.072-0.908-0.063-1.253 0.027-0.34 0.089-0.62 0.27-0.84 0.544-0.11 0.137-0.195 0.283-0.253 0.44s-0.092 0.322-0.099 0.498c-0.004 0.117-0.006 0.297-0.003 0.538 0.001 0.128 0.002 0.224 0.002 0.288 0 0.007-0 0.018-0 0.032-0 0.078 0.002 0.123 0.009 0.134 0.080 0.143 0.080 0.281 0 0.413-0.011 0.018-0.014 0.076-0.011 0.172 0.002 0.048 0.003 0.084 0.003 0.11l-0.001 11.985c0 0.014-0 0.034-0 0.060-0.001 0.089 0.003 0.153 0.012 0.192 0.015 0.021 0.028 0.045 0.038 0.069 0.036 0.089 0.035 0.18-0.002 0.273-0.011 0.028 0.013 0.101 0.074 0.219 0.014 0.027 0.024 0.047 0.032 0.061 0.036 0.072 0.089 0.179 0.161 0.322 0.372 0.748 0.661 1.303 0.865 1.663 0.087 0.153 0.195 0.381 0.324 0.685l0.013 0.030c0.035 0.081 0.097 0.205 0.187 0.37 0.078 0.144 0.139 0.263 0.183 0.357zM26.587 8.908c0.002 0.005 0.005 0.010 0.007 0.014-0.003-0.005-0.005-0.010-0.007-0.014zM30.070 24.827c-0.005 0.003-0.010 0.007-0.015 0.010 0.005-0.003 0.010-0.007 0.015-0.010z"></path>
         <path d="M28.415 10.384c-0.157-0.104-0.363-0.062-0.467 0.096-0.075 0.113-0.074 0.251-0.009 0.358v8.758c0 0.006-0 0.016-0 0.030-0.004 0.252 0.081 0.431 0.256 0.538 0.161 0.098 0.365 0.048 0.463-0.113 0.083-0.136 0.060-0.302-0.045-0.41l0-0.004c0-0.018 0-0.032 0-0.042v-8.791c0-0.002 0-0.005 0-0.010 0.002-0.186-0.064-0.322-0.198-0.411z"></path>
         <path d="M30.187 19.794v-9.047c0-0.189-0.148-0.337-0.337-0.337s-0.337 0.148-0.337 0.337v9.047c0 0.189 0.148 0.337 0.337 0.337s0.337-0.148 0.337-0.337z"></path>
         <path d="M27.689 8.457c-0.346-0.006-0.607-0.004-0.784 0.006-0.188 0.011-0.328 0.167-0.317 0.356s0.167 0.328 0.356 0.317c0.16-0.009 0.405-0.011 0.734-0.005 0.151 0.003 0.265 0.004 0.342 0.004 0.176 0 0.439-0.001 0.788-0.005 0.503-0.005 0.88-0.006 1.13-0.001 0.159 0.003 0.396 0.002 0.711-0.001 0.246-0.003 0.43-0.004 0.552-0.003 0.189 0.001 0.338-0.146 0.339-0.335s-0.146-0.338-0.335-0.339c-0.126-0.001-0.314 0-0.564 0.003-0.308 0.003-0.539 0.004-0.691 0.001-0.256-0.004-0.639-0.004-1.149 0.001-0.347 0.004-0.607 0.005-0.78 0.005-0.073-0-0.184-0.002-0.332-0.004z"></path>
         <path d="M27.019 21.397c-0.044 0.004-0.076 0.007-0.097 0.008-0.188 0.014-0.325 0.172-0.312 0.36s0.172 0.325 0.36 0.312c0.025-0.002 0.062-0.005 0.11-0.009 0.089-0.008 0.154-0.012 0.193-0.012l3.568-0.001c0.128 0 0.217 0.007 0.268 0.022 0.181 0.052 0.365-0.049 0.417-0.23s-0.049-0.365-0.23-0.417c-0.112-0.032-0.263-0.048-0.455-0.048l-3.568 0.001c-0.060 0-0.144 0.005-0.253 0.015z"></path>
         <path d="M29.548 24.818c0.044-0 0.075 0.007 0.092 0.021 0.148 0.117 0.356 0.093 0.473-0.055s0.093-0.356-0.055-0.473c-0.036-0.028-0.073-0.053-0.113-0.074-0.117-0.062-0.251-0.093-0.401-0.093l-0.485 0.001-0.492-0.001c-0.17-0.002-0.327 0.043-0.472 0.135-0.159 0.101-0.205 0.305-0.105 0.465s0.305 0.205 0.465 0.105c0.010-0.007 0.021-0.012 0.032-0.016 0.024-0.010 0.050-0.014 0.078-0.014l0.495 0.001 0.486-0.001z"></path>
      </symbol>
      <symbol id="icon-footprint" viewBox="0 0 32 32">
         <path d="M25.446 25.791c-0.262 0.227-0.429 0.474-0.502 0.741-0.049 0.178 0.053 0.357 0.231 0.405s0.357-0.053 0.405-0.231c0.038-0.138 0.137-0.277 0.298-0.417 1.243-1.077 2.294-2.39 3.152-3.938 0.8-1.444 1.329-2.967 1.589-4.57 0.187-1.158 0.246-2.282 0.176-3.375-0.108-1.684-0.471-3.279-1.088-4.785-0.664-1.618-1.604-3.090-2.821-4.416-0.931-1.013-1.959-1.865-3.086-2.556-0.95-0.583-1.94-1.052-2.969-1.407-0.709-0.245-1.436-0.436-2.183-0.573-0.636-0.116-1.275-0.19-1.916-0.222-0.634-0.031-1.27-0.021-1.908 0.030-1.227 0.097-2.406 0.338-3.535 0.722-0.725 0.247-1.43 0.553-2.115 0.918-0.74 0.394-1.439 0.842-2.097 1.343-0.853 0.65-1.638 1.39-2.354 2.219-0.753 0.872-1.414 1.865-1.985 2.979-0.576 1.126-1.003 2.386-1.279 3.781-0.163 0.826-0.255 1.716-0.276 2.671-0.009 0.454 0.004 0.907 0.041 1.358 0.036 0.442 0.094 0.881 0.174 1.319 0.293 1.603 0.801 3.074 1.522 4.412 0.526 0.975 1.152 1.881 1.879 2.717 0.241 0.278 0.492 0.547 0.753 0.806 0.757 0.752 1.595 1.423 2.514 2.012 1.143 0.732 2.339 1.29 3.589 1.671 0.492 0.15 0.992 0.273 1.5 0.37 1.234 0.233 2.253 0.324 3.058 0.274 0.184-0.012 0.32-0.166 0.309-0.35s-0.166-0.32-0.35-0.309c-0.75 0.047-1.715-0.041-2.894-0.264-0.467-0.088-0.926-0.2-1.378-0.337-1.211-0.365-2.37-0.902-3.478-1.612-0.887-0.568-1.695-1.216-2.423-1.943-0.243-0.242-0.476-0.493-0.701-0.753-0.695-0.8-1.293-1.665-1.796-2.598-0.689-1.277-1.173-2.683-1.454-4.218-0.078-0.425-0.134-0.852-0.168-1.281-0.033-0.42-0.046-0.841-0.037-1.264 0.020-0.917 0.107-1.769 0.263-2.557 0.264-1.334 0.671-2.537 1.219-3.608 0.547-1.067 1.179-2.017 1.898-2.849 0.689-0.799 1.445-1.51 2.266-2.135 0.627-0.476 1.291-0.902 1.995-1.277 0.641-0.342 1.301-0.629 1.979-0.862 1.090-0.374 2.228-0.609 3.414-0.703 0.616-0.050 1.23-0.059 1.842-0.028 0.605 0.031 1.208 0.101 1.809 0.211 0.705 0.13 1.393 0.31 2.064 0.541 0.992 0.341 1.946 0.792 2.862 1.354 1.074 0.658 2.056 1.471 2.945 2.44 0.863 0.94 1.58 1.956 2.152 3.049 0.199 0.381 0.381 0.771 0.545 1.171 0.59 1.44 0.936 2.965 1.040 4.577 0.067 1.043 0.011 2.118-0.169 3.227-0.247 1.527-0.752 2.979-1.515 4.356-0.82 1.48-1.822 2.733-3.007 3.76z"></path>
         <path d="M19.145 9.725c-0.007 0.024-0.016 0.048-0.026 0.072-0.075 0.169-0.001 0.36 0.168 0.435s0.36 0.001 0.435-0.168c0.156-0.354 0.142-0.734-0.042-1.139-0.314-0.69-0.634-1.282-0.961-1.778-0.014-0.021-0.035-0.054-0.064-0.097-0.405-0.614-0.715-1.072-0.931-1.372-0.181-0.251-0.454-0.575-0.82-0.974-0.051-0.056-0.107-0.105-0.168-0.147-0.187-0.13-0.418-0.196-0.694-0.198-0.369-0.002-0.663 0.112-0.883 0.344-0.754 0.797-1.308 1.51-1.662 2.142-0.069 0.123-0.183 0.305-0.343 0.547-0.339 0.513-0.558 0.925-0.659 1.238-0.013 0.041-0.034 0.104-0.063 0.188-0.070 0.204-0.119 0.362-0.144 0.471-0.046 0.197-0.063 0.382-0.052 0.556 0.001 0.008-0.016 0.041-0.050 0.101-0.085 0.148-0.132 0.279-0.141 0.394-0.055 0.698 0.033 1.338 0.266 1.921 0.22 0.551 0.569 1.051 1.048 1.499 0.373 0.349 0.78 0.61 1.222 0.783 0.346 0.135 0.713 0.216 1.101 0.244v10.528c0 0.185 0.145 0.33 0.33 0.33s0.33-0.145 0.33-0.33v-10.851c-0.002-0.22-0.113-0.329-0.333-0.327-0.847 0.007-1.58-0.279-2.198-0.858-0.402-0.377-0.696-0.797-0.881-1.26-0.197-0.493-0.273-1.034-0.226-1.624 0.001-0.017 0.020-0.057 0.056-0.12 0.1-0.175 0.146-0.333 0.136-0.473-0.011-0.167 0.043-0.423 0.161-0.768 0.030-0.088 0.053-0.155 0.067-0.2 0.083-0.256 0.277-0.615 0.582-1.077 0.169-0.255 0.291-0.451 0.368-0.588 0.328-0.584 0.85-1.254 1.566-2.011 0.005-0.005 0.009-0.009 0.014-0.014 0.088-0.084 0.216-0.125 0.385-0.124 0.174 0.001 0.301 0.045 0.38 0.132 0.349 0.38 0.606 0.684 0.771 0.914 0.211 0.293 0.516 0.742 0.916 1.349 0.028 0.043 0.049 0.075 0.064 0.098 0.308 0.467 0.612 1.030 0.911 1.688 0.089 0.195 0.111 0.371 0.065 0.527z"></path>
         <path d="M20.362 14.63c-0.090-0.161-0.288-0.217-0.449-0.126s-0.217 0.288-0.126 0.449c0.081 0.143 0.116 0.314 0.105 0.511-0.022 0.409-0.010 1.017 0.035 1.823 0.027 0.491 0.043 0.858 0.046 1.101 0.005 0.366 0.13 0.669 0.377 0.909 0.052 0.050 0.107 0.096 0.165 0.137 0.202 0.142 0.443 0.227 0.724 0.256 0.655 0.067 1.599 0.090 2.832 0.070 0.128-0.003 0.252 0.010 0.372 0.038 0.106 0.025 0.209 0.063 0.309 0.113 0.165 0.083 0.36 0.018 0.443-0.147s0.018-0.36-0.147-0.443c-0.163-0.081-0.33-0.14-0.502-0.177-0.158-0.034-0.32-0.048-0.486-0.044-1.207 0.020-2.125-0.003-2.754-0.067-0.21-0.021-0.374-0.091-0.495-0.208-0.034-0.034-0.064-0.070-0.088-0.11-0.058-0.095-0.088-0.207-0.090-0.336-0.003-0.253-0.019-0.629-0.047-1.129-0.044-0.782-0.055-1.366-0.034-1.752 0.014-0.271-0.028-0.517-0.125-0.739-0.019-0.044-0.041-0.087-0.064-0.129z"></path>
         <path d="M12.234 14.953c-0.080 0.143-0.116 0.313-0.105 0.511 0.024 0.44 0.012 1.093-0.036 1.959-0.024 0.431-0.038 0.754-0.044 0.969-0.006 0.223-0.056 0.423-0.15 0.6-0.059 0.11-0.135 0.212-0.229 0.303-0.229 0.225-0.525 0.357-0.886 0.395-0.589 0.062-1.468 0.087-2.638 0.073-0.054-0.001-0.095-0.001-0.122-0.002-0.268-0.005-0.524 0.048-0.768 0.157-0.169 0.076-0.36 0.003-0.436-0.166s-0.003-0.36 0.166-0.436c0.173-0.078 0.35-0.134 0.531-0.17 0.168-0.033 0.34-0.048 0.515-0.045 0.028 0 0.069 0.001 0.122 0.001 1.143 0.014 1.997-0.009 2.56-0.069 0.204-0.022 0.366-0.089 0.485-0.201 0.003-0.003 0.006-0.006 0.009-0.009 0.116-0.114 0.177-0.264 0.182-0.45 0.006-0.221 0.021-0.55 0.045-0.987 0.046-0.843 0.058-1.472 0.036-1.889-0.017-0.325 0.046-0.614 0.189-0.868 0.091-0.161 0.288-0.216 0.449-0.126s0.216 0.288 0.126 0.449z"></path>
         <path d="M20.687 20.967c0.431 0.154 0.88 0.215 1.347 0.183 0.465-0.032 0.905-0.153 1.317-0.364 0.427-0.218 0.788-0.513 1.084-0.885 0.018-0.023 0.046-0.058 0.083-0.104 0.189-0.237 0.325-0.418 0.407-0.543 0.131-0.2 0.226-0.39 0.283-0.569 0.034-0.106 0.092-0.259 0.175-0.459 0.153-0.367 0.229-0.64 0.227-0.819-0.001-0.164 0.047-0.369 0.145-0.614 0.051-0.127 0.080-0.218 0.089-0.274l0.001-0.005 0.003-0.017c0.129-0.829 0.205-1.451 0.23-1.868 0.012-0.203 0.012-0.353 0.001-0.45-0.015-0.129-0.052-0.246-0.113-0.351-0.007-0.012-0.015-0.024-0.023-0.035-0.077-0.105-0.209-0.17-0.396-0.194s-0.476-0.013-0.872 0.034c-0.211 0.025-0.371 0.041-0.48 0.048-0.183 0.011-0.363 0.034-0.541 0.069-0.168 0.033-0.334 0.077-0.497 0.131-0.205 0.070-0.514 0.145-0.927 0.225-0.56 0.109-0.962 0.228-1.206 0.357-0.038 0.020-0.093 0.048-0.167 0.084-0.246 0.121-0.4 0.229-0.463 0.324-0.065 0.103-0.156 0.177-0.273 0.224-0.007 0.003-0.014 0.005-0.021 0.007-0.195 0.062-0.371 0.151-0.529 0.265-0.184 0.134-0.343 0.303-0.475 0.507-0.191 0.294-0.355 0.712-0.492 1.256-0.141 0.559-0.149 1.084-0.022 1.574 0.138 0.534 0.434 1.027 0.89 1.479 0.007 0.007 0.013 0.014 0.019 0.021 0.006 0.006 0.013 0.011 0.019 0.018 0.335 0.338 0.728 0.587 1.177 0.748zM19.007 20.649c-0.455-0.452-0.779-0.95-0.97-1.495-0.025-0.071-0.048-0.143-0.068-0.216-0.033-0.117-0.060-0.236-0.081-0.355-0.090-0.519-0.065-1.058 0.076-1.617 0.155-0.614 0.348-1.098 0.578-1.453 0.175-0.27 0.385-0.495 0.627-0.673 0.205-0.151 0.434-0.269 0.686-0.354 0.087-0.126 0.201-0.236 0.343-0.332 0.080-0.054 0.202-0.121 0.366-0.202 0.068-0.033 0.118-0.058 0.15-0.075 0.203-0.107 0.438-0.197 0.703-0.27 0.153-0.042 0.381-0.092 0.685-0.151 0.384-0.075 0.665-0.142 0.844-0.203 0.201-0.067 0.405-0.12 0.611-0.159 0.196-0.037 0.395-0.062 0.596-0.073 0.096-0.006 0.243-0.021 0.441-0.044 0.45-0.054 0.795-0.065 1.036-0.034 0.422 0.055 0.724 0.24 0.905 0.554 0.107 0.185 0.172 0.387 0.197 0.606 0.015 0.135 0.016 0.323 0.002 0.563-0.026 0.438-0.105 1.082-0.236 1.931l-0.001 0.006-0.001 0.006-0.001 0.006-0.001 0.006c-0.016 0.106-0.059 0.245-0.128 0.418-0.066 0.165-0.098 0.286-0.098 0.363 0.002 0.183-0.029 0.377-0.091 0.584-0.035 0.115-0.097 0.28-0.186 0.495-0.076 0.182-0.127 0.317-0.155 0.405-0.075 0.237-0.196 0.481-0.36 0.732-0.094 0.142-0.241 0.34-0.443 0.592-0.036 0.046-0.064 0.080-0.081 0.102-0.163 0.205-0.342 0.391-0.538 0.557-0.231 0.196-0.486 0.365-0.763 0.506-0.228 0.116-0.463 0.21-0.705 0.281-0.28 0.082-0.569 0.133-0.867 0.154-0.343 0.024-0.678 0.005-1.005-0.055-0.206-0.038-0.409-0.093-0.609-0.164-0.275-0.098-0.533-0.224-0.772-0.378-0.234-0.149-0.451-0.325-0.651-0.527-0.006-0.006-0.012-0.013-0.018-0.019-0.006-0.005-0.011-0.010-0.017-0.016zM19.844 14.504c-0 0.001-0.001 0.001-0.001 0.002 0-0.001 0.001-0.001 0.001-0.002z"></path>
         <path d="M12.897 19.787c-0.102 0.139-0.217 0.268-0.344 0.389-0.008 0.008-0.016 0.016-0.023 0.024-0.008 0.007-0.015 0.014-0.023 0.022-0.164 0.169-0.343 0.316-0.537 0.44-0.347 0.222-0.741 0.37-1.183 0.444-0.69 0.116-1.345 0.028-1.965-0.266-0.396-0.187-0.686-0.357-0.872-0.509-0.252-0.206-0.422-0.453-0.508-0.74-0.045-0.148-0.145-0.268-0.301-0.362-0.050-0.030-0.111-0.112-0.184-0.248-0.026-0.048-0.046-0.085-0.061-0.111-0.106-0.183-0.199-0.401-0.277-0.653-0.049-0.157-0.111-0.401-0.186-0.731-0.093-0.408-0.177-0.721-0.252-0.94-0-0.033-0.004-0.065-0.011-0.095-0.068-0.27-0.126-0.689-0.176-1.258-0.036-0.411-0.071-0.721-0.104-0.929l-0.326 0.053 0.327-0.044c-0.008-0.057-0.001-0.113 0.019-0.167 0.049-0.134 0.12-0.241 0.214-0.323 0.134-0.116 0.314-0.18 0.539-0.19 0.251-0.011 0.634 0.020 1.148 0.093 0.24 0.034 0.421 0.058 0.543 0.071 0.022 0.002 0.055 0.006 0.1 0.010 0.189 0.018 0.325 0.039 0.409 0.062 0.118 0.032 0.213 0.081 0.284 0.148 0.005 0.005 0.010 0.009 0.016 0.014 0.096 0.079 0.209 0.117 0.338 0.111 0.306-0.020 0.632 0.031 0.976 0.153 0.218 0.077 0.542 0.227 0.973 0.45 0.033 0.017 0.059 0.031 0.079 0.041 0.007 0.009 0.019 0.027 0.036 0.054 0.115 0.184 0.252 0.288 0.41 0.31 0.027 0.004 0.054 0.009 0.081 0.017 0.098 0.026 0.19 0.074 0.276 0.144 0.078 0.063 0.191 0.184 0.34 0.364 0.019 0.023 0.034 0.041 0.044 0.053 0.126 0.151 0.237 0.309 0.333 0.477 0.113 0.196 0.207 0.404 0.28 0.623 0.132 0.394 0.192 0.798 0.178 1.212s-0.1 0.806-0.259 1.177c-0.094 0.22-0.211 0.423-0.349 0.611zM12.982 20.681c-0.214 0.221-0.448 0.409-0.701 0.566-0.409 0.253-0.87 0.423-1.382 0.509-0.448 0.076-0.885 0.079-1.31 0.009-0.357-0.058-0.706-0.168-1.047-0.329-0.445-0.21-0.78-0.408-1.008-0.595-0.239-0.195-0.425-0.419-0.56-0.67-0.063-0.116-0.114-0.239-0.155-0.367-0.004-0.002-0.009-0.005-0.015-0.009-0.154-0.092-0.296-0.259-0.426-0.502-0.023-0.042-0.040-0.073-0.051-0.092-0.131-0.226-0.243-0.489-0.336-0.788-0.054-0.173-0.12-0.433-0.2-0.78-0.095-0.417-0.178-0.723-0.249-0.918-0.016-0.045-0.023-0.093-0.022-0.147-0.072-0.303-0.132-0.743-0.182-1.319-0.034-0.395-0.067-0.688-0.098-0.88-0-0.003-0.001-0.006-0.001-0.009-0.012-0.088-0.013-0.174-0.002-0.259 0.009-0.075 0.028-0.149 0.055-0.223 0.098-0.27 0.244-0.483 0.435-0.637 0.234-0.189 0.536-0.291 0.908-0.308 0.292-0.013 0.716 0.020 1.271 0.099 0.232 0.033 0.405 0.056 0.518 0.068 0.020 0.002 0.052 0.005 0.094 0.009 0.225 0.022 0.398 0.049 0.517 0.081 0.193 0.052 0.359 0.135 0.498 0.247 0.373-0.013 0.761 0.051 1.163 0.193 0.247 0.087 0.599 0.249 1.056 0.486 0.041 0.021 0.072 0.038 0.093 0.048 0.099 0.051 0.191 0.145 0.277 0.282 0.004 0.007 0.008 0.013 0.011 0.018 0.223 0.043 0.427 0.14 0.612 0.29 0.112 0.091 0.256 0.242 0.432 0.455 0.019 0.023 0.033 0.040 0.042 0.051 0.326 0.391 0.57 0.828 0.732 1.312 0.084 0.251 0.144 0.505 0.178 0.762 0.030 0.225 0.041 0.453 0.034 0.683-0.011 0.334-0.062 0.656-0.152 0.967-0.044 0.152-0.097 0.301-0.16 0.448-0.112 0.261-0.25 0.504-0.413 0.727-0.128 0.175-0.271 0.338-0.43 0.49-0.005 0.004-0.009 0.008-0.014 0.012s-0.009 0.010-0.013 0.015z"></path>
         <path d="M16.34 4.741c0-0.185-0.145-0.33-0.33-0.33s-0.33 0.145-0.33 0.33v9.726c0.002 0.22 0.113 0.329 0.333 0.327 1.446-0.012 2.586-0.669 3.422-1.972 0.26-0.406 0.442-0.954 0.547-1.644 0.045-0.297 0.051-0.546 0.018-0.747-0.045-0.276-0.164-0.52-0.357-0.73-0.088-0.096-0.195-0.128-0.321-0.097-0.242 0.059-0.502 0.221-0.78 0.485-0.051 0.049-0.128 0.122-0.231 0.22-0.743 0.706-1.296 1.24-1.659 1.603-0.101 0.101-0.204 0.179-0.311 0.236v-7.407zM16.34 12.857c0.281-0.079 0.54-0.238 0.779-0.478 0.359-0.359 0.907-0.889 1.646-1.591 0.103-0.098 0.18-0.171 0.232-0.22 0.106-0.101 0.202-0.179 0.288-0.234 0.031 0.064 0.052 0.132 0.064 0.203 0.022 0.133 0.015 0.313-0.019 0.542-0.090 0.598-0.24 1.060-0.45 1.387-0.417 0.65-0.921 1.11-1.512 1.381-0.318 0.145-0.66 0.236-1.028 0.271v-1.261z"></path>
         <path d="M22.93 13.717c-0.053-0.177-0.233-0.275-0.41-0.222s-0.275 0.233-0.222 0.411c0.053 0.179 0.073 0.467 0.060 0.864-0.007 0.223-0.008 0.393-0.003 0.509 0.015 0.307 0.038 0.542 0.071 0.706 0.056 0.278 0.157 0.525 0.302 0.741 0.12 0.178 0.264 0.314 0.432 0.409 0.175 0.099 0.377 0.152 0.604 0.16 0.353 0.011 0.88 0.012 1.582 0.003l0.029-0c0.168-0.002 0.312 0.017 0.434 0.058 0.175 0.059 0.359-0.032 0.418-0.207s-0.032-0.359-0.207-0.418c-0.193-0.065-0.411-0.096-0.654-0.092l-0.029 0c-0.692 0.010-1.209 0.009-1.551-0.002-0.22-0.007-0.39-0.1-0.511-0.279-0.096-0.142-0.163-0.309-0.202-0.501-0.026-0.131-0.046-0.334-0.059-0.607-0.005-0.098-0.004-0.25 0.003-0.456 0.015-0.469-0.014-0.827-0.088-1.075z"></path>
         <path d="M9.713 13.938c-0.031 0.074-0.047 0.209-0.048 0.405-0 0.040-0.001 0.070-0.001 0.091-0.002 0.091-0.001 0.23 0.001 0.416 0.005 0.495-0.012 0.867-0.053 1.117-0.061 0.371-0.197 0.673-0.409 0.907-0.010 0.011-0.019 0.021-0.029 0.031-0.259 0.269-0.582 0.401-0.968 0.395-0.175-0.003-0.438-0.004-0.79-0.002-0.341 0.001-0.598 0-0.769-0.002-0.168-0.002-0.312 0.017-0.434 0.058-0.175 0.059-0.359-0.032-0.418-0.207s0.032-0.359 0.207-0.418c0.193-0.065 0.411-0.096 0.654-0.092 0.168 0.002 0.42 0.003 0.758 0.002 0.356-0.001 0.624-0 0.803 0.002 0.117 0.002 0.221-0.020 0.313-0.067 0.062-0.031 0.118-0.073 0.168-0.126 0.134-0.139 0.221-0.334 0.262-0.586 0.034-0.213 0.049-0.547 0.044-1.004-0.002-0.192-0.002-0.337-0.001-0.434 0-0.018 0.001-0.046 0.001-0.084 0.002-0.282 0.034-0.5 0.098-0.654 0.071-0.171 0.261-0.249 0.431-0.178s0.249 0.261 0.178 0.431z"></path>
         <path d="M12.703 9.57c-0.181-0.037-0.352 0.075-0.39 0.256s0.075 0.352 0.256 0.39c0.084 0.017 0.2 0.097 0.348 0.239l2.175 2.072c0.186 0.178 0.385 0.288 0.597 0.33 0.104 0.020 0.211 0.025 0.321 0.012 0.184-0.020 0.312-0.18 0.292-0.364s-0.18-0.312-0.364-0.292c-0.131 0.014-0.262-0.040-0.39-0.164l-0.529-0.504-1.644-1.566c-0.239-0.23-0.463-0.367-0.672-0.41z"></path>
         <path d="M11.351 19.451h-0c-0.131-0.131-0.131-0.336 0-0.467s0.336-0.131 0.467 0v0 0c0.229 0.229 0.574 0.572 1.034 1.029 1.16 1.151 2.024 2.022 2.59 2.613 0.162 0.169 0.352 0.254 0.569 0.254 0.081 0 0.158-0.012 0.231-0.035 0.123-0.040 0.236-0.112 0.338-0.218 0.566-0.59 1.429-1.461 2.589-2.612 0.461-0.457 0.806-0.8 1.035-1.030 0.131-0.131 0.336-0.131 0.467 0s0.131 0.336 0 0.467c-0.23 0.23-0.575 0.574-1.037 1.031-1.156 1.147-2.015 2.014-2.578 2.6-0.167 0.174-0.352 0.298-0.555 0.372-0.153 0.056-0.317 0.084-0.49 0.084s-0.337-0.028-0.49-0.084c-0.203-0.075-0.388-0.199-0.554-0.372-0.563-0.587-1.422-1.454-2.579-2.601-0.461-0.457-0.806-0.801-1.036-1.031h0z"></path>
         <path d="M25.030 23.967l0.009 0.809 0.007 1.078c0 0.152 0.030 0.29 0.090 0.412 0.003 0.006 0.006 0.012 0.009 0.017 0.007 0.003 0.018 0.007 0.034 0.014 0.029 0.012 0.052 0.021 0.070 0.029 0.196 0.088 0.424 0.144 0.683 0.168 0.165 0.015 0.419 0.019 0.764 0.012 0.392-0.008 0.689-0.002 0.889 0.020 0.184 0.020 0.313 0.179 0.293 0.363s-0.179 0.313-0.363 0.293c-0.173-0.018-0.441-0.024-0.805-0.016-0.37 0.008-0.649 0.003-0.839-0.014-0.331-0.031-0.628-0.105-0.891-0.223-0.010-0.004-0.025-0.011-0.046-0.019-0.141-0.057-0.249-0.137-0.324-0.242-0.017-0.023-0.032-0.048-0.045-0.073-0.117-0.224-0.176-0.47-0.176-0.736l-0.007-1.076-0.009-0.81h0l-0-0c-0.002-0.185 0.142-0.331 0.327-0.333s0.331 0.142 0.333 0.326v0z"></path>
         <path d="M26.219 13.938l-2.794 2.757c-0.131 0.13-0.337 0.128-0.467-0.003s-0.128-0.337 0.003-0.467l2.794-2.757c0.131-0.13 0.337-0.128 0.466 0.003s0.128 0.337-0.003 0.467z"></path>
         <path d="M6.303 13.47c-0.131-0.131-0.336-0.131-0.467 0s-0.131 0.336 0 0.467l2.757 2.757c0.131 0.131 0.336 0.131 0.467 0s0.131-0.336 0-0.467l-2.757-2.757z"></path>
         <path d="M18.537 7.637c-0.209 0.125-0.489 0.369-0.84 0.734-0.24 0.249-0.428 0.431-0.564 0.546-0.009 0.008-0.023 0.019-0.041 0.034-0.178 0.151-0.32 0.258-0.426 0.32-0.195 0.115-0.396 0.178-0.603 0.19-0.184 0.010-0.337-0.127-0.347-0.312s0.127-0.337 0.311-0.347c0.1-0.005 0.201-0.038 0.303-0.099 0.073-0.043 0.185-0.129 0.335-0.256 0.018-0.016 0.032-0.027 0.042-0.035 0.119-0.1 0.29-0.266 0.514-0.499 0.392-0.407 0.718-0.688 0.977-0.843 0.159-0.095 0.358-0.045 0.452 0.114s0.045 0.358-0.114 0.452z"></path>
         <path d="M13.922 7.126c-0.148-0.111-0.351-0.081-0.462 0.067s-0.081 0.351 0.067 0.462c0.251 0.188 0.605 0.504 1.063 0.949 0.189 0.184 0.332 0.321 0.429 0.412 0.257 0.24 0.529 0.384 0.818 0.432 0.037 0.006 0.074 0.011 0.111 0.014 0.184 0.015 0.34-0.118 0.355-0.302s-0.118-0.34-0.302-0.355c-0.177-0.014-0.354-0.104-0.532-0.27-0.094-0.088-0.234-0.222-0.419-0.402-0.478-0.465-0.854-0.8-1.128-1.005z"></path>
         <path d="M9.312 16.515c-0.132-0.13-0.337-0.128-0.467 0.004s-0.128 0.337 0.004 0.466l2.213 2.176c0.132 0.13 0.337 0.128 0.467-0.004s0.128-0.337-0.004-0.467l-2.213-2.176z"></path>
         <path d="M23.171 16.986l-2.213 2.176c-0.132 0.13-0.337 0.128-0.466-0.004s-0.128-0.337 0.004-0.467l2.213-2.176c0.132-0.13 0.337-0.128 0.467 0.004s0.128 0.337-0.004 0.466z"></path>
      </symbol>
      <symbol id="icon-made" viewBox="0 0 32 32">
         <path d="M2.688 8.271c0.301-0.205 0.873-0.132 1.715 0.222 0.176 0.074 0.372-0.007 0.446-0.182s-0.006-0.372-0.182-0.446c-0.515-0.216-0.954-0.342-1.318-0.377-0.397-0.039-0.731 0.025-1 0.192-0.015 0.009-0.030 0.019-0.044 0.029-0.004 0.003-0.008 0.005-0.012 0.008-0.269 0.188-0.463 0.483-0.583 0.884-0.106 0.354-0.158 0.814-0.158 1.38 0 0.338 0.006 0.845 0.018 1.52 0.027 1.508 0.013 2.635-0.041 3.379-0.065 0.899 0.058 1.828 0.371 2.787 0.186 0.57 0.546 1.404 1.081 2.502 0.044 0.091 0.078 0.159 0.1 0.205 0.504 1.037 1.173 2.050 2.006 3.038 0.629 0.745 1.456 1.591 2.482 2.535 0.482 0.444 0.82 0.897 1.013 1.36 0.202 0.483 0.265 1.021 0.189 1.614-0.019 0.151-0.010 0.374 0.027 0.668 0.017 0.132 0.028 0.233 0.033 0.301 0.016 0.209 0.129 0.314 0.339 0.314h5.697c0.227 0 0.34-0.113 0.34-0.34 0-0.35 0.001-0.871 0.003-1.564 0.005-2.062-0.003-3.605-0.024-4.63-0.008-0.383-0.194-0.774-0.557-1.175-0.541-0.596-1.357-1.485-2.449-2.667-1.472-1.593-2.569-2.794-3.292-3.601-0.185-0.207-0.409-0.361-0.672-0.462-0.149-0.057-0.376-0.114-0.681-0.171-0.045-0.008-0.078-0.014-0.1-0.019-0.111-0.021-0.209 0.007-0.293 0.083-0.381 0.347-0.711 0.808-0.991 1.381-0.084 0.171-0.015 0.372 0.157 0.455s0.372 0.015 0.455-0.157c0.211-0.432 0.451-0.786 0.719-1.061 0.227 0.044 0.39 0.085 0.489 0.123 0.161 0.062 0.298 0.156 0.41 0.281 0.725 0.81 1.825 2.013 3.299 3.609 1.090 1.18 1.905 2.068 2.445 2.662 0.249 0.275 0.376 0.518 0.38 0.731 0.021 1.019 0.029 2.557 0.024 4.614-0.001 0.496-0.002 0.905-0.002 1.225h-5.051c-0.001-0.006-0.002-0.013-0.002-0.019-0.030-0.237-0.039-0.403-0.027-0.497 0.091-0.713 0.012-1.367-0.236-1.962-0.231-0.555-0.625-1.087-1.18-1.599-1.005-0.925-1.813-1.75-2.423-2.473-0.797-0.945-1.435-1.911-1.915-2.897-0.022-0.046-0.055-0.114-0.1-0.205-0.521-1.070-0.87-1.875-1.046-2.415-0.285-0.874-0.398-1.717-0.339-2.527 0.056-0.765 0.070-1.911 0.043-3.44-0.012-0.671-0.018-1.174-0.018-1.508 0-0.932 0.152-1.502 0.456-1.71z"></path>
         <path d="M25.189 16.317l0.685 1.058c0.104 0.16 0.311 0.204 0.471 0.101s0.204-0.311 0.101-0.471l-0.757-1.168c-0.045-0.070-0.107-0.116-0.187-0.141-0.527-0.16-1.006-0.108-1.437 0.158-0.235 0.144-0.512 0.415-0.833 0.811-0.080 0.099-0.139 0.17-0.177 0.213-0.753 0.867-1.915 2.138-3.487 3.814-0.442 0.472-0.774 0.826-0.995 1.063-0.42 0.451-0.726 0.904-0.916 1.359-0.214 0.51-0.304 1.065-0.271 1.666 0.043 0.774 0.055 1.949 0.036 3.524-0.008 0.691-0.013 1.211-0.013 1.561 0 0.227 0.113 0.34 0.34 0.34h5.847c0.227 0 0.34-0.113 0.34-0.34 0-0.034-0.005-0.067-0.015-0.1-0.211-0.687-0.242-1.33-0.095-1.929 0.072-0.293 0.187-0.575 0.345-0.847 0.197-0.34 0.478-0.695 0.84-1.068 0.223-0.229 0.582-0.561 1.078-0.998 0.249-0.219 0.434-0.384 0.556-0.495 0.667-0.61 1.287-1.368 1.86-2.275 0.34-0.538 0.797-1.37 1.371-2.496 0.443-0.869 0.786-1.512 1.030-1.93 0.089-0.153 0.143-0.321 0.161-0.505 0.010-0.1 0.009-0.239-0.003-0.418-0.006-0.097-0.009-0.168-0.009-0.212l0.009-6.61c0-0.566-0.053-1.026-0.158-1.38-0.122-0.407-0.32-0.705-0.595-0.893-0.277-0.189-0.625-0.262-1.044-0.221-0.363 0.036-0.803 0.161-1.318 0.377-0.176 0.074-0.256 0.27-0.182 0.446s0.27 0.256 0.446 0.182c0.842-0.353 1.414-0.427 1.715-0.222 0.304 0.207 0.456 0.777 0.456 1.709l-0.009 6.606c-0 0.061 0.003 0.148 0.011 0.262 0.017 0.252-0.006 0.43-0.067 0.535-0.25 0.429-0.6 1.084-1.048 1.964-0.564 1.107-1.011 1.921-1.34 2.441-0.541 0.856-1.122 1.568-1.744 2.136-0.119 0.108-0.301 0.271-0.546 0.487-0.509 0.448-0.881 0.792-1.116 1.033-0.402 0.412-0.716 0.813-0.941 1.201-0.207 0.356-0.353 0.725-0.439 1.107-0.126 0.561-0.122 1.151 0.011 1.77h-5.065c0.002-0.318 0.006-0.722 0.011-1.213 0.019-1.59 0.007-2.78-0.037-3.57-0.027-0.488 0.043-0.937 0.211-1.345 0.003-0.007 0.005-0.013 0.008-0.020 0.159-0.38 0.421-0.766 0.786-1.157 0.22-0.236 0.552-0.59 0.994-1.061 1.578-1.682 2.746-2.96 3.505-3.834 0.043-0.049 0.106-0.126 0.191-0.231 0.272-0.336 0.492-0.556 0.661-0.659 0.077-0.048 0.158-0.083 0.242-0.108 0.163-0.047 0.338-0.050 0.526-0.009z"></path>
         <path d="M15.822 2.514c-0.301-0.181-0.525-0.324-0.671-0.428-0.64-0.454-1.281-0.685-1.925-0.691-0.191-0.002-0.383 0.016-0.575 0.054-0.096 0.019-0.191 0.042-0.285 0.070-0.616 0.183-1.174 0.56-1.675 1.129-0.29 0.33-0.505 0.687-0.643 1.072-0.129 0.359-0.191 0.741-0.188 1.147 0.004 0.424 0.081 0.818 0.232 1.181 0.156 0.376 0.391 0.719 0.705 1.029 0.848 0.839 2.167 2.066 3.956 3.681 0.65 0.587 1.167 1.056 1.551 1.407l3.379-3.041c0.473-0.43 1.112-1.028 1.916-1.795 0.698-0.665 1.078-1.433 1.141-2.304 0.023-0.315 0.001-0.62-0.066-0.915-0.127-0.56-0.416-1.083-0.867-1.57-0.619-0.667-1.424-0.99-2.416-0.968-0.179 0.004-0.357 0.019-0.533 0.045-0.802 0.118-1.571 0.463-2.306 1.035-0.11 0.112-0.283 0.136-0.422 0.049-0.067-0.042-0.169-0.104-0.306-0.186zM16.285 1.999c0.447-0.327 0.919-0.584 1.416-0.772 0.558-0.211 1.116-0.323 1.673-0.335 0.512-0.011 0.994 0.062 1.447 0.219 0.049 0.017 0.097 0.035 0.146 0.054 0.516 0.203 0.962 0.507 1.338 0.912 0.411 0.444 0.712 0.928 0.901 1.453 0.096 0.267 0.161 0.537 0.195 0.811 0.030 0.241 0.036 0.486 0.018 0.733-0.037 0.509-0.173 1.001-0.408 1.477-0.034 0.069-0.070 0.137-0.107 0.204-0.219 0.389-0.497 0.745-0.835 1.067-0.808 0.77-1.451 1.373-1.93 1.808l-3.608 3.248c-0.153 0.138-0.306 0.137-0.458-0.002-0.395-0.363-0.987-0.9-1.775-1.612-1.797-1.622-3.123-2.856-3.978-3.702-0.236-0.234-0.437-0.489-0.602-0.765-0.095-0.16-0.179-0.327-0.251-0.5-0.186-0.453-0.282-0.927-0.286-1.423-0.002-0.207 0.012-0.412 0.042-0.615 0.040-0.272 0.109-0.539 0.207-0.802 0.087-0.235 0.194-0.458 0.321-0.669 0.124-0.208 0.268-0.404 0.431-0.589 0.553-0.628 1.172-1.058 1.859-1.29 0.157-0.053 0.317-0.096 0.481-0.128 0.28-0.055 0.559-0.077 0.837-0.065 0.74 0.032 1.47 0.304 2.19 0.815 0.132 0.094 0.342 0.227 0.628 0.4 0.040 0.024 0.078 0.047 0.112 0.068z"></path>
         <path d="M6.802 13.729c0.010 0.81 0.063 1.54 0.159 2.188 0.028 0.189 0.198 0.315 0.387 0.287s0.315-0.198 0.287-0.387c-0.091-0.618-0.142-1.317-0.152-2.097-0.006-0.472 0.007-1.182 0.038-2.13 0.016-0.498 0.027-0.872 0.032-1.121 0.005-0.231-0.005-0.572-0.029-1.022-0.027-0.506-0.034-0.883-0.022-1.133 0.028-0.574-0.090-1.015-0.354-1.325-0.055-0.065-0.116-0.124-0.182-0.175-0.252-0.198-0.582-0.296-0.989-0.296-0.194 0-0.375 0.032-0.546 0.095-0.252 0.093-0.479 0.256-0.68 0.488-0.174 0.202-0.296 0.419-0.366 0.652-0.066 0.221-0.085 0.456-0.056 0.705 0.062 0.542 0.099 1.154 0.111 1.835 0.007 0.412 0.004 1.031-0.009 1.858-0.017 1.123-0.014 1.967 0.011 2.531 0.002 0.047 0 0.124-0.005 0.229-0.011 0.213-0.004 0.379 0.019 0.498 0.042 0.218 0.142 0.412 0.299 0.581 0.351 0.378 0.725 0.822 1.12 1.333 0.239 0.309 0.589 0.781 1.050 1.416 0.567 0.782 1.002 1.362 1.304 1.741 0.508 0.637 1 1.184 1.478 1.641 0.138 0.132 0.35 0.127 0.481-0.011s0.127-0.349-0.011-0.481c-0.455-0.435-0.927-0.96-1.416-1.573-0.296-0.371-0.724-0.943-1.286-1.717-0.465-0.641-0.819-1.119-1.062-1.433-0.408-0.527-0.794-0.987-1.159-1.38-0.069-0.074-0.112-0.156-0.129-0.246-0.013-0.066-0.015-0.178-0.007-0.336 0.006-0.127 0.008-0.224 0.005-0.293-0.024-0.551-0.027-1.381-0.010-2.491 0.013-0.834 0.016-1.461 0.009-1.88-0.012-0.703-0.050-1.337-0.115-1.901-0.017-0.15-0.006-0.292 0.033-0.426 0.043-0.146 0.118-0.282 0.228-0.408 0.133-0.154 0.283-0.257 0.448-0.309 0.083-0.026 0.171-0.039 0.262-0.039 0.297 0 0.511 0.074 0.643 0.221 0.003 0.004 0.006 0.007 0.009 0.011 0.147 0.173 0.212 0.458 0.193 0.852-0.013 0.272-0.005 0.672 0.022 1.201 0.023 0.434 0.032 0.758 0.028 0.972-0.005 0.247-0.016 0.618-0.032 1.113-0.031 0.959-0.044 1.679-0.038 2.161z"></path>
         <path d="M25.133 13.72c-0.010 0.78-0.060 1.479-0.152 2.098-0.028 0.189 0.098 0.359 0.287 0.387s0.359-0.098 0.387-0.287c0.096-0.649 0.149-1.379 0.159-2.189 0.006-0.482-0.007-1.203-0.038-2.162-0.016-0.494-0.027-0.865-0.032-1.111-0.004-0.214 0.005-0.538 0.028-0.971 0.028-0.529 0.036-0.93 0.023-1.202-0.019-0.394 0.045-0.678 0.192-0.852 0.003-0.004 0.006-0.007 0.009-0.011 0.132-0.148 0.347-0.221 0.644-0.221 0.091 0 0.179 0.013 0.262 0.039 0.166 0.052 0.315 0.155 0.449 0.309 0.109 0.126 0.185 0.262 0.228 0.408 0.039 0.134 0.050 0.275 0.033 0.425-0.065 0.564-0.103 1.198-0.115 1.901-0.007 0.419-0.004 1.046 0.009 1.88 0.017 1.11 0.014 1.94-0.010 2.491-0.003 0.069-0.001 0.166 0.005 0.293 0.008 0.158 0.006 0.27-0.007 0.336-0.017 0.090-0.060 0.172-0.129 0.246-0.365 0.393-0.752 0.853-1.16 1.38-0.243 0.314-0.597 0.792-1.062 1.433-0.561 0.773-0.99 1.345-1.285 1.717-0.489 0.613-0.961 1.138-1.416 1.573-0.138 0.132-0.142 0.344-0.011 0.481s0.344 0.142 0.481 0.011c0.477-0.456 0.97-1.003 1.477-1.64 0.302-0.379 0.737-0.959 1.304-1.741 0.461-0.635 0.811-1.108 1.050-1.416 0.395-0.511 0.768-0.955 1.12-1.333 0.158-0.17 0.257-0.363 0.299-0.581 0.023-0.119 0.029-0.285 0.018-0.498-0.005-0.105-0.007-0.182-0.005-0.229 0.024-0.564 0.028-1.408 0.011-2.531-0.013-0.827-0.016-1.446-0.009-1.858 0.012-0.681 0.049-1.293 0.111-1.835 0.059-0.512-0.082-0.964-0.422-1.357-0.201-0.232-0.428-0.395-0.68-0.488-0.17-0.063-0.352-0.094-0.545-0.094-0.407 0-0.737 0.099-0.99 0.297-0.066 0.052-0.127 0.11-0.182 0.175-0.264 0.31-0.382 0.752-0.354 1.326 0.012 0.249 0.005 0.627-0.022 1.133-0.024 0.45-0.034 0.791-0.029 1.021 0.005 0.249 0.016 0.622 0.032 1.119 0.031 0.949 0.044 1.66 0.038 2.132z"></path>
         <path d="M11.691 17.686c-0.017 0.589-0.089 1.115-0.216 1.576-0.051 0.184 0.054 0.368 0.238 0.419s0.368-0.054 0.419-0.238c0.141-0.514 0.222-1.093 0.24-1.737 0.011-0.379-0.003-0.943-0.041-1.693-0.023-0.443-0.037-0.773-0.041-0.992-0.014-0.619-0.277-1.010-0.791-1.174-0.412-0.131-1.003-0.087-1.771 0.132v0c-0.183 0.052-0.286 0.238-0.234 0.421s0.238 0.286 0.421 0.234c0.636-0.182 1.095-0.228 1.377-0.138 0.057 0.018 0.106 0.045 0.148 0.081 0.108 0.093 0.164 0.246 0.169 0.459 0.005 0.225 0.019 0.563 0.042 1.012 0.038 0.732 0.051 1.278 0.041 1.638z"></path>
         <path d="M21.236 14.563c0.27-0.209 0.751-0.188 1.444 0.063 0.179 0.065 0.371-0.025 0.436-0.204s-0.025-0.371-0.204-0.436c-0.878-0.318-1.549-0.324-2.015-0.017-0.027 0.018-0.053 0.037-0.079 0.056-0.036 0.028-0.069 0.057-0.102 0.088-0.393 0.379-0.536 1.018-0.429 1.916 0.033 0.274 0.036 0.696 0.011 1.268-0.021 0.467-0.025 0.82-0.012 1.058 0.022 0.411 0.090 0.78 0.205 1.109 0.063 0.18 0.254 0.272 0.434 0.209s0.272-0.254 0.209-0.434c-0.094-0.267-0.149-0.574-0.168-0.92-0.011-0.216-0.007-0.547 0.012-0.992 0.027-0.609 0.022-1.069-0.015-1.379-0.086-0.717 0.005-1.178 0.272-1.385z"></path>
         <path d="M9.249 15.614c-0.030 0.46-0.107 0.867-0.231 1.223-0.063 0.18 0.029 0.371 0.209 0.434s0.371-0.029 0.434-0.209c0.144-0.414 0.233-0.882 0.267-1.403 0.020-0.305 0.021-0.758 0.005-1.361-0.010-0.37-0.014-0.647-0.013-0.829 0.001-0.141-0.002-0.35-0.010-0.627-0.015-0.514-0.008-0.893 0.020-1.137 0.105-0.899-0.040-1.539-0.434-1.918-0.032-0.030-0.065-0.059-0.1-0.086-0.026-0.020-0.052-0.039-0.079-0.057-0.466-0.307-1.137-0.301-2.015 0.018v0c-0.179 0.065-0.269 0.257-0.204 0.436s0.257 0.269 0.436 0.204c0.693-0.251 1.174-0.273 1.444-0.063 0.267 0.207 0.359 0.67 0.275 1.387-0.032 0.277-0.041 0.689-0.024 1.236 0.008 0.269 0.011 0.469 0.010 0.601-0.002 0.191 0.003 0.476 0.013 0.854 0.016 0.582 0.015 1.014-0.003 1.298z"></path>
         <path d="M23.655 10.236c0.263-0.206 0.739-0.185 1.428 0.065 0.179 0.065 0.371-0.025 0.436-0.204s-0.025-0.371-0.204-0.436c-0.875-0.317-1.543-0.323-2.003-0.017-0.026 0.018-0.052 0.036-0.077 0.056-0.017 0.013-0.034 0.027-0.050 0.041-0.419 0.365-0.589 1.016-0.51 1.952 0.058 0.682 0.067 1.719 0.029 3.11-0.009 0.309-0.015 0.542-0.018 0.696-0.011 0.507 0.078 1.028 0.269 1.564 0.064 0.18 0.255 0.27 0.435 0.206s0.27-0.255 0.206-0.435c-0.163-0.457-0.24-0.897-0.23-1.32 0.003-0.154 0.009-0.384 0.018-0.693 0.039-1.416 0.029-2.478-0.031-3.186-0.061-0.728 0.039-1.195 0.301-1.4z"></path>
      </symbol>
      <symbol id="icon-wood" viewBox="0 0 32 32">
         <path d="M31.649 7.907c0.164 0.178 0.273 0.371 0.328 0.578 0.030 0.114 0.043 0.232 0.039 0.355-0.022 0.803-0.117 1.528-0.282 2.174-0.214 0.834-0.576 1.637-1.084 2.408-0.424 0.644-0.981 1.307-1.67 1.988l-5.455 5.411-4.014 4.057c-0.007 0.007-0.017 0.017-0.031 0.031-0.13 0.133-0.236 0.228-0.319 0.286-0.155 0.11-0.321 0.177-0.498 0.199-0.117 0.015-0.246 0.122-0.387 0.322-0.87 1.232-1.758 2.22-2.663 2.965-1.027 0.844-2.148 1.403-3.362 1.677-1.167 0.263-2.348 0.279-3.541 0.048-1.401-0.271-2.597-0.8-3.588-1.588-0.063-0.050-0.126-0.102-0.188-0.154-1.204-1.025-2.061-2.187-2.572-3.485-0.437-1.11-0.621-2.32-0.552-3.629 0.022-0.427 0.077-0.848 0.162-1.263 0.134-0.646 0.344-1.276 0.632-1.89 0.348-0.742 0.819-1.447 1.413-2.114 0.501-0.562 1.118-1.127 1.852-1.695 0.043-0.033 0.108-0.085 0.195-0.155 0.342-0.276 0.616-0.458 0.822-0.548 0.349-0.151 0.707-0.177 1.075-0.077 0.040-0.014 0.074-0.024 0.102-0.029 0.016-0.003 0.039-0.007 0.070-0.013 0.738-0.139 1.295-0.224 1.672-0.256 0.643-0.054 1.226-0.022 1.748 0.096 0.13 0.029 0.336 0.060 0.618 0.093 0.4 0.046 0.699 0.099 0.898 0.159 0.331 0.1 0.61 0.258 0.839 0.474 0.028 0.007 0.052 0.014 0.071 0.022 0.277 0.105 0.562 0.258 0.855 0.458 0.17 0.116 0.413 0.302 0.729 0.557 0.428 0.345 0.757 0.583 0.988 0.714 0.101 0.057 0.19 0.151 0.269 0.281 0.036 0.059 0.084 0.154 0.144 0.284 0.067 0.146 0.119 0.243 0.154 0.292 0.905 1.254 1.444 2.612 1.618 4.072 0.123 1.034 0.077 2.020-0.14 2.957-0.065 0.28-0.088 0.54-0.071 0.779 0.018-0.003 0.036-0.006 0.055-0.008 0.106-0.013 0.249-0.111 0.428-0.293 0.014-0.014 0.025-0.025 0.032-0.032l4.014-4.058 5.46-5.416c0.657-0.65 1.185-1.278 1.584-1.883 0.468-0.71 0.8-1.446 0.996-2.209 0.153-0.598 0.241-1.275 0.262-2.029 0.005-0.167-0.059-0.322-0.193-0.467-0.125-0.136-0.117-0.341 0.019-0.466s0.341-0.117 0.466 0.019zM17.912 25.114c-0.080-0.394-0.065-0.825 0.043-1.293 0.199-0.862 0.242-1.773 0.128-2.731-0.046-0.386-0.12-0.763-0.221-1.134-0.253-0.924-0.679-1.801-1.277-2.631-0.060-0.083-0.133-0.217-0.218-0.402-0.079-0.171-0.125-0.26-0.139-0.267-0.263-0.149-0.622-0.408-1.077-0.775-0.302-0.244-0.531-0.419-0.687-0.525-0.248-0.169-0.485-0.297-0.711-0.384-0.003-0.001-0.007-0.002-0.013-0.003-0.106-0.023-0.188-0.064-0.246-0.121-0.162-0.165-0.367-0.284-0.614-0.359-0.162-0.049-0.423-0.094-0.783-0.136-0.305-0.035-0.534-0.070-0.687-0.105-0.456-0.103-0.972-0.13-1.548-0.082-0.354 0.030-0.889 0.112-1.605 0.247-0.027 0.005-0.048 0.009-0.064 0.012-0.004 0.001-0.011 0.004-0.022 0.008-0.126 0.047-0.236 0.055-0.33 0.025-0.238-0.076-0.468-0.065-0.69 0.031-0.151 0.066-0.375 0.218-0.671 0.456-0.090 0.073-0.159 0.127-0.205 0.163-0.702 0.543-1.289 1.081-1.763 1.613-0.551 0.619-0.987 1.27-1.308 1.955-0.269 0.575-0.465 1.164-0.588 1.769-0.076 0.374-0.124 0.754-0.145 1.139-0.063 1.201 0.105 2.312 0.504 3.333 0.473 1.208 1.269 2.29 2.39 3.245 0.938 0.798 2.095 1.331 3.473 1.597 1.103 0.213 2.193 0.199 3.271-0.044 1.113-0.251 2.142-0.765 3.088-1.543 0.86-0.707 1.708-1.652 2.543-2.835 0.060-0.085 0.118-0.16 0.174-0.223z"></path>
         <path d="M25.609 13.071c-0.181 0.219-0.329 0.353-0.444 0.402-0.17 0.072-0.247 0.263-0.175 0.433s0.263 0.247 0.433 0.175c0.146-0.062 0.284-0.155 0.414-0.278 0.071-0.067 0.164-0.171 0.28-0.311 0.089-0.108 0.156-0.184 0.201-0.229l4.483-4.476c0.152-0.152 0.282-0.255 0.388-0.311 0.271-0.142 0.466-0.325 0.586-0.547 0.043-0.080 0.075-0.162 0.096-0.247 0.044-0.176 0.041-0.363-0.007-0.561-0.409-1.682-1.114-3.066-2.114-4.154-0.182-0.198-0.373-0.385-0.573-0.562-0.94-0.831-2.083-1.431-3.428-1.803-1.407-0.388-2.748-0.452-4.022-0.191-0.103 0.021-0.205 0.044-0.306 0.069-0.213 0.053-0.424 0.115-0.631 0.185-1.136 0.388-2.179 1.044-3.131 1.97-1.483 1.441-3.682 3.627-6.599 6.557-1.595 1.602-2.792 2.801-3.593 3.598-0.286 0.285-0.47 0.673-0.553 1.165-0.031 0.182 0.088 0.349 0.27 0.38s0.349-0.088 0.38-0.27c0.059-0.353 0.182-0.622 0.368-0.807 0.802-0.797 2-1.998 3.596-3.6 2.914-2.928 5.111-5.111 6.592-6.55 0.909-0.883 1.904-1.501 2.985-1.852 0.157-0.051 0.316-0.096 0.476-0.136 0.053-0.013 0.107-0.026 0.161-0.038 1.207-0.269 2.485-0.217 3.834 0.155 1.316 0.363 2.418 0.957 3.305 1.781 1.127 1.047 1.908 2.466 2.344 4.257 0.023 0.094 0.022 0.181-0.002 0.261-0.042 0.139-0.155 0.257-0.339 0.354-0.165 0.087-0.347 0.229-0.547 0.428l-4.482 4.475c-0.060 0.060-0.142 0.152-0.244 0.276z"></path>
         <path d="M13.205 23.993c0.355-0.526 0.56-1.202 0.615-2.030 0.012-0.184-0.123-0.339-0.308-0.351s-0.339 0.123-0.351 0.308c-0.047 0.709-0.214 1.277-0.503 1.704-0.177 0.261-0.383 0.484-0.619 0.669-0.117 0.091-0.24 0.174-0.372 0.246-0.178 0.099-0.362 0.177-0.553 0.234-0.211 0.064-0.43 0.102-0.657 0.114-0.427 0.023-0.837-0.046-1.229-0.208-0.187-0.078-0.362-0.173-0.524-0.286-0.19-0.133-0.363-0.29-0.518-0.472-0.403-0.471-0.647-0.968-0.729-1.491-0-0.003-0.001-0.006-0.001-0.008-0.025-0.16-0.034-0.319-0.028-0.477 0.013-0.345 0.099-0.687 0.258-1.026 0.27-0.576 0.631-1.007 1.083-1.295 0.455-0.289 1.002-0.433 1.641-0.432h0.374c0.185 0 0.33-0.145 0.33-0.33s-0.145-0.33-0.33-0.33h-0.373c-0.769-0.002-1.436 0.177-1.999 0.536-0.043 0.027-0.085 0.056-0.127 0.085-0.5 0.353-0.899 0.848-1.198 1.486-0.187 0.4-0.293 0.804-0.317 1.214-0.013 0.222-0.002 0.446 0.033 0.671 0.008 0.054 0.018 0.108 0.029 0.161 0.122 0.589 0.406 1.144 0.852 1.666 0.19 0.222 0.401 0.414 0.632 0.577 0.204 0.143 0.423 0.264 0.659 0.361 0.485 0.201 0.99 0.287 1.517 0.258 0.532-0.029 1.030-0.173 1.494-0.43 0.177-0.098 0.342-0.21 0.497-0.335 0.274-0.221 0.513-0.483 0.719-0.788z"></path>
         <path d="M27.236 5.915c-0.066 0.171-0.212 0.351-0.439 0.538-0.072 0.059-0.122 0.103-0.15 0.132l-4.665 4.715-5.32 5.299c-0.131 0.13-0.337 0.129-0.467-0.002s-0.129-0.336 0.002-0.466l0.001-0.001 5.315-5.294 4.663-4.714c0.044-0.045 0.111-0.105 0.201-0.179 0.138-0.113 0.218-0.202 0.243-0.265 0.066-0.173 0.254-0.256 0.426-0.19s0.256 0.254 0.19 0.426z"></path>
         <path d="M19.787 7.094c-0.031-0.182-0.199-0.3-0.381-0.269s-0.3 0.199-0.269 0.381c0.011 0.062 0.001 0.12-0.029 0.175s-0.098 0.134-0.202 0.237l-5.557 5.549c-0.306 0.305-0.503 0.58-0.59 0.824-0.062 0.174 0.026 0.359 0.2 0.421s0.359-0.026 0.421-0.2c0.053-0.151 0.198-0.343 0.434-0.578l5.556-5.548c0.148-0.147 0.252-0.275 0.313-0.383 0.106-0.19 0.141-0.393 0.104-0.609z"></path>
         <path d="M10.15 16.152c-0.027-0.001-0.055 0.001-0.084 0.006-0.116 0.023-0.293 0.053-0.531 0.090-0.552 0.086-0.969 0.181-1.25 0.285-0.928 0.344-1.698 0.839-2.309 1.483-0.047 0.050-0.094 0.1-0.139 0.152-0.144 0.164-0.277 0.335-0.399 0.513-0.415 0.607-0.705 1.299-0.869 2.078-0.145 0.687-0.181 1.363-0.108 2.026 0.010 0.092 0.022 0.184 0.037 0.276 0.077 0.494 0.213 0.963 0.407 1.407 0.098 0.224 0.21 0.441 0.338 0.652 0.158 0.262 0.335 0.507 0.531 0.736 0.281 0.329 0.602 0.624 0.962 0.886 0.63 0.459 1.349 0.791 2.155 0.996 1.26 0.32 2.451 0.253 3.574-0.202 0.244-0.099 0.479-0.213 0.705-0.344 0.816-0.473 1.512-1.153 2.088-2.042 0.473-0.731 0.758-1.556 0.856-2.474 0.209-1.978-0.437-3.655-1.94-5.030-0.585-0.535-1.221-0.922-1.909-1.162-0.494-0.172-1.014-0.267-1.561-0.287-0.071-0.003-0.181-0.012-0.33-0.028-0.073-0.008-0.128-0.013-0.165-0.017-0.020-0.002-0.039-0.002-0.058-0zM10.165 16.811c0.033 0.003 0.079 0.008 0.137 0.014 0.164 0.017 0.29 0.028 0.376 0.031 0.466 0.017 0.911 0.097 1.334 0.24 0.617 0.21 1.189 0.555 1.714 1.036 0.714 0.653 1.211 1.382 1.491 2.186 0.246 0.705 0.325 1.467 0.238 2.288-0.086 0.814-0.337 1.542-0.753 2.185-0.537 0.83-1.188 1.456-1.951 1.878-0.173 0.095-0.351 0.18-0.535 0.255-0.99 0.401-2.044 0.459-3.164 0.174-0.717-0.182-1.355-0.475-1.913-0.878-0.005-0.004-0.011-0.008-0.017-0.012-0.324-0.236-0.612-0.502-0.863-0.799-0.167-0.197-0.318-0.407-0.453-0.631-0.105-0.174-0.199-0.354-0.281-0.538-0.18-0.403-0.305-0.83-0.376-1.282-0.008-0.054-0.016-0.108-0.023-0.163-0.078-0.62-0.049-1.254 0.088-1.901 0.152-0.722 0.424-1.358 0.816-1.91 0.094-0.132 0.194-0.259 0.302-0.381 0.014-0.016 0.028-0.031 0.042-0.047 0.554-0.613 1.267-1.082 2.141-1.406 0.239-0.089 0.613-0.173 1.122-0.252 0.228-0.035 0.405-0.065 0.529-0.089z"></path>
         <path d="M9.795 23.213c0.149 0.062 0.312 0.093 0.487 0.093s0.338-0.031 0.487-0.093c0.149-0.062 0.286-0.155 0.41-0.279s0.217-0.261 0.279-0.41c0.062-0.15 0.093-0.312 0.093-0.487s-0.031-0.338-0.093-0.487c-0.062-0.15-0.155-0.286-0.279-0.41s-0.261-0.217-0.41-0.279c-0.149-0.062-0.312-0.093-0.487-0.093s-0.338 0.031-0.487 0.093c-0.15 0.062-0.286 0.155-0.41 0.279s-0.217 0.261-0.279 0.41c-0.062 0.149-0.093 0.312-0.093 0.487s0.031 0.338 0.093 0.487c0.062 0.149 0.155 0.286 0.279 0.41s0.261 0.217 0.41 0.279zM10.516 22.602c-0.072 0.030-0.15 0.045-0.234 0.045s-0.162-0.015-0.234-0.045c-0.072-0.030-0.137-0.074-0.197-0.134s-0.104-0.125-0.134-0.197c-0.030-0.072-0.045-0.15-0.045-0.234s0.015-0.162 0.045-0.234c0.030-0.072 0.074-0.137 0.134-0.197s0.125-0.104 0.197-0.134c0.072-0.030 0.15-0.045 0.234-0.045s0.162 0.015 0.234 0.045c0.072 0.030 0.137 0.074 0.197 0.134s0.104 0.125 0.134 0.197c0.030 0.072 0.045 0.15 0.045 0.234s-0.015 0.162-0.045 0.234c-0.030 0.072-0.074 0.137-0.134 0.197s-0.125 0.104-0.197 0.134z"></path>
      </symbol>
      <symbol id="icon-instagram" viewBox="0 0 32 32">
         <path d="M16 2.881c4.275 0 4.781 0.019 6.463 0.094 1.563 0.069 2.406 0.331 2.969 0.55 0.744 0.288 1.281 0.638 1.838 1.194 0.562 0.563 0.906 1.094 1.194 1.838 0.219 0.563 0.481 1.412 0.55 2.969 0.075 1.688 0.094 2.194 0.094 6.462 0 4.275-0.019 4.781-0.094 6.463-0.069 1.563-0.331 2.406-0.55 2.969-0.287 0.744-0.637 1.281-1.194 1.837-0.563 0.563-1.094 0.906-1.838 1.194-0.562 0.219-1.412 0.481-2.969 0.55-1.687 0.075-2.194 0.094-6.463 0.094-4.275 0-4.781-0.019-6.463-0.094-1.563-0.069-2.406-0.331-2.969-0.55-0.744-0.287-1.281-0.637-1.838-1.194-0.563-0.563-0.906-1.094-1.194-1.837-0.219-0.563-0.481-1.413-0.55-2.969-0.075-1.687-0.094-2.194-0.094-6.463 0-4.275 0.019-4.781 0.094-6.462 0.069-1.563 0.331-2.406 0.55-2.969 0.288-0.744 0.638-1.281 1.194-1.838 0.563-0.563 1.094-0.906 1.838-1.194 0.563-0.219 1.412-0.481 2.969-0.55 1.681-0.075 2.188-0.094 6.463-0.094zM16 0c-4.344 0-4.887 0.019-6.594 0.094-1.7 0.075-2.869 0.35-3.881 0.744-1.056 0.412-1.95 0.956-2.837 1.85-0.894 0.888-1.438 1.781-1.85 2.831-0.394 1.019-0.669 2.181-0.744 3.881-0.075 1.713-0.094 2.256-0.094 6.6s0.019 4.887 0.094 6.594c0.075 1.7 0.35 2.869 0.744 3.881 0.413 1.056 0.956 1.95 1.85 2.837 0.887 0.887 1.781 1.437 2.831 1.844 1.019 0.394 2.181 0.669 3.881 0.744 1.706 0.075 2.25 0.094 6.594 0.094s4.887-0.019 6.594-0.094c1.7-0.075 2.869-0.35 3.881-0.744 1.050-0.406 1.944-0.956 2.831-1.844s1.437-1.781 1.844-2.831c0.394-1.019 0.669-2.181 0.744-3.881 0.075-1.706 0.094-2.25 0.094-6.594s-0.019-4.888-0.094-6.594c-0.075-1.7-0.35-2.869-0.744-3.881-0.394-1.063-0.937-1.956-1.831-2.844-0.887-0.887-1.781-1.438-2.831-1.844-1.019-0.394-2.181-0.669-3.881-0.744-1.713-0.081-2.256-0.1-6.6-0.1z"></path>
         <path d="M16 7.781c-4.537 0-8.219 3.681-8.219 8.219s3.681 8.219 8.219 8.219c4.537 0 8.219-3.681 8.219-8.219s-3.681-8.219-8.219-8.219zM16 21.331c-2.944 0-5.331-2.387-5.331-5.331s2.387-5.331 5.331-5.331c2.944 0 5.331 2.387 5.331 5.331s-2.387 5.331-5.331 5.331z"></path>
         <path d="M26.463 7.456c0 1.063-0.863 1.919-1.919 1.919-1.063 0-1.919-0.863-1.919-1.919 0-1.063 0.862-1.919 1.919-1.919s1.919 0.862 1.919 1.919z"></path>
      </symbol>
   </defs>
</svg>
