<svg viewBox="0 0 94 94" xmlns="http://www.w3.org/2000/svg" xmlns:xlink="http://www.w3.org/1999/xlink" width="94.000000" height="94.000000" fill="none">
	<rect id="Frame" width="94.000000" height="94.000000" x="0.000000" y="0.000000" fill="rgb(255,255,255)" fill-opacity="0" />
	<g id="GfP9Zp.tif">
		<path id="Vector(Border)" d="M7.89474 24.2967C8.77975 23.6933 10.4589 23.9102 12.9321 24.9475C13.4485 25.164 14.0245 24.9284 14.241 24.412C14.4576 23.8956 14.222 23.3197 13.7056 23.1031C12.1926 22.4685 10.9023 22.099 9.83461 21.9943C8.66764 21.8799 7.68879 22.0684 6.89807 22.5596C6.85415 22.5869 6.81082 22.6151 6.76806 22.6443C6.75633 22.6523 6.74463 22.6603 6.73299 22.6685C5.94281 23.2209 5.37187 24.0869 5.02017 25.2665C4.71 26.3068 4.55492 27.6576 4.55492 29.3189C4.55492 30.3125 4.57245 31.8012 4.6075 33.785C4.68578 38.2161 4.64548 41.5247 4.48658 43.7107C4.29441 46.3512 4.65758 49.0801 5.5761 51.8974C6.12199 53.5719 7.18078 56.0221 8.75248 59.2481C8.8826 59.5152 8.98022 59.7157 9.04535 59.8497C10.5262 62.8968 12.4908 65.8719 14.9391 68.7751C16.7858 70.9649 19.2164 73.4473 22.231 76.2223C23.6473 77.5262 24.639 78.8577 25.2062 80.217C25.7982 81.6355 25.9834 83.2159 25.7618 84.9583C25.7052 85.4033 25.7314 86.0577 25.8405 86.9215C25.8895 87.31 25.9218 87.6046 25.9373 87.8052C25.9848 88.4205 26.3171 88.7282 26.9343 88.7282L43.6691 88.7282C44.3358 88.7282 44.6691 88.3949 44.6691 87.7282C44.6691 86.7006 44.6717 85.1691 44.6768 83.1336C44.692 77.0756 44.6684 72.5424 44.6059 69.534C44.5826 68.4097 44.0371 67.2596 42.9694 66.0836C41.3801 64.3332 38.9823 61.7221 35.7762 58.2503C31.4535 53.5695 28.2305 50.0434 26.1071 47.6718C25.563 47.0645 24.9046 46.6121 24.132 46.3146C23.6947 46.1463 23.0283 45.9792 22.1327 45.8132C22.002 45.789 21.9039 45.7707 21.8385 45.7583C21.5111 45.6963 21.2244 45.7776 20.9783 46.0022C19.8598 47.0229 18.8893 48.3753 18.0669 50.0592C17.8211 50.5624 18.0234 51.1508 18.5266 51.3966C19.0298 51.6424 19.6182 51.4401 19.864 50.9369C20.4843 49.6669 21.1883 48.6276 21.976 47.819C22.6416 47.9477 23.1207 48.0684 23.4133 48.1811C23.8863 48.3632 24.2876 48.6381 24.6171 49.0059C26.7473 51.3851 29.9772 54.9189 34.3069 59.6072C37.5091 63.0747 39.903 65.6816 41.4886 67.428C42.2208 68.2345 42.5934 68.9503 42.6063 69.5755C42.6684 72.5685 42.6919 77.0862 42.6768 83.1286C42.6731 84.5868 42.6708 85.7866 42.6697 86.7282L27.8319 86.7282C27.8295 86.7094 27.8271 86.6903 27.8247 86.6711C27.7368 85.9749 27.7105 85.488 27.7458 85.2106C28.0123 83.1151 27.781 81.1938 27.052 79.4467C26.3722 77.8179 25.2168 76.2526 23.5855 74.7508C20.6329 72.0329 18.2604 69.6112 16.468 67.4857C14.127 64.7097 12.2523 61.8729 10.8441 58.9754C10.779 58.8415 10.6811 58.6404 10.5505 58.3722C9.01917 55.2291 7.99488 52.8642 7.47759 51.2775C6.64023 48.7091 6.30814 46.2351 6.48132 43.8556C6.64458 41.6096 6.68653 38.241 6.60718 33.7496C6.57234 31.7776 6.55492 30.3007 6.55492 29.3189C6.55492 26.5798 7.00153 24.9057 7.89474 24.2967Z" fill="rgb(0,0,0)" fill-rule="evenodd" />
		<path id="Vector(Border)" d="M73.993 47.9316L76.0057 51.038C76.3103 51.5079 76.9188 51.6379 77.3887 51.3334C77.8587 51.0289 77.9887 50.4204 77.6842 49.9504L75.4611 46.5194C75.3286 46.3149 75.1458 46.1773 74.9127 46.1064C73.3642 45.6358 71.9567 45.7904 70.6901 46.5701C70.0012 46.9941 69.1857 47.788 68.2435 48.9517C68.0082 49.2424 67.8354 49.4513 67.7249 49.5786C65.5141 52.1255 62.0996 55.8599 57.4815 60.782C56.1818 62.1672 55.2075 63.2078 54.5585 63.9037C53.3235 65.2291 52.4262 66.5594 51.8667 67.8946C51.2388 69.3929 50.9739 71.024 51.0719 72.7877C51.1984 75.0622 51.2336 78.5127 51.1777 83.1392C51.1531 85.1675 51.1409 86.6962 51.1409 87.7252C51.1409 88.3919 51.4742 88.7252 52.1409 88.7252L69.3165 88.7252C69.9832 88.7252 70.3165 88.3919 70.3165 87.7252C70.3165 87.6253 70.3019 87.5275 70.2726 87.432C69.6535 85.4138 69.5608 83.5254 69.9944 81.7666C70.2065 80.9059 70.5448 80.0762 71.0091 79.2776C71.5891 78.28 72.4119 77.2347 73.4774 76.1416C74.1324 75.4697 75.188 74.4927 76.6441 73.2108C77.375 72.5674 77.919 72.0824 78.2763 71.7558C80.2352 69.9653 82.0566 67.7373 83.7405 65.0718C84.7386 63.4918 86.0806 61.0481 87.7665 57.7408C89.0676 55.1885 90.076 53.2983 90.7918 52.0703C91.0532 51.6213 91.2109 51.1265 91.2648 50.5858C91.294 50.2932 91.2913 49.8843 91.2567 49.3589C91.238 49.0737 91.2291 48.866 91.2301 48.736L91.2555 29.3187C91.2555 27.6565 91.1004 26.3053 90.7902 25.265C90.4333 24.0681 89.8507 23.194 89.0423 22.6428C88.2297 22.0888 87.2076 21.8721 85.9758 21.9929C84.9081 22.0975 83.6178 22.4671 82.1048 23.1016C81.5884 23.3182 81.3528 23.8941 81.5694 24.4106C81.7859 24.927 82.3619 25.1626 82.8783 24.946C85.3515 23.9088 87.0306 23.6918 87.9156 24.2953C88.8089 24.9043 89.2555 26.5779 89.2555 29.3161L89.2301 48.7209C89.2288 48.8997 89.2391 49.1562 89.261 49.4901C89.3097 50.2296 89.244 50.7539 89.0639 51.0631C88.3292 52.3235 87.3028 54.2467 85.9847 56.8325C84.3266 60.0851 83.0149 62.4755 82.0496 64.0036C80.4613 66.5179 78.7538 68.6098 76.927 70.2795C76.5789 70.5977 76.0441 71.0744 75.3225 71.7097C73.8282 73.0252 72.7358 74.0372 72.0453 74.7455C70.8647 75.9567 69.9429 77.1323 69.2801 78.2723C68.6728 79.3168 68.2429 80.4011 67.9903 81.5253C67.62 83.173 67.6307 84.9063 68.0223 86.7252L53.1439 86.7252C53.1489 85.7924 53.1601 84.6051 53.1775 83.1634C53.234 78.4918 53.1978 74.9962 53.0688 72.6768C52.9891 71.2423 53.1953 69.9251 53.6874 68.7252C53.6953 68.706 53.7033 68.6868 53.7113 68.6676C54.1788 67.5519 54.9488 66.4186 56.0212 65.2677C56.6686 64.5735 57.6415 63.5344 58.9401 62.1504C63.5758 57.2096 67.0077 53.4558 69.2359 50.889C69.3611 50.7446 69.5484 50.5184 69.7979 50.2102C70.5968 49.2235 71.2436 48.5779 71.7385 48.2732C71.9656 48.1335 72.2025 48.0281 72.4493 47.9571C72.9269 47.8198 73.4414 47.8113 73.993 47.9316Z" fill="rgb(0,0,0)" fill-rule="evenodd" />
		<path id="Vector(Border)" d="M46.4762 7.38611C46.8784 7.62823 47.1777 7.81068 47.374 7.93346C47.7842 8.19006 48.2927 8.12065 48.6149 7.79077C50.7746 6.11071 53.0323 5.09753 55.3881 4.75123C55.9055 4.67517 56.4277 4.63128 56.9547 4.61957C59.8669 4.55484 62.2324 5.50278 64.0511 7.46339C65.3762 8.89248 66.2257 10.4296 66.5994 12.0749C66.7963 12.9413 66.8612 13.8377 66.7941 14.764C66.6089 17.3236 65.4919 19.5796 63.443 21.5319C61.0806 23.7833 59.2045 25.5406 57.815 26.8039L47.8899 35.7375C46.7624 34.7074 45.2438 33.3301 43.3341 31.6056C38.079 26.8603 34.2056 23.256 31.714 20.7926C30.792 19.8815 30.1015 18.8741 29.6427 17.7704C29.1994 16.7042 28.9723 15.5482 28.9613 14.3023C28.9507 13.109 29.1346 11.9856 29.5129 10.9321C29.9186 9.80186 30.5481 8.75198 31.4013 7.78242C32.8731 6.10979 34.5136 5.00396 36.3231 4.46494C36.5982 4.38298 36.8772 4.31412 37.1601 4.25837C37.7236 4.14735 38.2864 4.0945 38.8488 4.09984C40.7403 4.1178 42.6256 4.79406 44.5046 6.12863C44.9352 6.43489 45.5924 6.85405 46.4762 7.38611ZM47.838 5.87205C49.1501 4.9126 50.5364 4.15676 51.9969 3.60452C53.6365 2.98457 55.2743 2.65642 56.9102 2.62006C58.4134 2.58665 59.8301 2.80145 61.1605 3.26446C61.3042 3.31446 61.4468 3.36735 61.5885 3.42314C63.104 4.02003 64.4137 4.91349 65.5176 6.1035C66.7263 7.40699 67.608 8.82976 68.1628 10.3718C68.4446 11.155 68.6355 11.9494 68.7356 12.7552C68.8237 13.4642 68.8415 14.1819 68.7889 14.9084C68.6807 16.4041 68.2814 17.8502 67.5912 19.2469C67.4912 19.4491 67.3861 19.6485 67.2758 19.8449C66.6336 20.9884 65.816 22.0334 64.8228 22.9798C62.4489 25.2419 60.559 27.0121 59.153 28.2904L48.5531 37.8314C48.1026 38.2369 47.6542 38.2346 47.2077 37.8247C46.0468 36.7587 44.3087 35.1805 41.9937 33.09C36.7162 28.3244 32.821 24.6995 30.3082 22.2152C29.6138 21.529 29.024 20.7802 28.5389 19.9689C28.2584 19.4998 28.0129 19.0098 27.8023 18.4989C27.2546 17.1695 26.9742 15.7765 26.9613 14.3199C26.956 13.7109 26.9974 13.1088 27.0856 12.5137C27.2039 11.7159 27.4063 10.9305 27.6928 10.1576C27.9487 9.46729 28.2626 8.81177 28.6346 8.19102C29.0003 7.58083 29.422 7.00424 29.8998 6.46127C31.5234 4.61603 33.3436 3.35287 35.3603 2.67179C35.8211 2.51617 36.2922 2.39095 36.7735 2.29611C37.5971 2.1338 38.4165 2.07032 39.2316 2.10567C41.4062 2.19998 43.5503 2.99772 45.6639 4.49888C46.053 4.77561 46.6676 5.16686 47.5077 5.67262C47.6264 5.74404 47.7365 5.81052 47.838 5.87205Z" fill="rgb(0,0,0)" fill-rule="evenodd" />
		<path id="Vector(Border)" d="M19.9797 40.3302C20.009 42.71 20.1646 44.8527 20.4465 46.758C20.5285 47.312 21.0282 47.6828 21.5821 47.6009C22.1361 47.5189 22.507 47.0192 22.425 46.4652C22.1562 44.6488 22.0077 42.5956 21.9796 40.3056C21.9625 38.92 21.9996 36.834 22.0907 34.0475C22.1386 32.584 22.1701 31.4859 22.185 30.7531C22.199 30.0746 22.1709 29.0739 22.1007 27.751C22.0219 26.2649 22 25.1558 22.0351 24.4238C22.1161 22.739 21.7696 21.4411 20.9958 20.5301C20.833 20.3384 20.6546 20.1666 20.4606 20.0146C19.7192 19.4339 18.7503 19.1436 17.554 19.1436C16.9854 19.1436 16.4512 19.2362 15.9512 19.4214C15.2101 19.696 14.5444 20.1742 13.9541 20.8559C13.4416 21.4478 13.0833 22.0858 12.8791 22.7697C12.6854 23.4187 12.6306 24.1091 12.7145 24.841C12.8974 26.4345 13.0058 28.2318 13.0399 30.2327C13.0605 31.4419 13.052 33.261 13.0143 35.6902C12.9632 38.9891 12.9736 41.4675 13.0455 43.1252C13.0516 43.2647 13.0469 43.4892 13.0315 43.7986C13.0004 44.4244 13.0185 44.9125 13.0858 45.2628C13.2089 45.9028 13.5019 46.472 13.9647 46.9702C14.9969 48.0795 16.0932 49.3847 17.2538 50.8856C17.955 51.7925 18.983 53.1793 20.3376 55.0458C22.004 57.3418 23.281 59.0467 24.1686 60.1605C25.6606 62.0326 27.1073 63.6391 28.5089 64.9799C28.9135 65.367 29.5356 65.3532 29.9227 64.9486C30.3099 64.544 30.2961 63.9219 29.8914 63.5347C28.5549 62.256 27.1686 60.7158 25.7327 58.914C24.8638 57.8238 23.605 56.1428 21.9563 53.8711C20.5897 51.9882 19.5496 50.5852 18.836 49.6622C17.6382 48.1132 16.5029 46.7621 15.4301 45.6091C15.2275 45.391 15.1007 45.1497 15.0499 44.8851C15.0128 44.6925 15.0059 44.3635 15.029 43.8981C15.0476 43.5264 15.0524 43.2399 15.0436 43.0386C14.9734 41.42 14.9636 38.9809 15.0141 35.7212C15.0521 33.2703 15.0606 31.4295 15.0396 30.1986C15.0044 28.1329 14.8917 26.271 14.7015 24.613C14.6509 24.1721 14.6829 23.7553 14.7976 23.3625C14.9224 22.9348 15.1453 22.5356 15.4661 22.1651C15.8582 21.7123 16.2973 21.41 16.7834 21.2582C17.0283 21.1818 17.2852 21.1436 17.554 21.1436C18.4255 21.1436 19.0555 21.3601 19.4439 21.7933C19.4532 21.8037 19.4625 21.8143 19.4715 21.825C19.9045 22.3346 20.0931 23.169 20.0374 24.3281C19.9991 25.1273 20.0212 26.3036 20.1035 27.8569C20.1711 29.1309 20.1984 30.0826 20.1855 30.7122C20.1706 31.4368 20.1394 32.5267 20.0918 33.9821C19.9997 36.7986 19.9623 38.9146 19.9797 40.3302Z" fill="rgb(0,0,0)" fill-rule="evenodd" />
		<path id="Vector(Border)" d="M73.8287 40.3022C73.8005 42.5935 73.652 44.6478 73.3831 46.4652C73.3011 47.0192 73.672 47.5189 74.2259 47.6009C74.7799 47.6828 75.2796 47.312 75.3615 46.758C75.6436 44.8516 75.7993 42.7079 75.8285 40.3268C75.8459 38.9105 75.8085 36.7933 75.7162 33.9753C75.6687 32.5229 75.6375 31.4352 75.6226 30.7121C75.6097 30.083 75.637 29.1318 75.7046 27.8585C75.7871 26.3044 75.8091 25.1275 75.7707 24.3278C75.7141 23.1692 75.9024 22.335 76.3357 21.8252C76.3447 21.8146 76.3538 21.8041 76.3631 21.7938C76.752 21.3603 77.3824 21.1436 78.2545 21.1436C78.5229 21.1436 78.7795 21.1817 79.0242 21.258C79.5105 21.4096 79.9499 21.712 80.3423 22.1651C80.6633 22.5359 80.8863 22.9353 81.0111 23.3633C81.1256 23.7558 81.1576 24.1724 81.107 24.613C80.9168 26.271 80.8041 28.1329 80.7689 30.1986C80.7479 31.4295 80.7564 33.2703 80.7944 35.7212C80.8449 38.9808 80.8351 41.42 80.7649 43.0386C80.7561 43.2399 80.761 43.5264 80.7795 43.8981C80.8027 44.3635 80.7957 44.6925 80.7587 44.8851C80.7078 45.1497 80.5811 45.391 80.3785 45.6091C79.3054 46.7623 78.1699 48.1135 76.972 49.6627C76.2582 50.5859 75.218 51.989 73.8513 53.8721C72.2029 56.1435 70.9443 57.8243 70.0754 58.9145C68.6397 60.7161 67.2536 62.2562 65.9171 63.5347C65.5125 63.9219 65.4987 64.544 65.8858 64.9486C66.2729 65.3532 66.895 65.367 67.2997 64.9799C68.7011 63.6392 70.1477 62.0329 71.6395 60.161C72.5271 59.0473 73.8039 57.3425 75.47 55.0468C76.8248 53.1801 77.8528 51.7932 78.5542 50.8861C79.7149 49.385 80.8114 48.0797 81.8439 46.9702C82.3067 46.472 82.5996 45.9028 82.7227 45.2628C82.7901 44.9125 82.8082 44.4244 82.777 43.7986C82.7616 43.4892 82.757 43.2647 82.7631 43.1252C82.8349 41.4675 82.8453 38.9891 82.7942 35.6902C82.7565 33.2609 82.748 31.4418 82.7686 30.2327C82.8027 28.2317 82.9112 26.4345 83.094 24.841C83.2664 23.3379 82.8532 22.0095 81.8542 20.8559C81.2636 20.1739 80.5977 19.6957 79.8563 19.4211C79.3566 19.2361 78.8227 19.1436 78.2545 19.1436C77.0577 19.1436 76.0884 19.434 75.3467 20.015C75.1529 20.1668 74.9746 20.3384 74.8118 20.5299C74.0369 21.4415 73.6907 22.7395 73.773 24.424C73.8082 25.1563 73.7864 26.2658 73.7075 27.7525C73.6373 29.0747 73.6091 30.075 73.623 30.7532C73.6381 31.4844 73.6695 32.5803 73.7173 34.0407C73.8086 36.8288 73.8457 38.9159 73.8287 40.3022Z" fill="rgb(0,0,0)" fill-rule="evenodd" />
		<path id="Vector(Border)" d="M34.3411 51.9519C34.2906 53.6835 34.0788 55.2264 33.7059 56.5807C33.5573 57.1206 33.8647 57.6616 34.4046 57.8103C34.9445 57.9589 35.4855 57.6515 35.6342 57.1116C36.0497 55.6027 36.285 53.9022 36.3403 52.0103C36.3728 50.8971 36.3322 49.239 36.2185 47.0361C36.1514 45.7357 36.1107 44.7644 36.0966 44.122C36.0565 42.3045 35.2821 41.1553 33.7735 40.6744C32.562 40.2882 30.8278 40.4177 28.571 41.0629L28.571 41.0629C28.0325 41.2168 27.7304 41.7608 27.8843 42.2992C28.0382 42.8377 28.5822 43.1398 29.1207 42.9859C30.9901 42.4515 32.3385 42.3162 33.1661 42.5799C33.3337 42.6334 33.4788 42.713 33.6012 42.8188C33.918 43.0925 34.0833 43.5416 34.0971 44.1661C34.1117 44.8281 34.153 45.8191 34.2211 47.1392C34.3321 49.2883 34.3721 50.8926 34.3411 51.9519Z" fill="rgb(0,0,0)" fill-rule="evenodd" />
		<path id="Vector(Border)" d="M62.3797 42.7784C63.1715 42.1638 64.585 42.2257 66.6203 42.9639C67.1467 43.1549 67.7104 42.8913 67.9014 42.3649C68.0923 41.8384 67.8287 41.2748 67.3023 41.0838C64.7246 40.1488 62.7519 40.1319 61.3843 41.0331C61.3053 41.0852 61.2283 41.1403 61.1534 41.1984C61.049 41.2795 60.9495 41.3656 60.855 41.4569C59.7 42.5714 59.2801 44.4476 59.5952 47.0855C59.6912 47.8893 59.7021 49.1312 59.628 50.8111C59.5674 52.1837 59.5556 53.2196 59.5925 53.9188C59.6562 55.1256 59.857 56.2114 60.1947 57.1761C60.3797 57.7047 60.9403 57.9746 61.4689 57.7896C61.9975 57.6045 62.2674 57.0439 62.0824 56.5153C61.8076 55.7305 61.6434 54.8298 61.5897 53.8133C61.5562 53.1787 61.5683 52.2073 61.626 50.8992C61.705 49.1106 61.69 47.7603 61.5811 46.8482C61.3297 44.7434 61.5959 43.3868 62.3797 42.7784Z" fill="rgb(0,0,0)" fill-rule="evenodd" />
		<path id="Vector(Border)" d="M27.1683 45.8674C27.0809 47.2173 26.8552 48.4145 26.491 49.459C26.3067 49.9878 26.5773 50.5482 27.1061 50.7325C27.6348 50.9169 28.1952 50.6462 28.3795 50.1175C28.8035 48.9013 29.065 47.5277 29.1641 45.9965C29.222 45.1016 29.2266 43.769 29.1778 41.9988C29.1478 40.9113 29.1353 40.0994 29.1402 39.5632C29.1438 39.1503 29.1336 38.5362 29.1096 37.7209C29.0651 36.2114 29.0848 35.0979 29.1687 34.3803C29.4777 31.7383 29.0526 29.8606 27.8934 28.7471C27.8003 28.6576 27.7024 28.5731 27.5997 28.4935C27.5242 28.4349 27.4467 28.3795 27.3671 28.3271C25.9983 27.4266 24.0258 27.444 21.4494 28.3793L21.4494 28.3793C20.923 28.5703 20.6595 29.1341 20.8506 29.6605C21.0417 30.1869 21.6054 30.4503 22.1318 30.2592C24.1669 29.5205 25.5809 29.4587 26.3739 30.0738C27.1593 30.6829 27.4287 32.041 27.1823 34.148C27.0871 34.9623 27.0631 36.1729 27.1105 37.7798C27.1338 38.5696 27.1437 39.158 27.1403 39.5448C27.1351 40.1055 27.1479 40.9419 27.1785 42.0539C27.2256 43.7626 27.2222 45.0338 27.1683 45.8674Z" fill="rgb(0,0,0)" fill-rule="evenodd" />
		<path id="Vector(Border)" d="M69.4854 30.0679C70.2586 29.462 71.6565 29.5257 73.679 30.2591C74.2055 30.45 74.7691 30.1863 74.96 29.6599C75.1509 29.1334 74.8872 28.5698 74.3608 28.3789C71.7905 27.4469 69.8296 27.4306 68.4781 28.33C68.4007 28.3816 68.3253 28.4361 68.2518 28.4936C68.202 28.5327 68.1532 28.5731 68.1055 28.6147C66.8752 29.6882 66.3761 31.5997 66.6083 34.3494C66.7775 36.3539 66.8056 39.399 66.6927 43.4846C66.6676 44.3936 66.6499 45.0754 66.6398 45.5301C66.6065 47.0186 66.8703 48.5498 67.4313 50.1237C67.6193 50.6512 68.1815 50.9179 68.709 50.7299C69.2365 50.5418 69.5032 49.9796 69.3152 49.4522C68.8368 48.1099 68.6115 46.8174 68.6393 45.5745C68.6494 45.1234 68.6669 44.4452 68.6919 43.5399C68.8069 39.3797 68.7767 36.2601 68.6012 34.1811C68.4206 32.0424 68.7154 30.6713 69.4854 30.0679Z" fill="rgb(0,0,0)" fill-rule="evenodd" />
	</g>
</svg>
