<svg viewBox="0 0 97 97" xmlns="http://www.w3.org/2000/svg" xmlns:xlink="http://www.w3.org/1999/xlink" width="97.000000" height="97.000000" fill="none">
	<rect id="Frame" width="97.000000" height="97.000000" x="0.000000" y="0.000000" fill="rgb(255,255,255)" fill-opacity="0" />
	<g id="2A88Xx">
		<path id="Vector(Border)" d="M95.9351 23.9671C95.5556 23.5552 94.9339 23.5298 94.522 23.9093C94.1102 24.2888 94.0848 24.9105 94.4643 25.3223C94.8681 25.7606 95.0628 26.2325 95.0483 26.7381C94.9844 29.0234 94.7199 31.0731 94.2549 32.8873C93.661 35.1995 92.6549 37.4317 91.2367 39.5837C90.027 41.4192 88.4269 43.3219 86.4362 45.2917L69.8864 61.7081L60.0544 71.6407L57.7183 74.0087C57.6968 74.0304 57.6646 74.0631 57.6219 74.1066C57.0791 74.659 56.6466 74.9555 56.3245 74.9961C56.2687 75.0032 56.2134 75.0116 56.1587 75.0214C56.1051 74.2966 56.1767 73.5094 56.3733 72.6597C57.0303 69.8182 57.1719 66.8299 56.798 63.6949C56.2702 59.2677 54.6349 55.1531 51.8922 51.3511C51.7854 51.2031 51.63 50.9081 51.426 50.466C51.2442 50.0721 51.0989 49.785 50.99 49.6047C50.7511 49.2088 50.4791 48.9246 50.1741 48.7522C49.4742 48.3541 48.4764 47.6322 47.1805 46.5865C46.2235 45.8141 45.4867 45.2516 44.9704 44.899C44.0813 44.2918 43.2171 43.8289 42.3776 43.5104C42.3179 43.4877 42.2458 43.4659 42.1615 43.4451C41.4679 42.7901 40.62 42.3112 39.6177 42.0085C39.014 41.8261 38.1063 41.665 36.8949 41.525C36.0407 41.4264 35.4167 41.3326 35.0228 41.2437C33.4393 40.886 31.6726 40.7894 29.7229 40.9537C28.5817 41.0498 26.8924 41.3086 24.6551 41.73C24.5613 41.7476 24.4906 41.7609 24.4429 41.7699C24.3565 41.7861 24.2532 41.8154 24.133 41.8577C23.0193 41.5556 21.9335 41.6339 20.8755 42.0925C20.2506 42.3633 19.4197 42.9168 18.3828 43.753C18.1191 43.9656 17.922 44.1225 17.7915 44.2236C15.5678 45.9453 13.6965 47.6584 12.1778 49.363C10.377 51.3842 8.9495 53.5197 7.89527 55.7696C7.02348 57.6312 6.38489 59.5411 5.9795 61.4992C5.7195 62.7551 5.55542 64.0308 5.48727 65.3263C5.27797 69.2959 5.83612 72.9631 7.16172 76.328C8.71162 80.2623 11.3107 83.7832 14.9588 86.8908C15.1458 87.05 15.3354 87.206 15.5274 87.3588C18.5298 89.7465 22.1551 91.3511 26.4032 92.1724C30.02 92.8719 33.5978 92.8231 37.1365 92.026C40.8183 91.1967 44.2156 89.5023 47.3285 86.9428C50.0735 84.6864 52.7645 81.691 55.4017 77.9565C55.8295 77.3504 56.2206 77.0251 56.5747 76.9804C57.1093 76.913 57.612 76.7117 58.083 76.3767C58.3317 76.1997 58.6536 75.9102 59.0485 75.5083C59.0898 75.4663 59.1208 75.4348 59.1415 75.4138L61.4782 73.0453L71.3078 63.1151L87.8447 46.7116C89.9331 44.6451 91.6204 42.636 92.9066 40.6842C94.4475 38.3461 95.5426 35.913 96.192 33.3849C96.6943 31.4254 96.9795 29.2285 97.0475 26.794C97.0582 26.4223 97.0183 26.0638 96.928 25.7185C96.7638 25.091 96.4328 24.5072 95.9351 23.9671ZM54.2948 76.1276C54.0534 74.9323 54.0968 73.626 54.4249 72.2086C55.0293 69.5945 55.1584 66.8355 54.8121 63.9317C54.6728 62.7632 54.4494 61.6177 54.142 60.4953C53.3749 57.6939 52.0842 55.0359 50.2702 52.5212C50.0881 52.2689 49.868 51.8632 49.61 51.304C49.3714 50.7869 49.2313 50.5167 49.1898 50.4932C48.3929 50.04 47.3045 49.2566 45.9245 48.1429C45.0089 47.404 44.3149 46.8732 43.8425 46.5506C43.0915 46.0377 42.3733 45.6501 41.6879 45.3878C41.6792 45.3858 41.6659 45.3828 41.6479 45.3789C41.3278 45.3088 41.0791 45.186 40.9018 45.0106C40.4095 44.5119 39.7887 44.1494 39.0394 43.923C38.5498 43.7751 37.7584 43.6381 36.6654 43.5118C35.7403 43.405 35.046 43.2993 34.5824 43.1946C33.1994 42.8822 31.6355 42.7996 29.8908 42.9466C28.8175 43.037 27.1957 43.2866 25.0252 43.6954C24.9433 43.7108 24.8785 43.723 24.8309 43.732C24.8189 43.736 24.7966 43.7441 24.7639 43.7563C24.383 43.8984 24.0495 43.9241 23.7636 43.8335C23.0423 43.6041 22.3448 43.6354 21.6709 43.9275C21.212 44.1264 20.5344 44.5872 19.6383 45.3099C19.3644 45.5307 19.157 45.6957 19.0161 45.8048C16.8896 47.4513 15.1079 49.0808 13.6711 50.6935C11.9996 52.5695 10.678 54.5444 9.70631 56.6182C8.89054 58.3602 8.29608 60.1473 7.92293 61.9794C7.69209 63.1128 7.54595 64.2635 7.4845 65.4314C7.29252 69.0727 7.80133 72.4399 9.01095 75.5331C10.4433 79.1958 12.8582 82.4742 16.2557 85.3683C19.0981 87.7879 22.6071 89.4014 26.7828 90.2088C30.1258 90.8553 33.4305 90.8106 36.697 90.0749C40.0697 89.3152 43.1901 87.7563 46.0582 85.3979C48.6646 83.2555 51.2345 80.3905 53.7679 76.8029C53.9508 76.5439 54.1264 76.3188 54.2948 76.1276Z" fill="rgb(0,0,0)" fill-rule="evenodd" />
		<path id="Vector(Border)" d="M77.6274 39.6204C77.0792 40.2844 76.6311 40.6904 76.2829 40.8382C75.7674 41.057 75.5343 41.634 75.7531 42.1495C75.972 42.6649 76.5489 42.898 77.0644 42.6792C77.5069 42.4913 77.9255 42.2107 78.3202 41.8374C78.5346 41.6346 78.8178 41.32 79.1698 40.8936C79.4389 40.5675 79.642 40.3363 79.779 40.2L93.3677 26.6326C93.8297 26.1727 94.2215 25.8583 94.5431 25.6895C95.3653 25.2579 95.9572 24.7055 96.3189 24.0323C96.4487 23.7907 96.5458 23.541 96.61 23.2831C96.7426 22.751 96.7357 22.1841 96.5894 21.5825C95.3492 16.4848 93.2137 12.2877 90.1828 8.991C89.6317 8.39163 89.0528 7.82385 88.446 7.28764C85.5969 4.7702 82.1328 2.94882 78.0536 1.82349C73.7883 0.647249 69.7241 0.454175 65.8609 1.24427C65.5501 1.30783 65.2406 1.37776 64.9324 1.45406C64.2852 1.61426 63.6473 1.80166 63.0187 2.01625C59.5766 3.19131 56.4128 5.18174 53.5273 7.98754C49.0329 12.3555 42.3649 18.9809 33.5231 27.8637C28.6892 32.72 25.0585 36.3555 22.631 38.7702C21.7642 39.6341 21.2052 40.811 20.9538 42.3009C20.8607 42.8531 21.2214 43.3602 21.7736 43.4533C22.3258 43.5465 22.8328 43.1858 22.926 42.6336C23.1063 41.5648 23.4781 40.7496 24.0415 40.1882C26.4713 37.7711 30.1043 34.1333 34.9406 29.2746C43.7742 20.4001 50.4345 13.7823 54.9216 9.42141C57.6758 6.74327 60.6919 4.87201 63.9701 3.80765C64.4455 3.65328 64.9265 3.51588 65.413 3.39546C65.5749 3.35537 65.7373 3.31721 65.9001 3.28097C69.5578 2.46673 73.4317 2.62356 77.5217 3.75147C81.5108 4.85197 84.8504 6.6517 87.5403 9.15066C90.9566 12.3244 93.3252 16.6259 94.6461 22.0553C94.7153 22.3397 94.7136 22.603 94.6411 22.845C94.5146 23.2675 94.1721 23.6254 93.6135 23.9186C93.1137 24.181 92.5607 24.6139 91.9546 25.2172L78.3678 38.7827C78.1848 38.9649 77.938 39.2441 77.6274 39.6204Z" fill="rgb(0,0,0)" fill-rule="evenodd" />
		<path id="Vector(Border)" d="M40.0266 72.7277C41.1037 71.1345 41.7248 69.0831 41.8896 66.5737C41.9263 66.0149 41.5161 65.547 40.9573 65.5103C40.3985 65.4736 39.9306 65.8838 39.8939 66.4426C39.7527 68.5918 39.2447 70.3134 38.3697 71.6076C37.8347 72.3989 37.2093 73.0749 36.4937 73.6358C36.1402 73.9128 35.7648 74.1617 35.3673 74.3825C34.8276 74.6823 34.2688 74.9191 33.6912 75.093C33.0506 75.2857 32.3867 75.401 31.6994 75.4389C30.4047 75.5101 29.1632 75.2997 27.9751 74.8074C27.4082 74.5725 26.8791 74.2835 26.3878 73.9402C25.8119 73.5378 25.288 73.061 24.8161 72.5097C23.5934 71.0806 22.8563 69.5744 22.6048 67.9911C22.6035 67.9826 22.6021 67.9741 22.6008 67.9656C22.5256 67.4815 22.497 66.9991 22.5153 66.5185C22.5549 65.4735 22.8155 64.437 23.297 63.4088C24.1142 61.6637 25.2089 60.3549 26.5809 59.4823C27.9593 58.6057 29.6176 58.1694 31.5559 58.1734L32.6858 58.1734L32.6894 58.1734C33.2494 58.1734 33.6894 57.7334 33.6894 57.1734C33.6894 56.6134 33.2494 56.1734 32.6894 56.1734L32.6858 56.1734L31.56 56.1734C29.2282 56.1686 27.2083 56.7105 25.5003 57.7989C25.3701 57.8818 25.2421 57.9677 25.1162 58.0566C23.6012 59.126 22.3911 60.6273 21.4858 62.5605C20.9183 63.7722 20.598 64.9985 20.525 66.2394C20.4853 66.9129 20.5185 67.5907 20.6246 68.2729C20.65 68.4364 20.6794 68.599 20.713 68.7609C21.0825 70.5458 21.9437 72.2289 23.2967 73.8102C23.8724 74.4828 24.5109 75.0659 25.2124 75.5597C25.8294 75.994 26.4952 76.3591 27.2096 76.6551C28.6782 77.2636 30.2115 77.5238 31.8094 77.4358C33.4225 77.347 34.9322 76.912 36.3385 76.1309C36.874 75.8334 37.3765 75.4952 37.8462 75.1163C38.6755 74.4472 39.4023 73.651 40.0266 72.7277Z" fill="rgb(0,0,0)" fill-rule="evenodd" />
		<path id="Vector(Border)" d="M82.5592 17.931C82.36 18.4509 81.9161 18.9943 81.2275 19.5613C81.0096 19.7408 80.858 19.8739 80.7728 19.9606L66.632 34.2542L50.5074 50.3153L50.5054 50.3133L50.5053 50.3174C50.1074 50.7114 49.4852 50.7084 49.0911 50.3105C48.6978 49.9132 48.7001 49.2925 49.096 48.8983L49.0981 48.8963L65.2103 32.8476L79.346 18.5592C79.4805 18.4222 79.6839 18.2417 79.9561 18.0174C80.3731 17.6741 80.6183 17.4066 80.6917 17.2152C80.8921 16.6923 81.4604 16.4389 81.9833 16.6393C82.5062 16.8397 82.7596 17.408 82.5592 17.931Z" fill="rgb(0,0,0)" fill-rule="evenodd" />
		<path id="Vector(Border)" d="M59.9802 21.5041C59.8848 20.9523 59.3762 20.5938 58.8244 20.6892C58.2726 20.7846 57.9141 21.2932 58.0095 21.845C58.0421 22.0335 58.0124 22.2102 57.9203 22.375C57.8282 22.5399 57.6239 22.7799 57.3073 23.0949L40.4636 39.9139C39.535 40.8383 38.9391 41.6712 38.6758 42.4128C38.4884 42.9405 38.7559 43.5023 39.2836 43.6897C39.8113 43.8771 40.3732 43.6096 40.5605 43.0819C40.7225 42.6256 41.1613 42.0414 41.8768 41.3292L58.7182 24.5125C59.1671 24.0657 59.4832 23.6783 59.6664 23.3502C59.9887 22.7732 60.0933 22.1578 59.9802 21.5041Z" fill="rgb(0,0,0)" fill-rule="evenodd" />
		<path id="Vector(Border)" d="M30.7668 48.9605C30.8239 48.9561 30.8823 48.9565 30.9416 48.9619C31.0544 48.9723 31.2211 48.9892 31.4418 49.0126C31.8935 49.0607 32.2269 49.0885 32.4418 49.0961C34.099 49.1551 35.6758 49.4451 37.1723 49.966C39.257 50.6917 41.1857 51.8657 42.9583 53.488C47.5142 57.6569 49.4748 62.7394 48.8402 68.7356C48.5455 71.5199 47.681 74.02 46.2467 76.2357C44.5026 78.9305 42.3933 80.9941 39.9185 82.4265C39.2346 82.8224 38.5227 83.17 37.7829 83.4695C34.3784 84.8476 30.7668 85.0518 26.9483 84.0821C24.5036 83.4614 22.3258 82.4555 20.4151 81.0644C19.3247 80.2705 18.353 79.375 17.5 78.3779C16.9059 77.6835 16.3695 76.9399 15.8906 76.147C15.5045 75.5077 15.1633 74.8488 14.8669 74.1703C14.2796 72.8257 13.8685 71.4042 13.6336 69.9057C13.5899 69.6273 13.5527 69.3483 13.5218 69.0685C13.3003 67.058 13.4091 65.0112 13.8484 62.9279C14.3461 60.5684 15.2242 58.4692 16.4827 56.6304C16.8532 56.0892 17.2565 55.5705 17.6928 55.0744C17.8303 54.9181 17.9707 54.7645 18.1139 54.6136C19.968 52.6599 22.3014 51.1611 25.1142 50.1173C25.9663 49.8012 27.2293 49.5132 28.9032 49.2531C29.6242 49.1411 30.1607 49.0499 30.5128 48.9796C30.5987 48.9624 30.6839 48.9564 30.7668 48.9605ZM30.8136 50.9587C30.9146 50.9684 31.0535 50.9826 31.2303 51.0014C31.7288 51.0544 32.1089 51.0856 32.3707 51.0949C33.7836 51.1452 35.131 51.3882 36.413 51.8238C38.2842 52.4598 40.016 53.5064 41.6082 54.9635C43.7718 56.9433 45.2786 59.152 46.1288 61.5898C46.8738 63.7258 47.1146 66.0375 46.8513 68.525C46.5901 70.9926 45.8289 73.2006 44.5676 75.1491C42.9386 77.6661 40.9674 79.5641 38.6539 80.8431C38.1309 81.1322 37.5904 81.3897 37.0325 81.6156C34.0329 82.8298 30.8356 83.0058 27.4405 82.1437C25.2663 81.5916 23.3336 80.705 21.6424 79.4838C21.6257 79.4718 21.609 79.4596 21.5923 79.4475C20.6105 78.7327 19.7381 77.9252 18.9752 77.0249C18.4696 76.4283 18.0121 75.791 17.6026 75.113C17.2837 74.585 16.9994 74.0414 16.7498 73.4824C16.2042 72.2608 15.8241 70.9653 15.6094 69.596C15.5837 69.4317 15.5604 69.2672 15.5397 69.1023C15.3032 67.2227 15.3917 65.3021 15.8054 63.3407C16.2668 61.1529 17.0915 59.2231 18.2793 57.5514C18.5636 57.1512 18.8687 56.7659 19.1946 56.3953C19.2364 56.3478 19.2784 56.3007 19.3207 56.2538C20.999 54.3955 23.162 52.9751 25.8098 51.9924C26.5357 51.7232 27.6692 51.4688 29.2103 51.2294C29.9019 51.1219 30.4364 51.0317 30.8136 50.9587Z" fill="rgb(0,0,0)" fill-rule="evenodd" />
	</g>
	<path id="Vector(Border)" d="M29.6921 70.3644C30.1453 70.5522 30.6375 70.6461 31.1685 70.6461C31.6995 70.6461 32.1916 70.5522 32.6449 70.3644C33.0981 70.1767 33.5125 69.8951 33.888 69.5196C34.2635 69.1441 34.5451 68.7297 34.7329 68.2765C34.9206 67.8232 35.0145 67.3311 35.0145 66.8001C35.0145 66.2691 34.9206 65.7769 34.7329 65.3237C34.5451 64.8704 34.2635 64.456 33.888 64.0806C33.5125 63.7051 33.0982 63.4235 32.6449 63.2357C32.1917 63.048 31.6995 62.9541 31.1685 62.9541C30.6375 62.9541 30.1453 63.048 29.6921 63.2357C29.2388 63.4235 28.8245 63.7051 28.449 64.0806C28.0735 64.456 27.7919 64.8704 27.6041 65.3237C27.4164 65.7769 27.3225 66.2691 27.3225 66.8001C27.3225 67.3311 27.4164 67.8232 27.6041 68.2765C27.7919 68.7297 28.0735 69.1441 28.449 69.5196C28.8245 69.8951 29.2388 70.1767 29.6921 70.3644ZM31.8771 68.5109C31.6596 68.601 31.4234 68.6461 31.1685 68.6461C30.9136 68.6461 30.6774 68.601 30.4599 68.5109C30.2423 68.4208 30.0434 68.2856 29.8632 68.1054C29.683 67.9252 29.5478 67.7263 29.4577 67.5087C29.3676 67.2912 29.3225 67.0549 29.3225 66.8001C29.3225 66.5452 29.3676 66.309 29.4577 66.0914C29.5478 65.8739 29.683 65.675 29.8632 65.4948C30.0434 65.3146 30.2423 65.1794 30.4598 65.0893C30.6774 64.9992 30.9136 64.9541 31.1685 64.9541C31.4234 64.9541 31.6596 64.9992 31.8771 65.0893C32.0947 65.1794 32.2936 65.3146 32.4738 65.4948C32.654 65.675 32.7892 65.8739 32.8793 66.0914C32.9694 66.309 33.0145 66.5452 33.0145 66.8001C33.0145 67.055 32.9694 67.2912 32.8793 67.5087C32.7892 67.7263 32.654 67.9252 32.4738 68.1054C32.2936 68.2856 32.0947 68.4208 31.8771 68.5109Z" fill="rgb(0,0,0)" fill-rule="evenodd" />
</svg>
